<?xml version="1.0" encoding="utf-8"?>
<!-- Generator: Adobe Illustrator 23.0.5, SVG Export Plug-In . SVG Version: 6.00 Build 0)  -->
<svg version="1.1" id="Capa_1" xmlns="http://www.w3.org/2000/svg" xmlns:xlink="http://www.w3.org/1999/xlink" x="0px" y="0px"
	 viewBox="0 0 800 310" style="enable-background:new 0 0 800 310;" xml:space="preserve">
<style type="text/css">
	.st0{fill:none;stroke:#000000;stroke-width:2;stroke-miterlimit:10;}
	.st1{stroke:#1D1D1D;stroke-width:2.12;stroke-miterlimit:10;}
	.st2{stroke:#000000;stroke-width:2;stroke-miterlimit:10;}
</style>
<g>
	<path d="M27.08,48.12l15.78-0.39v2.21l-15.78,0.39V48.12z"/>
	<path d="M58.05,39.49c-0.18,4.6-3.17,7.59-7.62,7.59c-4.16,0-7.83-3.07-7.83-9.1s3.46-9.1,7.83-9.1s7.23,2.73,7.62,7.77h-3.48
		c-0.29-3.3-1.98-4.68-4.26-4.68c-2.7,0-4.47,1.95-4.47,6.01s1.79,6.01,4.47,6.01c2.31,0,3.46-1.14,4.5-4.5H58.05z"/>
	<path d="M66.31,33.56c3.9,0,6.24,3.35,6.24,6.86c0,3.28-2.08,6.66-6.24,6.66s-6.24-3.38-6.24-6.66
		C60.07,36.91,62.41,33.56,66.31,33.56z M66.31,36.42c-2.05,0-3.38,1.56-3.38,3.9c0,2.5,1.38,3.9,3.38,3.9s3.38-1.4,3.38-3.9
		C69.69,37.98,68.37,36.42,66.31,36.42z M70.21,28.88l-2.96,3.64h-2.6l0.78-3.64H70.21z"/>
	<path d="M82.77,46.82v-8.58c0-1.22-0.88-1.95-2.16-1.95c-2.11,0-2.5,2.11-2.5,3.51v7.02h-2.96v-13h2.86v1.04
		c0.47-0.36,1.56-1.3,3.64-1.3c1.51,0,2.81,0.52,3.51,1.72c0.57-0.57,1.85-1.72,4.11-1.72c2.26,0,4.08,1.2,4.08,4.06v9.2h-2.96
		v-8.58c0-1.22-0.88-1.95-2.16-1.95c-2.11,0-2.5,2.11-2.5,3.51v7.02H82.77z"/>
	<path d="M102.09,33.56c3.9,0,6.24,3.35,6.24,6.86c0,3.28-2.08,6.66-6.24,6.66s-6.24-3.38-6.24-6.66
		C95.85,36.91,98.19,33.56,102.09,33.56z M102.09,36.42c-2.05,0-3.38,1.56-3.38,3.9c0,2.5,1.38,3.9,3.38,3.9s3.38-1.4,3.38-3.9
		C105.47,37.98,104.14,36.42,102.09,36.42z"/>
	<path d="M122.63,36.37c-1.9,0-3.02,0.78-3.02,3.93v6.53h-2.96v-13h2.86v1.46c0.73-0.88,1.61-1.72,3.28-1.72
		c0.78,0,1.51,0.16,2.08,0.42l-0.16,2.86C124.11,36.58,123.62,36.37,122.63,36.37z"/>
	<path d="M131.37,33.56c3.64,0,5.9,2.6,6.08,7.44h-9.23c0.23,2.26,1.59,3.22,3.33,3.22c2,0,2.63-1.25,2.89-1.82h2.86
		c-0.16,1.77-1.82,4.68-5.72,4.68c-3.8,0-6.24-3.12-6.24-6.66C125.33,36.91,127.73,33.56,131.37,33.56z M128.43,38.4h5.95
		c-0.18-1.59-1.25-2.5-2.91-2.5C130.09,35.9,128.9,36.65,128.43,38.4z"/>
	<path d="M145.41,33.56c4.52,0,5.56,3.95,5.93,5.72h-3.02c-0.26-1.61-1.07-2.86-3.02-2.86c-1.69,0-3.12,1.3-3.12,3.9
		c0,2.76,1.59,3.9,3.33,3.9c1.98,0,2.6-1.4,3.07-2.6h2.7c0,2.18-1.92,5.46-6.03,5.46c-3.59,0-5.93-3.12-5.93-6.66
		C139.32,36.39,141.87,33.56,145.41,33.56z"/>
	<path d="M159.55,33.56c3.9,0,6.24,3.35,6.24,6.86c0,3.28-2.08,6.66-6.24,6.66s-6.24-3.38-6.24-6.66
		C153.31,36.91,155.65,33.56,159.55,33.56z M159.55,36.42c-2.05,0-3.38,1.56-3.38,3.9c0,2.5,1.38,3.9,3.38,3.9s3.38-1.4,3.38-3.9
		C162.93,37.98,161.6,36.42,159.55,36.42z"/>
	<path d="M174.37,36.37c-1.9,0-3.02,0.78-3.02,3.93v6.53h-2.96v-13h2.86v1.46c0.73-0.88,1.61-1.72,3.28-1.72
		c0.78,0,1.51,0.16,2.08,0.42l-0.16,2.86C175.85,36.58,175.36,36.37,174.37,36.37z"/>
	<path d="M186.72,46.82v-1.14c-0.57,0.42-1.72,1.4-3.59,1.4c-3.8,0-5.93-3.33-5.93-6.66c0-3.74,2.03-6.86,5.82-6.86
		c1.87,0,2.96,0.78,3.59,1.2v-5.62h2.86v17.68H186.72z M183.44,44.22c1.95,0,3.28-1.3,3.28-3.9c0-2.6-1.38-3.9-3.28-3.9
		s-3.38,1.14-3.38,3.9C180.06,42.92,181.49,44.22,183.44,44.22z"/>
	<path d="M204.63,44.12c0.34,0,0.68-0.05,1.17-0.16v2.86c-0.91,0.13-1.38,0.16-1.85,0.16c-1.59,0-2.34-0.34-2.94-1.35
		c-0.47,0.36-1.77,1.46-4.06,1.46c-2.91,0-5.1-2.03-5.1-4.32c0-2.96,2.5-4.16,6.08-4.16h2.5v-0.62c0-1.4-1.09-2.34-2.65-2.34
		c-1.61,0-2.44,0.81-2.44,2.34h-3.17c0-2.81,2.5-4.42,5.69-4.42c2.94,0,5.43,1.33,5.43,4.13V43
		C203.31,43.78,203.83,44.12,204.63,44.12z M197.38,45c2.13,0,3.07-1.82,3.07-2.86v-1.3c-4.52-0.21-5.36,0.83-5.36,2.24
		C195.09,44.12,195.97,45,197.38,45z"/>
	<path d="M214.72,46.82v-8.58c0-1.22-0.88-1.95-2.16-1.95c-2.11,0-2.5,2.11-2.5,3.51v7.02h-2.96v-13h2.86v1.04
		c0.47-0.36,1.56-1.3,3.64-1.3c1.51,0,2.81,0.52,3.51,1.72c0.57-0.57,1.85-1.72,4.11-1.72c2.26,0,4.08,1.2,4.08,4.06v9.2h-2.96
		v-8.58c0-1.22-0.88-1.95-2.16-1.95c-2.11,0-2.5,2.11-2.5,3.51v7.02H214.72z"/>
	<path d="M234.04,33.56c3.9,0,6.24,3.35,6.24,6.86c0,3.28-2.08,6.66-6.24,6.66s-6.24-3.38-6.24-6.66
		C227.8,36.91,230.14,33.56,234.04,33.56z M234.04,36.42c-2.05,0-3.38,1.56-3.38,3.9c0,2.5,1.38,3.9,3.38,3.9s3.38-1.4,3.38-3.9
		C237.42,37.98,236.09,36.42,234.04,36.42z"/>
	<path d="M247.35,35.77c-1.51,0-2.03,0.68-2.03,1.35c0,2.18,7.7,0.57,7.7,5.62c0,2.44-1.77,4.34-5.36,4.34
		c-4.65,0-5.56-2.86-5.56-4.42h2.96c0.21,1.01,0.88,2.08,2.83,2.08c1.43,0,2.26-0.55,2.26-1.64c0-2.57-7.7-0.65-7.7-5.59
		c0-2.03,1.35-3.95,5.15-3.95c4.11,0,5.2,2.7,5.2,4h-2.96C249.9,36.39,248.91,35.77,247.35,35.77z"/>
	<path d="M31.5,65.02v8.58c0,1.56,1.01,2.34,2.29,2.34c2.11,0,2.57-2.08,2.57-3.64v-7.28h2.96v13h-2.86v-1.04
		c-0.47,0.36-1.64,1.3-3.72,1.3c-2.26,0-4.21-1.46-4.21-4.32v-8.94H31.5z"/>
	<path d="M50.27,78.02v-8.58c0-1.22-0.94-1.95-2.26-1.95c-2.11,0-2.6,1.85-2.6,3.25v7.28h-2.96v-13h2.86v1.04
		c1.07-0.83,2.42-1.3,3.74-1.3c2.26,0,4.19,1.2,4.19,4.06v9.2H50.27z"/>
	<path d="M61.97,60.34h2.86v5.62c0.62-0.42,1.72-1.2,3.59-1.2c3.8,0,5.82,3.12,5.82,6.86c0,3.33-2.13,6.66-5.93,6.66
		c-1.87,0-3.02-0.99-3.59-1.4v1.14h-2.76V60.34z M68,67.62c-1.9,0-3.28,1.3-3.28,3.9c0,2.6,1.33,3.9,3.28,3.9s3.38-1.3,3.38-3.9
		C71.38,68.76,69.9,67.62,68,67.62z"/>
	<path d="M82.56,64.76c3.9,0,6.24,3.35,6.24,6.86c0,3.28-2.08,6.66-6.24,6.66s-6.24-3.38-6.24-6.66
		C76.32,68.11,78.66,64.76,82.56,64.76z M82.56,67.62c-2.05,0-3.38,1.56-3.38,3.9c0,2.5,1.38,3.9,3.38,3.9s3.38-1.4,3.38-3.9
		C85.94,69.18,84.62,67.62,82.56,67.62z"/>
	<path d="M95.87,66.97c-1.51,0-2.03,0.68-2.03,1.35c0,2.18,7.7,0.57,7.7,5.62c0,2.44-1.77,4.34-5.36,4.34
		c-4.65,0-5.56-2.86-5.56-4.42h2.96c0.21,1.01,0.88,2.08,2.83,2.08c1.43,0,2.26-0.55,2.26-1.64c0-2.57-7.7-0.65-7.7-5.59
		c0-2.03,1.35-3.95,5.15-3.95c4.11,0,5.2,2.7,5.2,4h-2.96C98.42,67.59,97.43,66.97,95.87,66.97z"/>
	<path d="M115.63,82.7h-2.86v-5.62c-0.62,0.42-1.72,1.2-3.59,1.2c-3.8,0-5.82-3.12-5.82-6.86c0-3.33,2.13-6.66,5.93-6.66
		c1.87,0,3.02,0.99,3.59,1.4v-1.14h2.76V82.7z M109.6,75.42c1.9,0,3.28-1.3,3.28-3.9c0-2.6-1.33-3.9-3.28-3.9s-3.38,1.3-3.38,3.9
		C106.22,74.28,107.7,75.42,109.6,75.42z"/>
	<path d="M121.61,65.02v8.58c0,1.56,1.01,2.34,2.29,2.34c2.11,0,2.57-2.08,2.57-3.64v-7.28h2.96v13h-2.86v-1.04
		c-0.47,0.36-1.64,1.3-3.72,1.3c-2.26,0-4.21-1.46-4.21-4.32v-8.94H121.61z"/>
	<path d="M137.94,64.76c3.64,0,5.9,2.6,6.08,7.44h-9.23c0.23,2.26,1.59,3.22,3.33,3.22c2,0,2.63-1.25,2.89-1.82h2.86
		c-0.16,1.77-1.82,4.68-5.72,4.68c-3.8,0-6.24-3.12-6.24-6.66C131.91,68.11,134.3,64.76,137.94,64.76z M135,69.6h5.95
		c-0.18-1.59-1.25-2.5-2.91-2.5C136.67,67.1,135.47,67.85,135,69.6z"/>
</g>
<g>
	<path d="M253.41,206.2c0.18,0,0.36-0.03,0.63-0.08v1.54c-0.49,0.07-0.74,0.08-0.99,0.08c-0.85,0-1.26-0.18-1.58-0.73
		c-0.25,0.2-0.95,0.79-2.19,0.79c-1.57,0-2.75-1.09-2.75-2.33c0-1.6,1.34-2.24,3.28-2.24h1.34v-0.34c0-0.76-0.59-1.26-1.43-1.26
		c-0.87,0-1.32,0.43-1.32,1.26h-1.71c0-1.51,1.34-2.38,3.07-2.38c1.58,0,2.93,0.71,2.93,2.23v2.86
		C252.69,206.02,252.97,206.2,253.41,206.2z M249.5,206.68c1.15,0,1.65-0.98,1.65-1.54v-0.7c-2.44-0.11-2.89,0.45-2.89,1.2
		C248.26,206.2,248.74,206.68,249.5,206.68z"/>
	<path d="M257.21,204.16c0.01,2-0.48,3.6-1.57,5.81h-1.4c1.02-2.1,1.55-4.01,1.55-5.83c0-1.82-0.66-4.22-1.55-5.8h1.4
		C256.58,200,257.2,202.16,257.21,204.16z"/>
	<path d="M265.99,207.66v-4.62c0-0.66-0.48-1.05-1.16-1.05c-1.13,0-1.34,1.13-1.34,1.89v3.78h-1.6v-7h1.54v0.56
		c0.25-0.2,0.84-0.7,1.96-0.7c0.81,0,1.51,0.28,1.89,0.93c0.31-0.31,0.99-0.93,2.21-0.93c1.22,0,2.2,0.64,2.2,2.19v4.96h-1.6v-4.62
		c0-0.66-0.48-1.05-1.16-1.05c-1.13,0-1.34,1.13-1.34,1.89v3.78H265.99z"/>
	<path d="M274.85,200.66v4.62c0,0.84,0.55,1.26,1.23,1.26c1.13,0,1.39-1.12,1.39-1.96v-3.92h1.6v7h-1.54v-0.56
		c-0.25,0.2-0.88,0.7-2,0.7c-1.22,0-2.27-0.79-2.27-2.33v-4.82H274.85z"/>
	<path d="M283.15,201.71c-0.81,0-1.09,0.36-1.09,0.73c0,1.18,4.15,0.31,4.15,3.03c0,1.32-0.95,2.34-2.89,2.34c-2.51,0-3-1.54-3-2.38
		h1.6c0.11,0.55,0.48,1.12,1.53,1.12c0.77,0,1.22-0.29,1.22-0.88c0-1.39-4.15-0.35-4.15-3.01c0-1.09,0.73-2.13,2.77-2.13
		c2.21,0,2.8,1.46,2.8,2.16h-1.6C284.52,202.04,283.99,201.71,283.15,201.71z"/>
	<path d="M292.08,206.79c-0.34,0.27-0.94,0.59-1.79,0.59c-2.04,0-3.11-1.54-3.11-3.31c0-1.89,1.23-3.56,3.03-3.56
		c1.04,0,1.62,0.39,1.93,0.64v-0.5h1.48v6.86c0,1.79-1.06,2.8-3.11,2.8c-1.99,0-3.28-0.87-3.28-2.38h1.6
		c0.17,0.46,0.39,1.12,1.65,1.12c1.12,0,1.6-0.56,1.6-1.4V206.79z M290.46,206.12c1.02,0,1.68-0.7,1.68-2.04
		c0-1.26-0.63-2.02-1.68-2.02c-1.05,0-1.74,0.76-1.74,2.02C288.72,205.42,289.44,206.12,290.46,206.12z"/>
	<path d="M298.38,200.52c2.1,0,3.36,1.81,3.36,3.7c0,1.76-1.12,3.59-3.36,3.59s-3.36-1.82-3.36-3.59
		C295.02,202.32,296.28,200.52,298.38,200.52z M298.38,202.06c-1.11,0-1.82,0.84-1.82,2.1c0,1.34,0.74,2.1,1.82,2.1
		c1.08,0,1.82-0.76,1.82-2.1C300.21,202.9,299.49,202.06,298.38,202.06z"/>
	<path d="M305.55,201.71c-0.81,0-1.09,0.36-1.09,0.73c0,1.18,4.15,0.31,4.15,3.03c0,1.32-0.95,2.34-2.89,2.34c-2.51,0-3-1.54-3-2.38
		h1.6c0.11,0.55,0.48,1.12,1.53,1.12c0.77,0,1.22-0.29,1.22-0.88c0-1.39-4.15-0.35-4.15-3.01c0-1.09,0.73-2.13,2.77-2.13
		c2.21,0,2.8,1.46,2.8,2.16h-1.6C306.92,202.04,306.39,201.71,305.55,201.71z"/>
	<path d="M315.35,201.71c-0.81,0-1.09,0.36-1.09,0.73c0,1.18,4.15,0.31,4.15,3.03c0,1.32-0.95,2.34-2.89,2.34c-2.51,0-3-1.54-3-2.38
		h1.6c0.11,0.55,0.48,1.12,1.53,1.12c0.77,0,1.22-0.29,1.22-0.88c0-1.39-4.15-0.35-4.15-3.01c0-1.09,0.73-2.13,2.77-2.13
		c2.21,0,2.8,1.46,2.8,2.16h-1.6C316.72,202.04,316.19,201.71,315.35,201.71z"/>
	<path d="M322.74,200.52c2.1,0,3.36,1.81,3.36,3.7c0,1.76-1.12,3.59-3.36,3.59s-3.36-1.82-3.36-3.59
		C319.38,202.32,320.64,200.52,322.74,200.52z M322.74,202.06c-1.11,0-1.82,0.84-1.82,2.1c0,1.34,0.74,2.1,1.82,2.1
		c1.08,0,1.82-0.76,1.82-2.1C324.56,202.9,323.85,202.06,322.74,202.06z"/>
	<path d="M327.5,198.13h1.54v3.03c0.34-0.22,0.92-0.64,1.93-0.64c2.04,0,3.14,1.68,3.14,3.7c0,1.79-1.15,3.59-3.19,3.59
		c-1.01,0-1.62-0.53-1.93-0.76v0.62h-1.48V198.13z M330.75,202.06c-1.02,0-1.77,0.7-1.77,2.1s0.71,2.1,1.77,2.1
		c1.05,0,1.82-0.7,1.82-2.1C332.57,202.67,331.77,202.06,330.75,202.06z"/>
	<path d="M338.73,202.03c-1.02,0-1.62,0.42-1.62,2.12v3.52h-1.6v-7h1.54v0.79c0.39-0.48,0.87-0.93,1.76-0.93
		c0.42,0,0.81,0.08,1.12,0.22l-0.08,1.54C339.53,202.14,339.26,202.03,338.73,202.03z"/>
	<path d="M343.44,200.52c1.96,0,3.18,1.4,3.28,4.01h-4.97c0.13,1.22,0.85,1.74,1.79,1.74c1.08,0,1.42-0.67,1.56-0.98h1.54
		c-0.08,0.95-0.98,2.52-3.08,2.52c-2.04,0-3.36-1.68-3.36-3.59C340.19,202.32,341.47,200.52,343.44,200.52z M341.85,203.12h3.21
		c-0.1-0.85-0.67-1.34-1.57-1.34C342.75,201.78,342.1,202.18,341.85,203.12z"/>
	<path d="M249.82,212.52c1.96,0,3.18,1.4,3.28,4.01h-4.97c0.13,1.22,0.85,1.74,1.79,1.74c1.08,0,1.42-0.67,1.56-0.98h1.54
		c-0.08,0.95-0.98,2.52-3.08,2.52c-2.04,0-3.36-1.68-3.36-3.59C246.57,214.32,247.86,212.52,249.82,212.52z M248.24,215.12h3.21
		c-0.1-0.85-0.67-1.34-1.57-1.34C249.13,213.78,248.49,214.18,248.24,215.12z"/>
	<path d="M256.79,213.71c-0.81,0-1.09,0.36-1.09,0.73c0,1.18,4.15,0.31,4.15,3.03c0,1.32-0.95,2.34-2.89,2.34c-2.51,0-3-1.54-3-2.38
		h1.6c0.11,0.55,0.48,1.12,1.53,1.12c0.77,0,1.22-0.29,1.22-0.88c0-1.39-4.15-0.35-4.15-3.01c0-1.09,0.73-2.13,2.77-2.13
		c2.21,0,2.8,1.46,2.8,2.16h-1.6C258.16,214.04,257.63,213.71,256.79,213.71z"/>
	<path d="M264.1,212.52c2.44,0,3,2.13,3.19,3.08h-1.62c-0.14-0.87-0.57-1.54-1.62-1.54c-0.91,0-1.68,0.7-1.68,2.1
		c0,1.48,0.85,2.1,1.79,2.1c1.06,0,1.4-0.76,1.65-1.4h1.46c0,1.18-1.04,2.94-3.25,2.94c-1.93,0-3.19-1.68-3.19-3.59
		C260.82,214.04,262.19,212.52,264.1,212.52z"/>
	<path d="M270.45,210.13v2.52h0.98v1.54h-0.98v3.61c0,0.42,0.28,0.53,0.56,0.53c0.25,0,0.42-0.06,0.52-0.11v1.4
		c-0.13,0.04-0.46,0.17-1.11,0.17c-1.06,0-1.51-0.64-1.51-1.32v-4.29h-0.84v-1.54h0.84v-2.52H270.45z"/>
	<path d="M276.01,214.03c-1.02,0-1.62,0.42-1.62,2.12v3.52h-1.6v-7h1.54v0.79c0.39-0.48,0.87-0.93,1.77-0.93
		c0.42,0,0.81,0.08,1.12,0.22l-0.08,1.54C276.81,214.14,276.54,214.03,276.01,214.03z"/>
	<path d="M279.64,212.66v4.62c0,0.84,0.55,1.26,1.23,1.26c1.13,0,1.39-1.12,1.39-1.96v-3.92h1.6v7h-1.54v-0.56
		c-0.25,0.2-0.88,0.7-2,0.7c-1.22,0-2.27-0.79-2.27-2.33v-4.82H279.64z"/>
	<path d="M288.53,212.52c2.44,0,3,2.13,3.19,3.08h-1.62c-0.14-0.87-0.57-1.54-1.62-1.54c-0.91,0-1.68,0.7-1.68,2.1
		c0,1.48,0.85,2.1,1.79,2.1c1.06,0,1.4-0.76,1.65-1.4h1.46c0,1.18-1.04,2.94-3.25,2.94c-1.93,0-3.19-1.68-3.19-3.59
		C285.25,214.04,286.62,212.52,288.53,212.52z"/>
	<path d="M294.88,210.13v2.52h0.98v1.54h-0.98v3.61c0,0.42,0.28,0.53,0.56,0.53c0.25,0,0.42-0.06,0.52-0.11v1.4
		c-0.13,0.04-0.46,0.17-1.11,0.17c-1.06,0-1.51-0.64-1.51-1.32v-4.29h-0.84v-1.54h0.84v-2.52H294.88z"/>
	<path d="M298.76,212.66v4.62c0,0.84,0.55,1.26,1.23,1.26c1.13,0,1.39-1.12,1.39-1.96v-3.92h1.6v7h-1.54v-0.56
		c-0.25,0.2-0.88,0.7-2,0.7c-1.22,0-2.27-0.79-2.27-2.33v-4.82H298.76z"/>
	<path d="M307.88,214.03c-1.02,0-1.62,0.42-1.62,2.12v3.52h-1.6v-7h1.54v0.79c0.39-0.48,0.87-0.93,1.76-0.93
		c0.42,0,0.81,0.08,1.12,0.22l-0.08,1.54C308.67,214.14,308.41,214.03,307.88,214.03z"/>
	<path d="M316.45,218.2c0.18,0,0.36-0.03,0.63-0.08v1.54c-0.49,0.07-0.74,0.08-0.99,0.08c-0.85,0-1.26-0.18-1.58-0.73
		c-0.25,0.2-0.95,0.79-2.19,0.79c-1.57,0-2.75-1.09-2.75-2.33c0-1.6,1.34-2.24,3.28-2.24h1.34v-0.34c0-0.76-0.59-1.26-1.43-1.26
		c-0.87,0-1.32,0.43-1.32,1.26h-1.71c0-1.51,1.34-2.38,3.07-2.38c1.58,0,2.93,0.71,2.93,2.23v2.86
		C315.73,218.02,316.01,218.2,316.45,218.2z M312.54,218.68c1.15,0,1.65-0.98,1.65-1.54v-0.7c-2.44-0.11-2.89,0.45-2.89,1.2
		C311.31,218.2,311.78,218.68,312.54,218.68z"/>
	<path d="M320.18,213.71c-0.81,0-1.09,0.36-1.09,0.73c0,1.18,4.15,0.31,4.15,3.03c0,1.32-0.95,2.34-2.89,2.34c-2.51,0-3-1.54-3-2.38
		h1.6c0.11,0.55,0.48,1.12,1.53,1.12c0.77,0,1.22-0.29,1.22-0.88c0-1.39-4.15-0.35-4.15-3.01c0-1.09,0.73-2.13,2.77-2.13
		c2.21,0,2.8,1.46,2.8,2.16h-1.6C321.55,214.04,321.02,213.71,320.18,213.71z"/>
	<path d="M332.42,219.66v-0.62c-0.31,0.22-0.92,0.76-1.93,0.76c-2.04,0-3.19-1.79-3.19-3.59c0-2.02,1.09-3.7,3.14-3.7
		c1.01,0,1.6,0.42,1.93,0.64v-3.03h1.54v9.53H332.42z M330.65,218.26c1.05,0,1.77-0.7,1.77-2.1s-0.74-2.1-1.77-2.1
		c-1.02,0-1.82,0.62-1.82,2.1C328.83,217.56,329.6,218.26,330.65,218.26z"/>
	<path d="M338.48,212.52c1.96,0,3.18,1.4,3.28,4.01h-4.97c0.13,1.22,0.85,1.74,1.79,1.74c1.08,0,1.42-0.67,1.56-0.98h1.54
		c-0.08,0.95-0.98,2.52-3.08,2.52c-2.04,0-3.36-1.68-3.36-3.59C335.23,214.32,336.52,212.52,338.48,212.52z M336.9,215.12h3.21
		c-0.1-0.85-0.67-1.34-1.57-1.34C337.79,213.78,337.15,214.18,336.9,215.12z"/>
	<path d="M349.12,212.52c2.44,0,3,2.13,3.19,3.08h-1.62c-0.14-0.87-0.57-1.54-1.62-1.54c-0.91,0-1.68,0.7-1.68,2.1
		c0,1.48,0.85,2.1,1.79,2.1c1.06,0,1.4-0.76,1.65-1.4h1.46c0,1.18-1.04,2.94-3.25,2.94c-1.93,0-3.19-1.68-3.19-3.59
		C345.84,214.04,347.21,212.52,349.12,212.52z"/>
	<path d="M356.73,212.52c2.1,0,3.36,1.81,3.36,3.7c0,1.76-1.12,3.59-3.36,3.59s-3.36-1.82-3.36-3.59
		C353.37,214.32,354.63,212.52,356.73,212.52z M356.73,214.06c-1.11,0-1.82,0.84-1.82,2.1c0,1.34,0.74,2.1,1.82,2.1
		c1.08,0,1.82-0.76,1.82-2.1C358.56,214.9,357.84,214.06,356.73,214.06z"/>
	<path d="M365.71,219.66v-4.62c0-0.66-0.5-1.05-1.22-1.05c-1.13,0-1.4,0.99-1.4,1.75v3.92h-1.6v-7h1.54v0.56
		c0.57-0.45,1.3-0.7,2.02-0.7c1.22,0,2.26,0.64,2.26,2.19v4.96H365.71z"/>
	<path d="M371.34,213.71c-0.81,0-1.09,0.36-1.09,0.73c0,1.18,4.15,0.31,4.15,3.03c0,1.32-0.95,2.34-2.89,2.34c-2.51,0-3-1.54-3-2.38
		h1.6c0.11,0.55,0.48,1.12,1.53,1.12c0.77,0,1.22-0.29,1.22-0.88c0-1.39-4.15-0.35-4.15-3.01c0-1.09,0.73-2.13,2.77-2.13
		c2.21,0,2.8,1.46,2.8,2.16h-1.6C372.71,214.04,372.18,213.71,371.34,213.71z"/>
	<path d="M377.47,210.13v2.52h0.98v1.54h-0.98v3.61c0,0.42,0.28,0.53,0.56,0.53c0.25,0,0.42-0.06,0.52-0.11v1.4
		c-0.13,0.04-0.46,0.17-1.11,0.17c-1.06,0-1.51-0.64-1.51-1.32v-4.29h-0.84v-1.54h0.84v-2.52H377.47z"/>
	<path d="M383.03,214.03c-1.02,0-1.62,0.42-1.62,2.12v3.52h-1.6v-7h1.54v0.79c0.39-0.48,0.87-0.93,1.77-0.93
		c0.42,0,0.81,0.08,1.12,0.22l-0.08,1.54C383.82,214.14,383.56,214.03,383.03,214.03z"/>
	<path d="M386.65,212.66v4.62c0,0.84,0.55,1.26,1.23,1.26c1.13,0,1.39-1.12,1.39-1.96v-3.92h1.6v7h-1.54v-0.56
		c-0.25,0.2-0.88,0.7-2,0.7c-1.22,0-2.27-0.79-2.27-2.33v-4.82H386.65z"/>
	<path d="M395.54,212.52c2.44,0,3,2.13,3.19,3.08h-1.62c-0.14-0.87-0.57-1.54-1.62-1.54c-0.91,0-1.68,0.7-1.68,2.1
		c0,1.48,0.85,2.1,1.79,2.1c1.06,0,1.4-0.76,1.65-1.4h1.46c0,1.18-1.04,2.94-3.25,2.94c-1.93,0-3.19-1.68-3.19-3.59
		C392.26,214.04,393.64,212.52,395.54,212.52z"/>
	<path d="M403.07,212.52c2.44,0,3,2.13,3.19,3.08h-1.62c-0.14-0.87-0.57-1.54-1.62-1.54c-0.91,0-1.68,0.7-1.68,2.1
		c0,1.48,0.85,2.1,1.79,2.1c1.06,0,1.4-0.76,1.65-1.4h1.46c0,1.18-1.04,2.94-3.25,2.94c-1.93,0-3.19-1.68-3.19-3.59
		C399.8,214.04,401.17,212.52,403.07,212.52z"/>
	<path d="M409.21,210v1.68h-1.6V210H409.21z M409.21,212.66v7h-1.6v-7H409.21z"/>
	<path d="M413.97,212.52c2.1,0,3.36,1.81,3.36,3.7c0,1.76-1.12,3.59-3.36,3.59s-3.36-1.82-3.36-3.59
		C410.6,214.32,411.86,212.52,413.97,212.52z M413.97,214.06c-1.11,0-1.82,0.84-1.82,2.1c0,1.34,0.74,2.1,1.82,2.1
		c1.08,0,1.82-0.76,1.82-2.1C415.79,214.9,415.07,214.06,413.97,214.06z M416.07,210l-1.6,1.96h-1.4l0.42-1.96H416.07z"/>
	<path d="M422.94,219.66v-4.62c0-0.66-0.5-1.05-1.22-1.05c-1.13,0-1.4,0.99-1.4,1.75v3.92h-1.6v-7h1.54v0.56
		c0.57-0.45,1.3-0.7,2.02-0.7c1.22,0,2.26,0.64,2.26,2.19v4.96H422.94z"/>
	<path d="M251.08,231.66v-4.62c0-0.78-0.53-1.2-1.22-1.2c-1.13,0-1.4,1.2-1.4,2.04v3.78h-1.54v-9.53h1.48v3.08
		c0.25-0.25,0.9-0.7,2.02-0.7c1.22,0,2.26,0.64,2.26,2.19v4.96H251.08z"/>
	<path d="M255.84,224.66v4.62c0,0.84,0.55,1.26,1.23,1.26c1.13,0,1.39-1.12,1.39-1.96v-3.92h1.6v7h-1.54v-0.56
		c-0.25,0.2-0.88,0.7-2,0.7c-1.22,0-2.27-0.79-2.27-2.33v-4.82H255.84z"/>
	<path d="M265.84,231.66v-4.62c0-0.66-0.48-1.05-1.16-1.05c-1.13,0-1.34,1.13-1.34,1.89v3.78h-1.6v-7h1.54v0.56
		c0.25-0.2,0.84-0.7,1.96-0.7c0.81,0,1.51,0.28,1.89,0.93c0.31-0.31,0.99-0.93,2.21-0.93c1.22,0,2.2,0.64,2.2,2.19v4.96h-1.6v-4.62
		c0-0.66-0.48-1.05-1.16-1.05c-1.13,0-1.34,1.13-1.34,1.89v3.78H265.84z"/>
	<path d="M279.64,230.2c0.18,0,0.36-0.03,0.63-0.08v1.54c-0.49,0.07-0.74,0.08-0.99,0.08c-0.85,0-1.26-0.18-1.58-0.73
		c-0.25,0.2-0.95,0.79-2.19,0.79c-1.57,0-2.75-1.09-2.75-2.33c0-1.6,1.34-2.24,3.28-2.24h1.34v-0.34c0-0.76-0.59-1.26-1.43-1.26
		c-0.87,0-1.32,0.43-1.32,1.26h-1.71c0-1.51,1.34-2.38,3.07-2.38c1.58,0,2.93,0.71,2.93,2.23v2.86
		C278.93,230.02,279.21,230.2,279.64,230.2z M275.73,230.68c1.15,0,1.65-0.98,1.65-1.54v-0.7c-2.44-0.11-2.89,0.45-2.89,1.2
		C274.5,230.2,274.98,230.68,275.73,230.68z"/>
	<path d="M285.18,231.66v-4.62c0-0.66-0.5-1.05-1.22-1.05c-1.13,0-1.4,0.99-1.4,1.75v3.92h-1.6v-7h1.54v0.56
		c0.57-0.45,1.3-0.7,2.02-0.7c1.22,0,2.26,0.64,2.26,2.19v4.96H285.18z"/>
	<path d="M294.89,230.2c0.18,0,0.36-0.03,0.63-0.08v1.54c-0.49,0.07-0.74,0.08-0.99,0.08c-0.85,0-1.26-0.18-1.58-0.73
		c-0.25,0.2-0.95,0.79-2.19,0.79c-1.57,0-2.75-1.09-2.75-2.33c0-1.6,1.34-2.24,3.28-2.24h1.34v-0.34c0-0.76-0.59-1.26-1.43-1.26
		c-0.87,0-1.32,0.43-1.32,1.26h-1.71c0-1.51,1.34-2.38,3.07-2.38c1.58,0,2.93,0.71,2.93,2.23v2.86
		C294.17,230.02,294.45,230.2,294.89,230.2z M290.98,230.68c1.15,0,1.65-0.98,1.65-1.54v-0.7c-2.44-0.11-2.89,0.45-2.89,1.2
		C289.75,230.2,290.22,230.68,290.98,230.68z"/>
	<path d="M299.97,221.42h1.33l-4.33,11.81h-1.33L299.97,221.42z"/>
	<path d="M308.89,231.66v-4.62c0-0.66-0.48-1.05-1.16-1.05c-1.13,0-1.34,1.13-1.34,1.89v3.78h-1.6v-7h1.54v0.56
		c0.25-0.2,0.84-0.7,1.96-0.7c0.81,0,1.51,0.28,1.89,0.93c0.31-0.31,0.99-0.93,2.21-0.93c1.22,0,2.2,0.64,2.2,2.19v4.96h-1.6v-4.62
		c0-0.66-0.48-1.05-1.16-1.05c-1.13,0-1.34,1.13-1.34,1.89v3.78H308.89z"/>
	<path d="M319.1,224.52c1.96,0,3.18,1.4,3.28,4.01h-4.97c0.13,1.22,0.85,1.74,1.79,1.74c1.08,0,1.42-0.67,1.56-0.98h1.54
		c-0.08,0.95-0.98,2.52-3.08,2.52c-2.04,0-3.36-1.68-3.36-3.59C315.85,226.32,317.14,224.52,319.1,224.52z M317.52,227.12h3.21
		c-0.1-0.85-0.67-1.34-1.57-1.34C318.42,225.78,317.77,226.18,317.52,227.12z"/>
	<path d="M325.49,222.13v2.52h0.98v1.54h-0.98v3.61c0,0.42,0.28,0.53,0.56,0.53c0.25,0,0.42-0.06,0.52-0.11v1.4
		c-0.13,0.04-0.46,0.17-1.11,0.17c-1.06,0-1.51-0.64-1.51-1.32v-4.29h-0.84v-1.54h0.84v-2.52H325.49z"/>
	<path d="M334.31,230.2c0.18,0,0.36-0.03,0.63-0.08v1.54c-0.49,0.07-0.74,0.08-0.99,0.08c-0.85,0-1.26-0.18-1.58-0.73
		c-0.25,0.2-0.95,0.79-2.19,0.79c-1.57,0-2.75-1.09-2.75-2.33c0-1.6,1.34-2.24,3.28-2.24h1.34v-0.34c0-0.76-0.59-1.26-1.43-1.26
		c-0.87,0-1.32,0.43-1.32,1.26h-1.71c0-1.51,1.34-2.38,3.07-2.38c1.58,0,2.93,0.71,2.93,2.23v2.86
		C333.6,230.02,333.88,230.2,334.31,230.2z M330.4,230.68c1.15,0,1.65-0.98,1.65-1.54v-0.7c-2.44-0.11-2.89,0.45-2.89,1.2
		C329.17,230.2,329.65,230.68,330.4,230.68z"/>
	<path d="M337.23,222.13v9.53h-1.6v-9.53H337.23z"/>
	<path d="M343.59,231.94c0-0.14-0.04-0.31-0.11-0.5l-2.33-6.78h1.68l1.61,5.15l1.67-5.15h1.68l-2.94,8.1
		c-0.32,0.88-1.26,1.57-2.3,1.57c-0.62,0-1.01-0.03-1.4-0.08v-1.48c0.34,0.06,1.01,0.08,1.54,0.08
		C343.11,232.84,343.59,232.44,343.59,231.94z"/>
	<path d="M354.64,224.52c2.44,0,3,2.13,3.19,3.08h-1.62c-0.14-0.87-0.57-1.54-1.62-1.54c-0.91,0-1.68,0.7-1.68,2.1
		c0,1.48,0.85,2.1,1.79,2.1c1.06,0,1.4-0.76,1.65-1.4h1.46c0,1.18-1.04,2.94-3.25,2.94c-1.93,0-3.19-1.68-3.19-3.59
		C351.36,226.04,352.73,224.52,354.64,224.52z"/>
	<path d="M362.25,224.52c2.1,0,3.36,1.81,3.36,3.7c0,1.76-1.12,3.59-3.36,3.59s-3.36-1.82-3.36-3.59
		C358.89,226.32,360.15,224.52,362.25,224.52z M362.25,226.06c-1.11,0-1.82,0.84-1.82,2.1c0,1.34,0.74,2.1,1.82,2.1
		c1.08,0,1.82-0.76,1.82-2.1C364.07,226.9,363.36,226.06,362.25,226.06z"/>
	<path d="M371.23,231.66v-4.62c0-0.66-0.5-1.05-1.22-1.05c-1.13,0-1.4,0.99-1.4,1.75v3.92h-1.6v-7h1.54v0.56
		c0.57-0.45,1.3-0.7,2.02-0.7c1.22,0,2.26,0.64,2.26,2.19v4.96H371.23z"/>
	<path d="M377.44,224.52c2.44,0,3,2.13,3.19,3.08h-1.62c-0.14-0.87-0.57-1.54-1.62-1.54c-0.91,0-1.68,0.7-1.68,2.1
		c0,1.48,0.85,2.1,1.79,2.1c1.06,0,1.4-0.76,1.65-1.4h1.46c0,1.18-1.04,2.94-3.25,2.94c-1.93,0-3.19-1.68-3.19-3.59
		C374.16,226.04,375.54,224.52,377.44,224.52z"/>
	<path d="M385.2,226.03c-1.02,0-1.62,0.42-1.62,2.12v3.52h-1.6v-7h1.54v0.79c0.39-0.48,0.87-0.93,1.77-0.93
		c0.42,0,0.81,0.08,1.12,0.22l-0.08,1.54C386,226.14,385.73,226.03,385.2,226.03z"/>
	<path d="M389.9,224.52c1.96,0,3.18,1.4,3.28,4.01h-4.97c0.13,1.22,0.85,1.74,1.79,1.74c1.08,0,1.42-0.67,1.56-0.98h1.54
		c-0.08,0.95-0.98,2.52-3.08,2.52c-2.04,0-3.36-1.68-3.36-3.59C386.65,226.32,387.94,224.52,389.9,224.52z M388.32,227.12h3.21
		c-0.1-0.85-0.67-1.34-1.57-1.34C389.21,225.78,388.57,226.18,388.32,227.12z"/>
	<path d="M396.28,222.13v2.52h0.98v1.54h-0.98v3.61c0,0.42,0.28,0.53,0.56,0.53c0.25,0,0.42-0.06,0.52-0.11v1.4
		c-0.13,0.04-0.46,0.17-1.11,0.17c-1.06,0-1.51-0.64-1.51-1.32v-4.29h-0.84v-1.54h0.84v-2.52H396.28z"/>
	<path d="M401.7,224.52c2.1,0,3.36,1.81,3.36,3.7c0,1.76-1.12,3.59-3.36,3.59s-3.36-1.82-3.36-3.59
		C398.34,226.32,399.6,224.52,401.7,224.52z M401.7,226.06c-1.11,0-1.82,0.84-1.82,2.1c0,1.34,0.74,2.1,1.82,2.1
		c1.08,0,1.82-0.76,1.82-2.1C403.52,226.9,402.81,226.06,401.7,226.06z"/>
	<path d="M407.93,229.7v1.96h-1.96v-1.96H407.93z"/>
	<path d="M416.58,231.66v-4.62c0-0.66-0.48-1.05-1.16-1.05c-1.13,0-1.34,1.13-1.34,1.89v3.78h-1.6v-7h1.54v0.56
		c0.25-0.2,0.84-0.7,1.96-0.7c0.81,0,1.51,0.28,1.89,0.93c0.31-0.31,1-0.93,2.21-0.93c1.22,0,2.2,0.64,2.2,2.19v4.96h-1.6v-4.62
		c0-0.66-0.48-1.05-1.16-1.05c-1.13,0-1.34,1.13-1.34,1.89v3.78H416.58z"/>
	<path d="M426.99,224.52c2.1,0,3.36,1.81,3.36,3.7c0,1.76-1.12,3.59-3.36,3.59s-3.36-1.82-3.36-3.59
		C423.62,226.32,424.88,224.52,426.99,224.52z M426.99,226.06c-1.11,0-1.82,0.84-1.82,2.1c0,1.34,0.74,2.1,1.82,2.1
		s1.82-0.76,1.82-2.1C428.81,226.9,428.09,226.06,426.99,226.06z"/>
	<path d="M436.59,231.66v-0.62c-0.31,0.22-0.92,0.76-1.93,0.76c-2.04,0-3.19-1.79-3.19-3.59c0-2.02,1.09-3.7,3.14-3.7
		c1.01,0,1.6,0.42,1.93,0.64v-3.03h1.54v9.53H436.59z M434.83,230.26c1.05,0,1.76-0.7,1.76-2.1s-0.74-2.1-1.76-2.1
		c-1.02,0-1.82,0.62-1.82,2.1C433,229.56,433.78,230.26,434.83,230.26z"/>
	<path d="M441.29,224.66v4.62c0,0.84,0.55,1.26,1.23,1.26c1.13,0,1.39-1.12,1.39-1.96v-3.92h1.6v7h-1.54v-0.56
		c-0.25,0.2-0.88,0.7-2,0.7c-1.22,0-2.27-0.79-2.27-2.33v-4.82H441.29z"/>
	<path d="M448.78,222.13v9.53h-1.6v-9.53H448.78z"/>
	<path d="M456.95,230.2c0.18,0,0.36-0.03,0.63-0.08v1.54c-0.49,0.07-0.74,0.08-0.99,0.08c-0.86,0-1.26-0.18-1.58-0.73
		c-0.25,0.2-0.95,0.79-2.18,0.79c-1.57,0-2.75-1.09-2.75-2.33c0-1.6,1.34-2.24,3.28-2.24h1.34v-0.34c0-0.76-0.59-1.26-1.43-1.26
		c-0.87,0-1.32,0.43-1.32,1.26h-1.71c0-1.51,1.34-2.38,3.07-2.38c1.58,0,2.93,0.71,2.93,2.23v2.86
		C456.23,230.02,456.51,230.2,456.95,230.2z M453.04,230.68c1.15,0,1.65-0.98,1.65-1.54v-0.7c-2.44-0.11-2.89,0.45-2.89,1.2
		C451.81,230.2,452.28,230.68,453.04,230.68z"/>
	<path d="M461.27,224.52c2.44,0,3,2.13,3.19,3.08h-1.62c-0.14-0.87-0.57-1.54-1.62-1.54c-0.91,0-1.68,0.7-1.68,2.1
		c0,1.48,0.85,2.1,1.79,2.1c1.06,0,1.4-0.76,1.65-1.4h1.46c0,1.18-1.04,2.94-3.25,2.94c-1.93,0-3.19-1.68-3.19-3.59
		C457.99,226.04,459.37,224.52,461.27,224.52z"/>
	<path d="M467.4,222v1.68h-1.6V222H467.4z M467.4,224.66v7h-1.6v-7H467.4z"/>
	<path d="M472.16,224.52c2.1,0,3.36,1.81,3.36,3.7c0,1.76-1.12,3.59-3.36,3.59s-3.36-1.82-3.36-3.59
		C468.8,226.32,470.06,224.52,472.16,224.52z M472.16,226.06c-1.11,0-1.82,0.84-1.82,2.1c0,1.34,0.74,2.1,1.82,2.1
		c1.08,0,1.82-0.76,1.82-2.1C473.98,226.9,473.27,226.06,472.16,226.06z M474.26,222l-1.6,1.96h-1.4l0.42-1.96H474.26z"/>
	<path d="M481.14,231.66v-4.62c0-0.66-0.5-1.05-1.22-1.05c-1.13,0-1.4,0.99-1.4,1.75v3.92h-1.6v-7h1.54v0.56
		c0.57-0.45,1.3-0.7,2.02-0.7c1.22,0,2.25,0.64,2.25,2.19v4.96H481.14z"/>
	<path d="M493.92,230.2c0.18,0,0.36-0.03,0.63-0.08v1.54c-0.49,0.07-0.74,0.08-0.99,0.08c-0.85,0-1.26-0.18-1.58-0.73
		c-0.25,0.2-0.95,0.79-2.18,0.79c-1.57,0-2.75-1.09-2.75-2.33c0-1.6,1.34-2.24,3.28-2.24h1.35v-0.34c0-0.76-0.59-1.26-1.43-1.26
		c-0.87,0-1.32,0.43-1.32,1.26h-1.71c0-1.51,1.34-2.38,3.07-2.38c1.58,0,2.93,0.71,2.93,2.23v2.86
		C493.21,230.02,493.49,230.2,493.92,230.2z M490.01,230.68c1.15,0,1.65-0.98,1.65-1.54v-0.7c-2.44-0.11-2.89,0.45-2.89,1.2
		C488.78,230.2,489.26,230.68,490.01,230.68z"/>
	<path d="M248.74,234.13v2.52h0.98v1.54h-0.98v3.61c0,0.42,0.28,0.53,0.56,0.53c0.25,0,0.42-0.06,0.52-0.11v1.4
		c-0.13,0.04-0.46,0.17-1.11,0.17c-1.06,0-1.51-0.64-1.51-1.32v-4.29h-0.84v-1.54h0.84v-2.52H248.74z"/>
	<path d="M254.3,238.03c-1.02,0-1.62,0.42-1.62,2.12v3.52h-1.6v-7h1.54v0.79c0.39-0.48,0.87-0.93,1.77-0.93
		c0.42,0,0.81,0.08,1.12,0.22l-0.08,1.54C255.1,238.14,254.83,238.03,254.3,238.03z"/>
	<path d="M262.87,242.2c0.18,0,0.36-0.03,0.63-0.08v1.54c-0.49,0.07-0.74,0.08-0.99,0.08c-0.85,0-1.26-0.18-1.58-0.73
		c-0.25,0.2-0.95,0.79-2.19,0.79c-1.57,0-2.75-1.09-2.75-2.33c0-1.6,1.34-2.24,3.28-2.24h1.34v-0.34c0-0.76-0.59-1.26-1.43-1.26
		c-0.87,0-1.32,0.43-1.32,1.26h-1.71c0-1.51,1.34-2.38,3.07-2.38c1.58,0,2.93,0.71,2.93,2.23v2.86
		C262.16,242.02,262.44,242.2,262.87,242.2z M258.96,242.68c1.15,0,1.65-0.98,1.65-1.54v-0.7c-2.44-0.11-2.89,0.45-2.89,1.2
		C257.73,242.2,258.21,242.68,258.96,242.68z"/>
	<path d="M264.59,236.66l1.67,4.55l1.67-4.55h1.65l-2.61,7h-1.43l-2.61-7H264.59z"/>
	<path d="M273.1,236.52c1.96,0,3.18,1.4,3.28,4.01h-4.97c0.13,1.22,0.85,1.74,1.79,1.74c1.08,0,1.42-0.67,1.56-0.98h1.54
		c-0.08,0.95-0.98,2.52-3.08,2.52c-2.04,0-3.36-1.68-3.36-3.59C269.85,238.32,271.14,236.52,273.1,236.52z M271.52,239.12h3.21
		c-0.1-0.85-0.67-1.34-1.57-1.34C272.42,237.78,271.77,238.18,271.52,239.12z M275.2,234l-1.6,1.96h-1.4l0.42-1.96H275.2z"/>
	<path d="M280.07,237.71c-0.81,0-1.09,0.36-1.09,0.73c0,1.18,4.15,0.31,4.15,3.03c0,1.32-0.95,2.34-2.89,2.34c-2.51,0-3-1.54-3-2.38
		h1.6c0.11,0.55,0.48,1.12,1.53,1.12c0.77,0,1.22-0.29,1.22-0.88c0-1.39-4.15-0.35-4.15-3.01c0-1.09,0.73-2.13,2.77-2.13
		c2.21,0,2.8,1.46,2.8,2.16h-1.6C281.45,238.04,280.91,237.71,280.07,237.71z"/>
	<path d="M292.31,243.66v-0.62c-0.31,0.22-0.92,0.76-1.93,0.76c-2.04,0-3.19-1.79-3.19-3.59c0-2.02,1.09-3.7,3.14-3.7
		c1.01,0,1.6,0.42,1.93,0.64v-3.03h1.54v9.53H292.31z M290.54,242.26c1.05,0,1.76-0.7,1.76-2.1s-0.74-2.1-1.76-2.1
		c-1.02,0-1.82,0.62-1.82,2.1C288.72,241.56,289.49,242.26,290.54,242.26z"/>
	<path d="M298.37,236.52c1.96,0,3.18,1.4,3.28,4.01h-4.97c0.13,1.22,0.85,1.74,1.79,1.74c1.08,0,1.42-0.67,1.56-0.98h1.54
		c-0.08,0.95-0.98,2.52-3.08,2.52c-2.04,0-3.36-1.68-3.36-3.59C295.12,238.32,296.41,236.52,298.37,236.52z M296.79,239.12H300
		c-0.1-0.85-0.67-1.34-1.57-1.34C297.68,237.78,297.04,238.18,296.79,239.12z"/>
	<path d="M304.53,234.13v9.53h-1.6v-9.53H304.53z"/>
	<path d="M311.11,234.13v2.52h0.98v1.54h-0.98v3.61c0,0.42,0.28,0.53,0.56,0.53c0.25,0,0.42-0.06,0.52-0.11v1.4
		c-0.13,0.04-0.46,0.17-1.11,0.17c-1.06,0-1.51-0.64-1.51-1.32v-4.29h-0.84v-1.54h0.84v-2.52H311.11z"/>
	<path d="M315.04,234v1.68h-1.6V234H315.04z M315.04,236.66v7h-1.6v-7H315.04z"/>
	<path d="M319.62,236.52c1.96,0,3.18,1.4,3.28,4.01h-4.97c0.13,1.22,0.85,1.74,1.79,1.74c1.08,0,1.42-0.67,1.56-0.98h1.54
		c-0.08,0.95-0.98,2.52-3.08,2.52c-2.04,0-3.36-1.68-3.36-3.59C316.37,238.32,317.66,236.52,319.62,236.52z M318.04,239.12h3.21
		c-0.1-0.85-0.67-1.34-1.57-1.34C318.94,237.78,318.29,238.18,318.04,239.12z"/>
	<path d="M328.29,243.66v-4.62c0-0.66-0.48-1.05-1.16-1.05c-1.13,0-1.34,1.13-1.34,1.89v3.78h-1.6v-7h1.54v0.56
		c0.25-0.2,0.84-0.7,1.96-0.7c0.81,0,1.51,0.28,1.89,0.93c0.31-0.31,0.99-0.93,2.21-0.93c1.22,0,2.2,0.64,2.2,2.19v4.96h-1.6v-4.62
		c0-0.66-0.48-1.05-1.16-1.05c-1.13,0-1.34,1.13-1.34,1.89v3.78H328.29z"/>
	<path d="M337.09,236.66v0.62c0.31-0.22,0.92-0.76,1.93-0.76c2.04,0,3.19,1.79,3.19,3.59c0,2.02-1.09,3.7-3.14,3.7
		c-1.01,0-1.6-0.42-1.93-0.64v3.03h-1.54v-9.53H337.09z M338.86,238.06c-1.05,0-1.77,0.7-1.77,2.1s0.74,2.1,1.77,2.1
		s1.82-0.62,1.82-2.1C340.68,238.76,339.91,238.06,338.86,238.06z"/>
	<path d="M346.7,236.52c2.1,0,3.36,1.81,3.36,3.7c0,1.76-1.12,3.59-3.36,3.59s-3.36-1.82-3.36-3.59
		C343.33,238.32,344.6,236.52,346.7,236.52z M346.7,238.06c-1.11,0-1.82,0.84-1.82,2.1c0,1.34,0.74,2.1,1.82,2.1
		c1.08,0,1.82-0.76,1.82-2.1C348.52,238.9,347.8,238.06,346.7,238.06z"/>
</g>
<g>
	<path d="M567.92,98.13h1.54v3.03c0.34-0.22,0.92-0.64,1.93-0.64c2.04,0,3.14,1.68,3.14,3.7c0,1.79-1.15,3.59-3.19,3.59
		c-1.01,0-1.62-0.53-1.93-0.76v0.62h-1.48V98.13z M571.17,102.06c-1.02,0-1.77,0.7-1.77,2.1s0.71,2.1,1.77,2.1
		c1.05,0,1.82-0.7,1.82-2.1C572.99,102.67,572.19,102.06,571.17,102.06z"/>
	<path d="M577.85,104.16c0.01,2-0.48,3.6-1.57,5.81h-1.4c1.02-2.1,1.55-4.01,1.55-5.83c0-1.82-0.66-4.22-1.55-5.8h1.4
		C577.22,100,577.83,102.16,577.85,104.16z"/>
	<path d="M584.01,100.66v0.62c0.31-0.22,0.92-0.76,1.93-0.76c2.04,0,3.19,1.79,3.19,3.59c0,2.02-1.09,3.7-3.14,3.7
		c-1.01,0-1.6-0.42-1.93-0.64v3.03h-1.54v-9.53H584.01z M585.77,102.06c-1.05,0-1.76,0.7-1.76,2.1s0.74,2.1,1.76,2.1
		s1.82-0.62,1.82-2.1C587.59,102.76,586.82,102.06,585.77,102.06z"/>
	<path d="M597.01,106.2c0.18,0,0.36-0.03,0.63-0.08v1.54c-0.49,0.07-0.74,0.08-0.99,0.08c-0.86,0-1.26-0.18-1.58-0.73
		c-0.25,0.2-0.95,0.78-2.18,0.78c-1.57,0-2.75-1.09-2.75-2.33c0-1.6,1.34-2.24,3.28-2.24h1.34v-0.34c0-0.76-0.59-1.26-1.43-1.26
		c-0.87,0-1.32,0.43-1.32,1.26h-1.71c0-1.51,1.34-2.38,3.07-2.38c1.58,0,2.93,0.71,2.93,2.23v2.86
		C596.3,106.02,596.58,106.2,597.01,106.2z M593.11,106.68c1.15,0,1.65-0.98,1.65-1.54v-0.7c-2.44-0.11-2.89,0.45-2.89,1.2
		C591.87,106.2,592.35,106.68,593.11,106.68z"/>
	<path d="M599.94,98v1.68h-1.6V98H599.94z M599.94,100.66v7h-1.6v-7H599.94z"/>
	<path d="M604.03,101.71c-0.81,0-1.09,0.36-1.09,0.73c0,1.18,4.15,0.31,4.15,3.03c0,1.32-0.95,2.34-2.89,2.34c-2.51,0-3-1.54-3-2.38
		h1.6c0.11,0.55,0.48,1.12,1.53,1.12c0.77,0,1.22-0.29,1.22-0.88c0-1.39-4.15-0.35-4.15-3.01c0-1.09,0.73-2.13,2.77-2.13
		c2.21,0,2.8,1.46,2.8,2.16h-1.6C605.4,102.04,604.87,101.71,604.03,101.71z"/>
	<path d="M614.82,106.2c0.18,0,0.36-0.03,0.63-0.08v1.54c-0.49,0.07-0.74,0.08-1,0.08c-0.85,0-1.26-0.18-1.58-0.73
		c-0.25,0.2-0.95,0.78-2.19,0.78c-1.57,0-2.75-1.09-2.75-2.33c0-1.6,1.35-2.24,3.28-2.24h1.34v-0.34c0-0.76-0.59-1.26-1.43-1.26
		c-0.87,0-1.32,0.43-1.32,1.26h-1.71c0-1.51,1.35-2.38,3.07-2.38c1.58,0,2.93,0.71,2.93,2.23v2.86
		C614.11,106.02,614.39,106.2,614.82,106.2z M610.91,106.68c1.15,0,1.65-0.98,1.65-1.54v-0.7c-2.44-0.11-2.89,0.45-2.89,1.2
		C609.68,106.2,610.16,106.68,610.91,106.68z"/>
	<path d="M617.69,108.81c0,0.67-0.45,1.51-1.51,1.51c-0.64,0-0.98-0.13-1.11-0.17v-1.4c0.1,0.06,0.27,0.11,0.52,0.11
		c0.28,0,0.56-0.11,0.56-0.53v-7.68h1.54V108.81z M617.69,98v1.68h-1.54V98H617.69z"/>
	<path d="M622.27,100.52c1.96,0,3.18,1.4,3.28,4.01h-4.97c0.13,1.22,0.85,1.74,1.79,1.74c1.08,0,1.42-0.67,1.55-0.98h1.54
		c-0.08,0.95-0.98,2.52-3.08,2.52c-2.04,0-3.36-1.68-3.36-3.59C619.02,102.32,620.31,100.52,622.27,100.52z M620.68,103.12h3.21
		c-0.1-0.85-0.67-1.34-1.57-1.34C621.58,101.78,620.94,102.18,620.68,103.12z"/>
	<path d="M629.74,97.42h1.33l-4.33,11.81h-1.33L629.74,97.42z"/>
	<path d="M634.84,102.2H634v-1.54h0.84v-1.15c0-0.67,0.45-1.51,1.51-1.51c0.64,0,0.98,0.07,1.11,0.08v1.54
		c-0.1,0-0.27-0.03-0.52-0.03c-0.28,0-0.56,0.11-0.56,0.53v0.53h0.98v1.54h-0.98v5.46h-1.54V102.2z"/>
	<path d="M641.38,100.52c2.1,0,3.36,1.81,3.36,3.7c0,1.77-1.12,3.59-3.36,3.59s-3.36-1.82-3.36-3.59
		C638.02,102.32,639.28,100.52,641.38,100.52z M641.38,102.06c-1.11,0-1.82,0.84-1.82,2.1c0,1.34,0.74,2.1,1.82,2.1
		s1.82-0.76,1.82-2.1C643.2,102.9,642.48,102.06,641.38,102.06z"/>
	<path d="M650.35,107.66v-4.62c0-0.66-0.5-1.05-1.22-1.05c-1.13,0-1.4,0.99-1.4,1.75v3.92h-1.6v-7h1.54v0.56
		c0.57-0.45,1.3-0.7,2.02-0.7c1.22,0,2.26,0.64,2.26,2.19v4.96H650.35z"/>
	<path d="M658.42,107.66v-0.62c-0.31,0.22-0.92,0.76-1.93,0.76c-2.04,0-3.19-1.79-3.19-3.59c0-2.02,1.09-3.7,3.14-3.7
		c1.01,0,1.6,0.42,1.93,0.64v-3.03h1.54v9.53H658.42z M656.65,106.26c1.05,0,1.76-0.7,1.76-2.1s-0.74-2.1-1.76-2.1
		s-1.82,0.62-1.82,2.1C654.83,105.56,655.6,106.26,656.65,106.26z"/>
	<path d="M664.66,100.52c2.1,0,3.36,1.81,3.36,3.7c0,1.77-1.12,3.59-3.36,3.59s-3.36-1.82-3.36-3.59
		C661.3,102.32,662.56,100.52,664.66,100.52z M664.66,102.06c-1.11,0-1.82,0.84-1.82,2.1c0,1.34,0.74,2.1,1.82,2.1
		c1.08,0,1.82-0.76,1.82-2.1C666.48,102.9,665.77,102.06,664.66,102.06z"/>
	<path d="M678.83,110.18h-1.54v-3.03c-0.34,0.22-0.92,0.64-1.93,0.64c-2.05,0-3.14-1.68-3.14-3.7c0-1.79,1.15-3.59,3.19-3.59
		c1.01,0,1.62,0.53,1.93,0.76v-0.62h1.48V110.18z M675.58,106.26c1.02,0,1.77-0.7,1.77-2.1s-0.71-2.1-1.77-2.1s-1.82,0.7-1.82,2.1
		C673.76,105.64,674.56,106.26,675.58,106.26z"/>
	<path d="M682.04,100.66v4.62c0,0.84,0.55,1.26,1.23,1.26c1.13,0,1.39-1.12,1.39-1.96v-3.92h1.6v7h-1.54v-0.56
		c-0.25,0.2-0.88,0.7-2,0.7c-1.22,0-2.27-0.78-2.27-2.33v-4.82H682.04z"/>
	<path d="M690.84,100.52c1.96,0,3.18,1.4,3.28,4.01h-4.97c0.13,1.22,0.86,1.74,1.79,1.74c1.08,0,1.42-0.67,1.56-0.98h1.54
		c-0.08,0.95-0.98,2.52-3.08,2.52c-2.04,0-3.36-1.68-3.36-3.59C687.59,102.32,688.88,100.52,690.84,100.52z M689.26,103.12h3.21
		c-0.1-0.85-0.67-1.34-1.57-1.34C690.15,101.78,689.51,102.18,689.26,103.12z"/>
	<path d="M700.89,101.71c-0.81,0-1.09,0.36-1.09,0.73c0,1.18,4.15,0.31,4.15,3.03c0,1.32-0.95,2.34-2.89,2.34c-2.51,0-3-1.54-3-2.38
		h1.6c0.11,0.55,0.48,1.12,1.53,1.12c0.77,0,1.22-0.29,1.22-0.88c0-1.39-4.15-0.35-4.15-3.01c0-1.09,0.73-2.13,2.77-2.13
		c2.21,0,2.8,1.46,2.8,2.16h-1.6C702.26,102.04,701.73,101.71,700.89,101.71z"/>
	<path d="M708.28,100.52c2.1,0,3.36,1.81,3.36,3.7c0,1.77-1.12,3.59-3.36,3.59s-3.36-1.82-3.36-3.59
		C704.92,102.32,706.18,100.52,708.28,100.52z M708.28,102.06c-1.11,0-1.82,0.84-1.82,2.1c0,1.34,0.74,2.1,1.82,2.1
		s1.82-0.76,1.82-2.1C710.1,102.9,709.39,102.06,708.28,102.06z"/>
	<path d="M715.45,101.71c-0.81,0-1.09,0.36-1.09,0.73c0,1.18,4.15,0.31,4.15,3.03c0,1.32-0.95,2.34-2.88,2.34c-2.51,0-3-1.54-3-2.38
		h1.6c0.11,0.55,0.48,1.12,1.53,1.12c0.77,0,1.22-0.29,1.22-0.88c0-1.39-4.15-0.35-4.15-3.01c0-1.09,0.73-2.13,2.77-2.13
		c2.21,0,2.8,1.46,2.8,2.16h-1.6C716.82,102.04,716.29,101.71,715.45,101.71z"/>
	<path d="M721.58,98.13v2.52h0.98v1.54h-0.98v3.61c0,0.42,0.28,0.53,0.56,0.53c0.25,0,0.42-0.06,0.52-0.11v1.4
		c-0.13,0.04-0.46,0.17-1.11,0.17c-1.06,0-1.51-0.64-1.51-1.32v-4.29h-0.84v-1.54h0.84v-2.52H721.58z"/>
	<path d="M725.51,98v1.68h-1.6V98H725.51z M725.51,100.66v7h-1.6v-7H725.51z"/>
	<path d="M730.09,100.52c1.96,0,3.18,1.4,3.28,4.01h-4.97c0.13,1.22,0.85,1.74,1.79,1.74c1.08,0,1.41-0.67,1.55-0.98h1.54
		c-0.08,0.95-0.98,2.52-3.08,2.52c-2.04,0-3.36-1.68-3.36-3.59C726.84,102.32,728.13,100.52,730.09,100.52z M728.51,103.12h3.21
		c-0.1-0.85-0.67-1.34-1.57-1.34C729.41,101.78,728.76,102.18,728.51,103.12z"/>
	<path d="M738.87,107.66v-4.62c0-0.66-0.5-1.05-1.22-1.05c-1.13,0-1.4,0.99-1.4,1.75v3.92h-1.6v-7h1.54v0.56
		c0.57-0.45,1.3-0.7,2.02-0.7c1.22,0,2.26,0.64,2.26,2.19v4.96H738.87z"/>
	<path d="M744.99,100.52c1.96,0,3.18,1.4,3.28,4.01h-4.97c0.13,1.22,0.85,1.74,1.79,1.74c1.08,0,1.42-0.67,1.56-0.98h1.54
		c-0.08,0.95-0.98,2.52-3.08,2.52c-2.04,0-3.36-1.68-3.36-3.59C741.74,102.32,743.03,100.52,744.99,100.52z M743.41,103.12h3.21
		c-0.1-0.85-0.67-1.34-1.57-1.34C744.3,101.78,743.66,102.18,743.41,103.12z"/>
	<path d="M754.23,98.13v9.53h-1.6v-9.53H754.23z"/>
	<path d="M762.39,106.2c0.18,0,0.36-0.03,0.63-0.08v1.54c-0.49,0.07-0.74,0.08-0.99,0.08c-0.85,0-1.26-0.18-1.58-0.73
		c-0.25,0.2-0.95,0.78-2.19,0.78c-1.57,0-2.75-1.09-2.75-2.33c0-1.6,1.34-2.24,3.28-2.24h1.34v-0.34c0-0.76-0.59-1.26-1.43-1.26
		c-0.87,0-1.32,0.43-1.32,1.26h-1.71c0-1.51,1.34-2.38,3.07-2.38c1.58,0,2.93,0.71,2.93,2.23v2.86
		C761.68,106.02,761.96,106.2,762.39,106.2z M758.48,106.68c1.15,0,1.65-0.98,1.65-1.54v-0.7c-2.44-0.11-2.88,0.45-2.88,1.2
		C757.25,106.2,757.73,106.68,758.48,106.68z"/>
	<path d="M568.2,114.2h-0.84v-1.54h0.84v-1.15c0-0.67,0.45-1.51,1.51-1.51c0.64,0,0.98,0.07,1.11,0.08v1.54
		c-0.1,0-0.27-0.03-0.52-0.03c-0.28,0-0.56,0.11-0.56,0.53v0.53h0.98v1.54h-0.98v5.46h-1.54V114.2z"/>
	<path d="M574.74,112.52c2.1,0,3.36,1.81,3.36,3.7c0,1.77-1.12,3.59-3.36,3.59s-3.36-1.82-3.36-3.59
		C571.38,114.32,572.64,112.52,574.74,112.52z M574.74,114.06c-1.11,0-1.82,0.84-1.82,2.1c0,1.34,0.74,2.1,1.82,2.1
		c1.08,0,1.82-0.76,1.82-2.1C576.56,114.9,575.85,114.06,574.74,114.06z"/>
	<path d="M582.72,114.03c-1.02,0-1.62,0.42-1.62,2.11v3.52h-1.6v-7h1.54v0.78c0.39-0.48,0.87-0.92,1.76-0.92
		c0.42,0,0.81,0.08,1.12,0.22l-0.08,1.54C583.52,114.14,583.25,114.03,582.72,114.03z"/>
	<path d="M588.91,119.66v-4.62c0-0.66-0.48-1.05-1.16-1.05c-1.13,0-1.34,1.13-1.34,1.89v3.78h-1.6v-7h1.54v0.56
		c0.25-0.2,0.84-0.7,1.96-0.7c0.81,0,1.51,0.28,1.89,0.92c0.31-0.31,1-0.92,2.21-0.92c1.22,0,2.2,0.64,2.2,2.19v4.96h-1.6v-4.62
		c0-0.66-0.48-1.05-1.16-1.05c-1.13,0-1.35,1.13-1.35,1.89v3.78H588.91z"/>
	<path d="M602.71,118.2c0.18,0,0.36-0.03,0.63-0.08v1.54c-0.49,0.07-0.74,0.08-0.99,0.08c-0.85,0-1.26-0.18-1.58-0.73
		c-0.25,0.2-0.95,0.78-2.19,0.78c-1.57,0-2.75-1.09-2.75-2.33c0-1.6,1.34-2.24,3.28-2.24h1.34v-0.34c0-0.76-0.59-1.26-1.43-1.26
		c-0.87,0-1.32,0.43-1.32,1.26H596c0-1.51,1.34-2.38,3.07-2.38c1.58,0,2.93,0.71,2.93,2.23v2.86
		C602,118.02,602.28,118.2,602.71,118.2z M598.8,118.68c1.15,0,1.65-0.98,1.65-1.54v-0.7c-2.44-0.11-2.88,0.45-2.88,1.2
		C597.57,118.2,598.05,118.68,598.8,118.68z"/>
	<path d="M611.22,119.66v-4.62c0-0.66-0.48-1.05-1.16-1.05c-1.13,0-1.34,1.13-1.34,1.89v3.78h-1.6v-7h1.54v0.56
		c0.25-0.2,0.84-0.7,1.96-0.7c0.81,0,1.51,0.28,1.89,0.92c0.31-0.31,0.99-0.92,2.21-0.92s2.2,0.64,2.2,2.19v4.96h-1.6v-4.62
		c0-0.66-0.48-1.05-1.16-1.05c-1.13,0-1.34,1.13-1.34,1.89v3.78H611.22z"/>
	<path d="M620.08,112.66v4.62c0,0.84,0.55,1.26,1.23,1.26c1.13,0,1.39-1.12,1.39-1.96v-3.92h1.6v7h-1.54v-0.56
		c-0.25,0.2-0.88,0.7-2,0.7c-1.22,0-2.27-0.78-2.27-2.33v-4.82H620.08z"/>
	<path d="M628.39,113.71c-0.81,0-1.09,0.36-1.09,0.73c0,1.18,4.15,0.31,4.15,3.03c0,1.32-0.95,2.34-2.88,2.34c-2.51,0-3-1.54-3-2.38
		h1.6c0.11,0.55,0.48,1.12,1.53,1.12c0.77,0,1.22-0.29,1.22-0.88c0-1.39-4.15-0.35-4.15-3.01c0-1.09,0.73-2.13,2.77-2.13
		c2.21,0,2.8,1.46,2.8,2.16h-1.6C629.76,114.04,629.23,113.71,628.39,113.71z"/>
	<path d="M637.32,118.79c-0.34,0.27-0.94,0.59-1.79,0.59c-2.04,0-3.11-1.54-3.11-3.31c0-1.89,1.23-3.56,3.03-3.56
		c1.04,0,1.62,0.39,1.93,0.64v-0.5h1.48v6.86c0,1.79-1.06,2.8-3.11,2.8c-1.99,0-3.28-0.87-3.28-2.38h1.6
		c0.17,0.46,0.39,1.12,1.65,1.12c1.12,0,1.6-0.56,1.6-1.4V118.79z M635.69,118.12c1.02,0,1.68-0.7,1.68-2.04
		c0-1.26-0.63-2.02-1.68-2.02c-1.05,0-1.74,0.76-1.74,2.02C633.96,117.42,634.67,118.12,635.69,118.12z"/>
	<path d="M643.62,112.52c2.1,0,3.36,1.81,3.36,3.7c0,1.77-1.12,3.59-3.36,3.59s-3.36-1.82-3.36-3.59
		C640.26,114.32,641.52,112.52,643.62,112.52z M643.62,114.06c-1.11,0-1.82,0.84-1.82,2.1c0,1.34,0.74,2.1,1.82,2.1
		c1.08,0,1.82-0.76,1.82-2.1C645.44,114.9,644.72,114.06,643.62,114.06z"/>
	<path d="M649.85,117.7v1.96h-1.96v-1.96H649.85z"/>
	<path d="M657.45,109.42h1.33l-4.33,11.81h-1.33L657.45,109.42z"/>
	<path d="M663.34,119.66v-4.62c0-0.78-0.53-1.2-1.22-1.2c-1.13,0-1.4,1.2-1.4,2.04v3.78h-1.54v-9.53h1.48v3.08
		c0.25-0.25,0.9-0.7,2.02-0.7c1.22,0,2.26,0.64,2.26,2.19v4.96H663.34z"/>
	<path d="M669.64,112.52c2.1,0,3.36,1.81,3.36,3.7c0,1.77-1.12,3.59-3.36,3.59s-3.36-1.82-3.36-3.59
		C666.28,114.32,667.54,112.52,669.64,112.52z M669.64,114.06c-1.11,0-1.82,0.84-1.82,2.1c0,1.34,0.74,2.1,1.82,2.1
		c1.08,0,1.82-0.76,1.82-2.1C671.46,114.9,670.75,114.06,669.64,114.06z"/>
	<path d="M675.94,120.81c0,0.67-0.45,1.51-1.51,1.51c-0.64,0-0.98-0.13-1.11-0.17v-1.4c0.1,0.06,0.27,0.11,0.52,0.11
		c0.28,0,0.56-0.11,0.56-0.53v-7.68h1.54V120.81z M675.94,110v1.68h-1.54V110H675.94z"/>
	<path d="M684.11,118.2c0.18,0,0.36-0.03,0.63-0.08v1.54c-0.49,0.07-0.74,0.08-1,0.08c-0.85,0-1.26-0.18-1.58-0.73
		c-0.25,0.2-0.95,0.78-2.19,0.78c-1.57,0-2.75-1.09-2.75-2.33c0-1.6,1.35-2.24,3.28-2.24h1.34v-0.34c0-0.76-0.59-1.26-1.43-1.26
		c-0.87,0-1.32,0.43-1.32,1.26h-1.71c0-1.51,1.35-2.38,3.07-2.38c1.58,0,2.93,0.71,2.93,2.23v2.86
		C683.39,118.02,683.67,118.2,684.11,118.2z M680.2,118.68c1.15,0,1.65-0.98,1.65-1.54v-0.7c-2.44-0.11-2.89,0.45-2.89,1.2
		C678.97,118.2,679.44,118.68,680.2,118.68z"/>
	<path d="M687.84,113.71c-0.81,0-1.09,0.36-1.09,0.73c0,1.18,4.15,0.31,4.15,3.03c0,1.32-0.95,2.34-2.89,2.34c-2.51,0-3-1.54-3-2.38
		h1.6c0.11,0.55,0.48,1.12,1.53,1.12c0.77,0,1.22-0.29,1.22-0.88c0-1.39-4.15-0.35-4.15-3.01c0-1.09,0.73-2.13,2.77-2.13
		c2.21,0,2.8,1.46,2.8,2.16h-1.6C689.21,114.04,688.68,113.71,687.84,113.71z"/>
	<path d="M696.83,119.94c0-0.14-0.04-0.31-0.11-0.5l-2.32-6.78h1.68l1.61,5.15l1.67-5.15h1.68l-2.94,8.1
		c-0.32,0.88-1.26,1.57-2.3,1.57c-0.62,0-1.01-0.03-1.4-0.08v-1.48c0.34,0.06,1.01,0.08,1.54,0.08
		C696.35,120.84,696.83,120.44,696.83,119.94z"/>
	<path d="M711.36,118.2c0.18,0,0.36-0.03,0.63-0.08v1.54c-0.49,0.07-0.74,0.08-0.99,0.08c-0.85,0-1.26-0.18-1.58-0.73
		c-0.25,0.2-0.95,0.78-2.18,0.78c-1.57,0-2.75-1.09-2.75-2.33c0-1.6,1.34-2.24,3.28-2.24h1.35v-0.34c0-0.76-0.59-1.26-1.43-1.26
		c-0.87,0-1.32,0.43-1.32,1.26h-1.71c0-1.51,1.34-2.38,3.07-2.38c1.58,0,2.93,0.71,2.93,2.23v2.86
		C710.65,118.02,710.93,118.2,711.36,118.2z M707.46,118.68c1.15,0,1.65-0.98,1.65-1.54v-0.7c-2.44-0.11-2.89,0.45-2.89,1.2
		C706.22,118.2,706.7,118.68,707.46,118.68z"/>
	<path d="M715.69,112.52c2.44,0,3,2.13,3.19,3.08h-1.62c-0.14-0.87-0.57-1.54-1.62-1.54c-0.91,0-1.68,0.7-1.68,2.1
		c0,1.48,0.85,2.1,1.79,2.1c1.06,0,1.4-0.76,1.65-1.4h1.46c0,1.18-1.04,2.94-3.25,2.94c-1.93,0-3.19-1.68-3.19-3.59
		C712.41,114.04,713.78,112.52,715.69,112.52z"/>
	<path d="M723.3,112.52c2.1,0,3.36,1.81,3.36,3.7c0,1.77-1.12,3.59-3.36,3.59s-3.36-1.82-3.36-3.59
		C719.94,114.32,721.2,112.52,723.3,112.52z M723.3,114.06c-1.11,0-1.82,0.84-1.82,2.1c0,1.34,0.74,2.1,1.82,2.1
		c1.08,0,1.82-0.76,1.82-2.1C725.12,114.9,724.41,114.06,723.3,114.06z"/>
	<path d="M729.66,110.13v9.53h-1.6v-9.53H729.66z"/>
	<path d="M734.34,112.52c2.44,0,3,2.13,3.19,3.08h-1.62c-0.14-0.87-0.57-1.54-1.62-1.54c-0.91,0-1.68,0.7-1.68,2.1
		c0,1.48,0.85,2.1,1.79,2.1c1.06,0,1.4-0.76,1.65-1.4h1.46c0,1.18-1.04,2.94-3.25,2.94c-1.93,0-3.19-1.68-3.19-3.59
		C731.06,114.04,732.43,112.52,734.34,112.52z"/>
	<path d="M743.03,119.66v-4.62c0-0.78-0.53-1.2-1.22-1.2c-1.13,0-1.4,1.2-1.4,2.04v3.78h-1.54v-9.53h1.49v3.08
		c0.25-0.25,0.9-0.7,2.02-0.7c1.22,0,2.26,0.64,2.26,2.19v4.96H743.03z"/>
	<path d="M752.73,118.2c0.18,0,0.36-0.03,0.63-0.08v1.54c-0.49,0.07-0.74,0.08-0.99,0.08c-0.85,0-1.26-0.18-1.58-0.73
		c-0.25,0.2-0.95,0.78-2.18,0.78c-1.57,0-2.75-1.09-2.75-2.33c0-1.6,1.34-2.24,3.28-2.24h1.35v-0.34c0-0.76-0.59-1.26-1.43-1.26
		c-0.87,0-1.32,0.43-1.32,1.26h-1.71c0-1.51,1.34-2.38,3.07-2.38c1.58,0,2.93,0.71,2.93,2.23v2.86
		C752.02,118.02,752.3,118.2,752.73,118.2z M748.83,118.68c1.15,0,1.65-0.98,1.65-1.54v-0.7c-2.44-0.11-2.89,0.45-2.89,1.2
		C747.59,118.2,748.07,118.68,748.83,118.68z"/>
	<path d="M758.91,119.66v-0.62c-0.31,0.22-0.92,0.76-1.93,0.76c-2.04,0-3.19-1.79-3.19-3.59c0-2.02,1.09-3.7,3.14-3.7
		c1.01,0,1.6,0.42,1.93,0.64v-3.03h1.54v9.53H758.91z M757.14,118.26c1.05,0,1.76-0.7,1.76-2.1s-0.74-2.1-1.76-2.1
		s-1.82,0.62-1.82,2.1C755.32,117.56,756.09,118.26,757.14,118.26z"/>
	<path d="M765.15,112.52c2.1,0,3.36,1.81,3.36,3.7c0,1.77-1.12,3.59-3.36,3.59s-3.36-1.82-3.36-3.59
		C761.79,114.32,763.05,112.52,765.15,112.52z M765.15,114.06c-1.11,0-1.82,0.84-1.82,2.1c0,1.34,0.74,2.1,1.82,2.1
		c1.08,0,1.82-0.76,1.82-2.1C766.97,114.9,766.26,114.06,765.15,114.06z"/>
</g>
<g>
	<path d="M73.93,245.14v2.7h1.05v1.65h-1.05v3.87c0,0.45,0.3,0.57,0.6,0.57c0.27,0,0.45-0.06,0.56-0.12v1.5
		c-0.14,0.04-0.5,0.18-1.19,0.18c-1.14,0-1.62-0.69-1.62-1.41v-4.59h-0.9v-1.65h0.9v-2.7H73.93z"/>
	<path d="M79.88,249.31c-1.09,0-1.74,0.45-1.74,2.27v3.76h-1.71v-7.5h1.65v0.84c0.42-0.51,0.93-0.99,1.89-0.99
		c0.45,0,0.87,0.09,1.2,0.24l-0.09,1.65C80.74,249.43,80.45,249.31,79.88,249.31z"/>
	<path d="M89.06,253.78c0.19,0,0.39-0.03,0.67-0.09v1.65c-0.52,0.08-0.79,0.09-1.06,0.09c-0.92,0-1.35-0.19-1.69-0.78
		c-0.27,0.21-1.02,0.84-2.34,0.84c-1.68,0-2.94-1.17-2.94-2.49c0-1.71,1.44-2.4,3.51-2.4h1.44v-0.36c0-0.81-0.63-1.35-1.53-1.35
		c-0.93,0-1.41,0.46-1.41,1.35h-1.83c0-1.62,1.44-2.55,3.28-2.55c1.69,0,3.13,0.76,3.13,2.39v3.06
		C88.3,253.59,88.6,253.78,89.06,253.78z M84.88,254.29c1.23,0,1.77-1.05,1.77-1.65v-0.75c-2.61-0.12-3.09,0.48-3.09,1.29
		C83.56,253.78,84.07,254.29,84.88,254.29z"/>
	<path d="M95,255.34v-4.95c0-0.71-0.54-1.12-1.3-1.12c-1.21,0-1.5,1.06-1.5,1.88v4.2h-1.71v-7.5h1.65v0.6
		c0.62-0.48,1.4-0.75,2.16-0.75c1.3,0,2.41,0.69,2.41,2.34v5.31H95z"/>
	<path d="M101.03,248.97c-0.87,0-1.17,0.39-1.17,0.78c0,1.26,4.44,0.33,4.44,3.24c0,1.41-1.02,2.5-3.09,2.5
		c-2.68,0-3.21-1.65-3.21-2.55h1.71c0.12,0.58,0.51,1.2,1.64,1.2c0.82,0,1.3-0.32,1.3-0.95c0-1.48-4.44-0.38-4.44-3.22
		c0-1.17,0.78-2.28,2.97-2.28c2.37,0,3,1.56,3,2.31h-1.71C102.5,249.33,101.93,248.97,101.03,248.97z"/>
	<path d="M107.36,244.99v1.8h-1.71v-1.8H107.36z M107.36,247.84v7.5h-1.71v-7.5H107.36z"/>
	<path d="M112.37,247.69c2.61,0,3.21,2.28,3.42,3.3h-1.74c-0.15-0.93-0.61-1.65-1.74-1.65c-0.98,0-1.8,0.75-1.8,2.25
		c0,1.59,0.92,2.25,1.92,2.25c1.14,0,1.5-0.81,1.77-1.5h1.56c0,1.26-1.11,3.15-3.48,3.15c-2.07,0-3.42-1.8-3.42-3.84
		C108.86,249.33,110.33,247.69,112.37,247.69z"/>
	<path d="M118.94,244.99v1.8h-1.71v-1.8H118.94z M118.94,247.84v7.5h-1.71v-7.5H118.94z"/>
	<path d="M124.04,247.69c2.25,0,3.6,1.93,3.6,3.96c0,1.89-1.2,3.84-3.6,3.84s-3.6-1.95-3.6-3.84
		C120.44,249.62,121.79,247.69,124.04,247.69z M124.04,249.34c-1.19,0-1.95,0.9-1.95,2.25c0,1.44,0.79,2.25,1.95,2.25
		c1.16,0,1.95-0.81,1.95-2.25C125.99,250.24,125.23,249.34,124.04,249.34z M126.29,244.99l-1.71,2.1h-1.5l0.45-2.1H126.29z"/>
	<path d="M133.66,255.34v-4.95c0-0.71-0.54-1.12-1.3-1.12c-1.21,0-1.5,1.06-1.5,1.88v4.2h-1.71v-7.5h1.65v0.6
		c0.62-0.48,1.4-0.75,2.16-0.75c1.3,0,2.41,0.69,2.41,2.34v5.31H133.66z"/>
	<path d="M72.35,271.84l3.39-3.01c1.14-1.01,1.84-1.64,1.84-2.62c0-0.81-0.56-1.56-1.71-1.56c-1.17,0-1.77,0.79-1.79,2.27h-1.8
		c-0.15-2.48,1.48-3.92,3.72-3.92c2.24,0,3.41,1.43,3.41,3c0,1.68-0.95,2.8-2.19,3.81l-2.16,1.74h4.4v1.8h-7.11V271.84z"/>
	<path d="M81.52,268.24c0-3.52,1.84-5.25,4.08-5.25c2.25,0,4.11,1.73,4.11,5.25c0,3.53-1.87,5.25-4.11,5.25
		C83.38,273.49,81.52,271.77,81.52,268.24z M87.83,268.24c0-2.02-0.72-3.4-2.24-3.4c-1.51,0-2.22,1.38-2.22,3.4
		c0,2.03,0.71,3.41,2.22,3.41C87.11,271.65,87.83,270.27,87.83,268.24z"/>
	<path d="M91.73,271.84l3.39-3.01c1.14-1.01,1.84-1.64,1.84-2.62c0-0.81-0.56-1.56-1.71-1.56c-1.17,0-1.77,0.79-1.79,2.27h-1.8
		c-0.15-2.48,1.48-3.92,3.72-3.92c2.24,0,3.41,1.43,3.41,3c0,1.68-0.95,2.8-2.19,3.81l-2.16,1.74h4.4v1.8h-7.11V271.84z"/>
	<path d="M101.42,271.84l3.39-3.01c1.14-1.01,1.84-1.64,1.84-2.62c0-0.81-0.56-1.56-1.71-1.56c-1.17,0-1.77,0.79-1.79,2.27h-1.8
		c-0.15-2.48,1.48-3.92,3.72-3.92c2.24,0,3.41,1.43,3.41,3c0,1.68-0.95,2.8-2.19,3.81l-2.16,1.74h4.4v1.8h-7.11V271.84z"/>
	<path d="M110.17,268.92h4.6v1.35h-4.6V268.92z"/>
	<path d="M116.38,271.84l3.39-3.01c1.14-1.01,1.84-1.64,1.84-2.62c0-0.81-0.56-1.56-1.71-1.56c-1.17,0-1.77,0.79-1.79,2.27h-1.8
		c-0.15-2.48,1.48-3.92,3.72-3.92c2.24,0,3.41,1.43,3.41,3c0,1.68-0.95,2.8-2.19,3.81l-2.16,1.74h4.4v1.8h-7.11V271.84z"/>
	<path d="M126.07,271.84l3.39-3.01c1.14-1.01,1.84-1.64,1.84-2.62c0-0.81-0.56-1.56-1.71-1.56c-1.17,0-1.77,0.79-1.79,2.27h-1.8
		c-0.15-2.48,1.48-3.92,3.72-3.92c2.24,0,3.41,1.43,3.41,3c0,1.68-0.95,2.8-2.19,3.81l-2.16,1.74h4.4v1.8h-7.11V271.84z"/>
	<path d="M139.27,267.33c0.92,0,1.54-0.62,1.54-1.4c0-0.71-0.4-1.29-1.59-1.29c-1.3,0-1.65,0.81-1.75,1.96h-1.8
		c-0.15-1.72,1.19-3.62,3.72-3.62c2.23,0,3.34,1.47,3.34,2.71c0,0.95-0.38,1.83-1.29,2.27c1.07,0.51,1.5,1.24,1.5,2.22
		c0,1.73-1.32,3.3-3.7,3.3c-2.54,0-3.87-1.89-3.72-3.62h1.8c-0.04,1.05,0.58,1.96,1.9,1.96c1.19,0,1.74-0.69,1.74-1.65
		c0-0.84-0.54-1.51-1.7-1.51h-0.84v-1.35H139.27z"/>
</g>
<g>
	<path d="M143.98,93.91h-0.9v-0.72h0.9l-0.45-0.78l0.63-0.36l0.45,0.77l0.45-0.77l0.63,0.36l-0.45,0.78h0.9v0.72h-0.9l0.45,0.78
		l-0.63,0.36l-0.45-0.77l-0.45,0.77l-0.63-0.36L143.98,93.91z"/>
	<path d="M146.63,96.01c-0.01-1.29,0.31-2.31,1.01-3.74h0.9c-0.66,1.35-1,2.57-1,3.75s0.42,2.71,1,3.73h-0.9
		C147.03,98.68,146.63,97.3,146.63,96.01z"/>
	<path d="M153.02,97.32c0.12,0,0.23-0.02,0.41-0.05v0.99c-0.32,0.04-0.48,0.05-0.64,0.05c-0.55,0-0.81-0.12-1.02-0.47
		c-0.16,0.13-0.61,0.5-1.4,0.5c-1.01,0-1.76-0.7-1.76-1.49c0-1.03,0.86-1.44,2.11-1.44h0.86V95.2c0-0.49-0.38-0.81-0.92-0.81
		c-0.56,0-0.85,0.28-0.85,0.81h-1.1c0-0.97,0.86-1.53,1.97-1.53c1.02,0,1.88,0.46,1.88,1.43v1.84
		C152.56,97.21,152.74,97.32,153.02,97.32z M150.5,97.63c0.74,0,1.06-0.63,1.06-0.99v-0.45c-1.57-0.07-1.85,0.29-1.85,0.77
		C149.71,97.32,150.02,97.63,150.5,97.63z"/>
	<path d="M154.82,93.76v0.4c0.2-0.14,0.59-0.49,1.24-0.49c1.31,0,2.05,1.15,2.05,2.3c0,1.3-0.7,2.38-2.02,2.38
		c-0.65,0-1.03-0.27-1.24-0.41v1.94h-0.99v-6.12H154.82z M155.96,94.66c-0.68,0-1.13,0.45-1.13,1.35c0,0.9,0.48,1.35,1.13,1.35
		s1.17-0.4,1.17-1.35C157.13,95.11,156.63,94.66,155.96,94.66z"/>
	<path d="M160.01,93.76v2.97c0,0.54,0.35,0.81,0.79,0.81c0.73,0,0.89-0.72,0.89-1.26v-2.52h1.03v4.5h-0.99V97.9
		c-0.16,0.13-0.57,0.45-1.29,0.45c-0.78,0-1.46-0.5-1.46-1.49v-3.1H160.01z"/>
	<path d="M166.51,98.26v-2.97c0-0.42-0.32-0.68-0.78-0.68c-0.73,0-0.9,0.64-0.9,1.12v2.52h-1.03v-4.5h0.99v0.36
		c0.37-0.29,0.84-0.45,1.3-0.45c0.78,0,1.45,0.41,1.45,1.4v3.19H166.51z"/>
	<path d="M169.75,92.14v1.62h0.63v0.99h-0.63v2.32c0,0.27,0.18,0.34,0.36,0.34c0.16,0,0.27-0.04,0.33-0.07v0.9
		c-0.08,0.03-0.3,0.11-0.71,0.11c-0.68,0-0.97-0.41-0.97-0.85v-2.75h-0.54v-0.99h0.54v-1.62H169.75z"/>
	<path d="M173.11,93.67c1.26,0,2.04,0.9,2.11,2.57h-3.2c0.08,0.78,0.55,1.12,1.15,1.12c0.69,0,0.91-0.43,1-0.63h0.99
		c-0.05,0.61-0.63,1.62-1.98,1.62c-1.31,0-2.16-1.08-2.16-2.3C171.02,94.83,171.85,93.67,173.11,93.67z M172.09,95.34h2.06
		c-0.06-0.55-0.43-0.86-1.01-0.86C172.67,94.48,172.26,94.74,172.09,95.34z"/>
	<path d="M177.59,94.43c-0.52,0-0.7,0.23-0.7,0.47c0,0.76,2.67,0.2,2.67,1.94c0,0.85-0.61,1.5-1.85,1.5c-1.61,0-1.93-0.99-1.93-1.53
		h1.03c0.07,0.35,0.31,0.72,0.98,0.72c0.5,0,0.78-0.19,0.78-0.57c0-0.89-2.67-0.22-2.67-1.94c0-0.7,0.47-1.37,1.78-1.37
		c1.42,0,1.8,0.94,1.8,1.39h-1.03C178.48,94.65,178.13,94.43,177.59,94.43z"/>
	<path d="M183.89,94.43c-0.52,0-0.7,0.23-0.7,0.47c0,0.76,2.67,0.2,2.67,1.94c0,0.85-0.61,1.5-1.85,1.5c-1.61,0-1.93-0.99-1.93-1.53
		h1.03c0.07,0.35,0.31,0.72,0.98,0.72c0.5,0,0.78-0.19,0.78-0.57c0-0.89-2.67-0.22-2.67-1.94c0-0.7,0.47-1.37,1.78-1.37
		c1.42,0,1.8,0.94,1.8,1.39h-1.03C184.78,94.65,184.43,94.43,183.89,94.43z"/>
	<path d="M188.65,93.67c1.35,0,2.16,1.16,2.16,2.38c0,1.13-0.72,2.3-2.16,2.3s-2.16-1.17-2.16-2.3
		C186.49,94.83,187.3,93.67,188.65,93.67z M188.65,94.66c-0.71,0-1.17,0.54-1.17,1.35c0,0.86,0.48,1.35,1.17,1.35
		c0.69,0,1.17-0.49,1.17-1.35C189.82,95.2,189.36,94.66,188.65,94.66z"/>
	<path d="M191.71,92.14h0.99v1.94c0.22-0.14,0.59-0.41,1.24-0.41c1.31,0,2.02,1.08,2.02,2.38c0,1.15-0.74,2.3-2.05,2.3
		c-0.65,0-1.04-0.34-1.24-0.49v0.4h-0.95V92.14z M193.79,94.66c-0.66,0-1.13,0.45-1.13,1.35c0,0.9,0.46,1.35,1.13,1.35
		s1.17-0.45,1.17-1.35C194.96,95.06,194.45,94.66,193.79,94.66z"/>
	<path d="M198.92,94.64c-0.66,0-1.04,0.27-1.04,1.36v2.26h-1.03v-4.5h0.99v0.5c0.25-0.31,0.56-0.59,1.13-0.59
		c0.27,0,0.52,0.05,0.72,0.14l-0.05,0.99C199.44,94.71,199.27,94.64,198.92,94.64z"/>
	<path d="M201.95,93.67c1.26,0,2.04,0.9,2.11,2.57h-3.2c0.08,0.78,0.55,1.12,1.15,1.12c0.69,0,0.91-0.43,1-0.63H204
		c-0.05,0.61-0.63,1.62-1.98,1.62c-1.31,0-2.16-1.08-2.16-2.3C199.86,94.83,200.69,93.67,201.95,93.67z M200.93,95.34h2.06
		c-0.06-0.55-0.43-0.86-1.01-0.86C201.51,94.48,201.09,94.74,200.93,95.34z"/>
	<path d="M206.86,92.14h0.99v1.94c0.22-0.14,0.59-0.41,1.24-0.41c1.31,0,2.02,1.08,2.02,2.38c0,1.15-0.74,2.3-2.05,2.3
		c-0.65,0-1.04-0.34-1.24-0.49v0.4h-0.95V92.14z M208.95,94.66c-0.66,0-1.13,0.45-1.13,1.35c0,0.9,0.46,1.35,1.13,1.35
		s1.17-0.45,1.17-1.35C210.12,95.06,209.61,94.66,208.95,94.66z"/>
	<path d="M213.99,93.67c1.35,0,2.16,1.16,2.16,2.38c0,1.13-0.72,2.3-2.16,2.3s-2.16-1.17-2.16-2.3
		C211.83,94.83,212.64,93.67,213.99,93.67z M213.99,94.66c-0.71,0-1.17,0.54-1.17,1.35c0,0.86,0.48,1.35,1.17,1.35
		c0.69,0,1.17-0.49,1.17-1.35C215.16,95.2,214.7,94.66,213.99,94.66z"/>
	<path d="M218.6,94.43c-0.52,0-0.7,0.23-0.7,0.47c0,0.76,2.67,0.2,2.67,1.94c0,0.85-0.61,1.5-1.85,1.5c-1.61,0-1.93-0.99-1.93-1.53
		h1.03c0.07,0.35,0.31,0.72,0.98,0.72c0.5,0,0.78-0.19,0.78-0.57c0-0.89-2.67-0.22-2.67-1.94c0-0.7,0.47-1.37,1.78-1.37
		c1.42,0,1.8,0.94,1.8,1.39h-1.03C219.48,94.65,219.14,94.43,218.6,94.43z"/>
	<path d="M225.44,99.88h-0.99v-1.94c-0.22,0.14-0.59,0.41-1.24,0.41c-1.31,0-2.02-1.08-2.02-2.38c0-1.15,0.74-2.3,2.05-2.3
		c0.65,0,1.04,0.34,1.24,0.49v-0.4h0.95V99.88z M223.35,97.36c0.66,0,1.13-0.45,1.13-1.35c0-0.9-0.46-1.35-1.13-1.35
		c-0.68,0-1.17,0.45-1.17,1.35C222.18,96.96,222.69,97.36,223.35,97.36z"/>
	<path d="M227.51,93.76v2.97c0,0.54,0.35,0.81,0.79,0.81c0.73,0,0.89-0.72,0.89-1.26v-2.52h1.03v4.5h-0.99V97.9
		c-0.16,0.13-0.57,0.45-1.29,0.45c-0.78,0-1.46-0.5-1.46-1.49v-3.1H227.51z"/>
	<path d="M233.16,93.67c1.26,0,2.04,0.9,2.11,2.57h-3.2c0.08,0.78,0.55,1.12,1.15,1.12c0.69,0,0.91-0.43,1-0.63h0.99
		c-0.05,0.61-0.63,1.62-1.98,1.62c-1.31,0-2.16-1.08-2.16-2.3C231.07,94.83,231.9,93.67,233.16,93.67z M232.14,95.34h2.06
		c-0.06-0.55-0.43-0.86-1.01-0.86C232.72,94.48,232.3,94.74,232.14,95.34z"/>
	<path d="M237.64,94.43c-0.52,0-0.7,0.23-0.7,0.47c0,0.76,2.67,0.2,2.67,1.94c0,0.85-0.61,1.5-1.85,1.5c-1.61,0-1.93-0.99-1.93-1.53
		h1.03c0.07,0.35,0.31,0.72,0.98,0.72c0.5,0,0.78-0.19,0.78-0.57c0-0.89-2.67-0.22-2.67-1.94c0-0.7,0.47-1.37,1.78-1.37
		c1.42,0,1.8,0.94,1.8,1.39h-1.03C238.52,94.65,238.18,94.43,237.64,94.43z"/>
	<path d="M241.54,97v1.24c0,0.92-0.41,1.28-1.27,1.28v-0.63c0.41,0,0.64-0.27,0.64-0.63h-0.63V97H241.54z"/>
	<path d="M245.63,92.14v1.62h0.63v0.99h-0.63v2.32c0,0.27,0.18,0.34,0.36,0.34c0.16,0,0.27-0.04,0.33-0.07v0.9
		c-0.08,0.03-0.3,0.11-0.71,0.11c-0.68,0-0.97-0.41-0.97-0.85v-2.75h-0.54v-0.99h0.54v-1.62H245.63z"/>
	<path d="M249,93.67c1.26,0,2.04,0.9,2.11,2.57h-3.2c0.08,0.78,0.55,1.12,1.15,1.12c0.69,0,0.91-0.43,1-0.63h0.99
		c-0.05,0.61-0.63,1.62-1.98,1.62c-1.31,0-2.16-1.08-2.16-2.3C246.91,94.83,247.74,93.67,249,93.67z M247.98,95.34h2.06
		c-0.06-0.55-0.43-0.86-1.01-0.86C248.56,94.48,248.14,94.74,247.98,95.34z"/>
	<path d="M254,94.64c-0.66,0-1.04,0.27-1.04,1.36v2.26h-1.03v-4.5h0.99v0.5c0.25-0.31,0.56-0.59,1.13-0.59
		c0.27,0,0.52,0.05,0.72,0.14l-0.05,0.99C254.52,94.71,254.34,94.64,254,94.64z"/>
	<path d="M257.41,94.64c-0.66,0-1.04,0.27-1.04,1.36v2.26h-1.03v-4.5h0.99v0.5c0.25-0.31,0.56-0.59,1.13-0.59
		c0.27,0,0.52,0.05,0.72,0.14l-0.05,0.99C257.93,94.71,257.76,94.64,257.41,94.64z"/>
	<path d="M259.78,92.05v1.08h-1.03v-1.08H259.78z M259.78,93.76v4.5h-1.03v-4.5H259.78z"/>
	<path d="M262.03,92.14v1.62h0.63v0.99h-0.63v2.32c0,0.27,0.18,0.34,0.36,0.34c0.16,0,0.27-0.04,0.33-0.07v0.9
		c-0.08,0.03-0.3,0.11-0.71,0.11c-0.68,0-0.97-0.41-0.97-0.85v-2.75h-0.54v-0.99h0.54v-1.62H262.03z"/>
	<path d="M265.51,93.67c1.35,0,2.16,1.16,2.16,2.38c0,1.13-0.72,2.3-2.16,2.3s-2.16-1.17-2.16-2.3
		C263.35,94.83,264.16,93.67,265.51,93.67z M265.51,94.66c-0.71,0-1.17,0.54-1.17,1.35c0,0.86,0.48,1.35,1.17,1.35
		c0.69,0,1.17-0.49,1.17-1.35C266.68,95.2,266.22,94.66,265.51,94.66z"/>
	<path d="M270.64,94.64c-0.66,0-1.04,0.27-1.04,1.36v2.26h-1.03v-4.5h0.99v0.5c0.25-0.31,0.56-0.59,1.13-0.59
		c0.27,0,0.52,0.05,0.72,0.14l-0.05,0.99C271.16,94.71,270.99,94.64,270.64,94.64z"/>
	<path d="M273.01,92.05v1.08h-1.03v-1.08H273.01z M273.01,93.76v4.5h-1.03v-4.5H273.01z"/>
	<path d="M276.07,93.67c1.35,0,2.16,1.16,2.16,2.38c0,1.13-0.72,2.3-2.16,2.3s-2.16-1.17-2.16-2.3
		C273.91,94.83,274.72,93.67,276.07,93.67z M276.07,94.66c-0.71,0-1.17,0.54-1.17,1.35c0,0.86,0.48,1.35,1.17,1.35
		c0.69,0,1.17-0.49,1.17-1.35C277.24,95.2,276.78,94.66,276.07,94.66z"/>
	<path d="M280.68,94.43c-0.52,0-0.7,0.23-0.7,0.47c0,0.76,2.67,0.2,2.67,1.94c0,0.85-0.61,1.5-1.85,1.5c-1.61,0-1.93-0.99-1.93-1.53
		h1.03c0.07,0.35,0.31,0.72,0.98,0.72c0.5,0,0.78-0.19,0.78-0.57c0-0.89-2.67-0.22-2.67-1.94c0-0.7,0.47-1.37,1.78-1.37
		c1.42,0,1.8,0.94,1.8,1.39h-1.03C281.56,94.65,281.22,94.43,280.68,94.43z"/>
	<path d="M286.46,98.44c0-0.09-0.03-0.2-0.07-0.32l-1.49-4.36h1.08l1.04,3.31l1.07-3.31h1.08l-1.89,5.2
		c-0.21,0.57-0.81,1.01-1.48,1.01c-0.4,0-0.65-0.02-0.9-0.05v-0.95c0.22,0.04,0.65,0.05,0.99,0.05
		C286.15,99.02,286.46,98.76,286.46,98.44z"/>
	<path d="M294.27,98.26v-2.97c0-0.42-0.31-0.68-0.75-0.68c-0.73,0-0.86,0.73-0.86,1.22v2.43h-1.03v-4.5h0.99v0.36
		c0.16-0.13,0.54-0.45,1.26-0.45c0.52,0,0.97,0.18,1.22,0.59c0.2-0.2,0.64-0.59,1.42-0.59s1.41,0.41,1.41,1.4v3.19h-1.03v-2.97
		c0-0.42-0.31-0.68-0.75-0.68c-0.73,0-0.86,0.73-0.86,1.22v2.43H294.27z"/>
	<path d="M299.96,93.76v2.97c0,0.54,0.35,0.81,0.79,0.81c0.73,0,0.89-0.72,0.89-1.26v-2.52h1.03v4.5h-0.99V97.9
		c-0.16,0.13-0.57,0.45-1.29,0.45c-0.78,0-1.46-0.5-1.46-1.49v-3.1H299.96z"/>
	<path d="M305.3,94.43c-0.52,0-0.7,0.23-0.7,0.47c0,0.76,2.67,0.2,2.67,1.94c0,0.85-0.61,1.5-1.85,1.5c-1.61,0-1.93-0.99-1.93-1.53
		h1.03c0.07,0.35,0.31,0.72,0.98,0.72c0.5,0,0.78-0.19,0.78-0.57c0-0.89-2.67-0.22-2.67-1.94c0-0.7,0.47-1.37,1.78-1.37
		c1.42,0,1.8,0.94,1.8,1.39h-1.03C306.18,94.65,305.84,94.43,305.3,94.43z"/>
	<path d="M311.04,97.7c-0.22,0.17-0.6,0.38-1.15,0.38c-1.31,0-2-0.99-2-2.12c0-1.22,0.79-2.29,1.94-2.29c0.67,0,1.04,0.25,1.24,0.41
		v-0.32h0.95v4.41c0,1.15-0.68,1.8-2,1.8c-1.28,0-2.11-0.56-2.11-1.53h1.03c0.11,0.3,0.25,0.72,1.06,0.72c0.72,0,1.03-0.36,1.03-0.9
		V97.7z M310,97.27c0.66,0,1.08-0.45,1.08-1.31c0-0.81-0.4-1.3-1.08-1.3s-1.12,0.49-1.12,1.3C308.88,96.82,309.34,97.27,310,97.27z"
		/>
	<path d="M315.09,93.67c1.35,0,2.16,1.16,2.16,2.38c0,1.13-0.72,2.3-2.16,2.3s-2.16-1.17-2.16-2.3
		C312.93,94.83,313.74,93.67,315.09,93.67z M315.09,94.66c-0.71,0-1.17,0.54-1.17,1.35c0,0.86,0.48,1.35,1.17,1.35
		c0.69,0,1.17-0.49,1.17-1.35C316.26,95.2,315.81,94.66,315.09,94.66z"/>
	<path d="M319.7,94.43c-0.52,0-0.7,0.23-0.7,0.47c0,0.76,2.67,0.2,2.67,1.94c0,0.85-0.61,1.5-1.85,1.5c-1.61,0-1.93-0.99-1.93-1.53
		h1.03c0.07,0.35,0.31,0.72,0.98,0.72c0.5,0,0.78-0.19,0.78-0.57c0-0.89-2.67-0.22-2.67-1.94c0-0.7,0.47-1.37,1.78-1.37
		c1.42,0,1.8,0.94,1.8,1.39h-1.03C320.58,94.65,320.24,94.43,319.7,94.43z"/>
	<path d="M323.89,96.01c0.01,1.29-0.31,2.31-1.01,3.74h-0.9c0.66-1.35,1-2.57,1-3.75s-0.42-2.71-1-3.73h0.9
		C323.48,93.34,323.88,94.72,323.89,96.01z"/>
	<path d="M143.57,106c0-1.94,1.2-3.15,2.72-3.15c1.53,0,2.74,1.22,2.74,3.15c0,1.05-0.36,1.9-0.94,2.44l0.65,0.89h-1.26l-0.25-0.35
		c-0.29,0.12-0.6,0.17-0.94,0.17C144.77,109.15,143.57,107.93,143.57,106z M146.55,108.06l-0.88-1.22h1.24l0.51,0.71
		c0.3-0.36,0.47-0.88,0.47-1.55c0-1.31-0.67-2.08-1.61-2.08s-1.6,0.77-1.6,2.08c0,1.31,0.66,2.08,1.6,2.08
		C146.37,108.08,146.46,108.07,146.55,108.06z"/>
	<path d="M150.99,104.56v2.97c0,0.54,0.35,0.81,0.79,0.81c0.73,0,0.89-0.72,0.89-1.26v-2.52h1.03v4.5h-0.99v-0.36
		c-0.16,0.13-0.57,0.45-1.29,0.45c-0.78,0-1.46-0.5-1.46-1.49v-3.1H150.99z"/>
	<path d="M156.64,104.47c1.26,0,2.04,0.9,2.11,2.57h-3.2c0.08,0.78,0.55,1.12,1.15,1.12c0.69,0,0.91-0.43,1-0.63h0.99
		c-0.05,0.61-0.63,1.62-1.98,1.62c-1.31,0-2.16-1.08-2.16-2.3C154.55,105.63,155.38,104.47,156.64,104.47z M155.62,106.14h2.06
		c-0.06-0.55-0.43-0.86-1.01-0.86C156.2,105.28,155.79,105.54,155.62,106.14z M157.99,102.85l-1.03,1.26h-0.9l0.27-1.26H157.99z"/>
	<path d="M163.42,104.47c1.26,0,2.04,0.9,2.11,2.57h-3.2c0.08,0.78,0.55,1.12,1.15,1.12c0.69,0,0.91-0.43,1-0.63h0.99
		c-0.05,0.61-0.63,1.62-1.98,1.62c-1.31,0-2.16-1.08-2.16-2.3C161.33,105.63,162.16,104.47,163.42,104.47z M162.4,106.14h2.06
		c-0.06-0.55-0.43-0.86-1.01-0.86C162.98,105.28,162.56,105.54,162.4,106.14z"/>
	<path d="M167.38,102.94v6.12h-1.03v-6.12H167.38z"/>
	<path d="M170.32,104.47c1.26,0,2.04,0.9,2.11,2.57h-3.2c0.08,0.78,0.55,1.12,1.15,1.12c0.69,0,0.91-0.43,1-0.63h0.99
		c-0.05,0.61-0.63,1.62-1.98,1.62c-1.31,0-2.16-1.08-2.16-2.3C168.23,105.63,169.06,104.47,170.32,104.47z M169.3,106.14h2.06
		c-0.06-0.55-0.43-0.86-1.01-0.86C169.88,105.28,169.47,105.54,169.3,106.14z"/>
	<path d="M175.89,109.06v-2.97c0-0.42-0.31-0.68-0.75-0.68c-0.73,0-0.86,0.73-0.86,1.22v2.43h-1.03v-4.5h0.99v0.36
		c0.16-0.13,0.54-0.45,1.26-0.45c0.52,0,0.97,0.18,1.22,0.59c0.2-0.2,0.64-0.59,1.42-0.59s1.41,0.41,1.41,1.4v3.19h-1.03v-2.97
		c0-0.42-0.31-0.68-0.75-0.68c-0.73,0-0.86,0.73-0.86,1.22v2.43H175.89z"/>
	<path d="M182.46,104.47c1.26,0,2.04,0.9,2.11,2.57h-3.2c0.08,0.78,0.55,1.12,1.15,1.12c0.69,0,0.91-0.43,1-0.63h0.99
		c-0.05,0.61-0.63,1.62-1.98,1.62c-1.31,0-2.16-1.08-2.16-2.3C180.37,105.63,181.2,104.47,182.46,104.47z M181.45,106.14h2.06
		c-0.06-0.55-0.43-0.86-1.01-0.86C182.02,105.28,181.61,105.54,181.45,106.14z"/>
	<path d="M188.11,109.06v-2.97c0-0.42-0.32-0.68-0.78-0.68c-0.73,0-0.9,0.64-0.9,1.12v2.52h-1.03v-4.5h0.99v0.36
		c0.37-0.29,0.84-0.45,1.3-0.45c0.78,0,1.45,0.41,1.45,1.4v3.19H188.11z"/>
	<path d="M191.35,102.94v1.62h0.63v0.99h-0.63v2.32c0,0.27,0.18,0.34,0.36,0.34c0.16,0,0.27-0.04,0.33-0.07v0.9
		c-0.08,0.03-0.3,0.11-0.71,0.11c-0.68,0-0.97-0.41-0.97-0.85v-2.75h-0.54v-0.99h0.54v-1.62H191.35z"/>
	<path d="M194.83,104.47c1.35,0,2.16,1.16,2.16,2.38c0,1.13-0.72,2.3-2.16,2.3s-2.16-1.17-2.16-2.3
		C192.67,105.63,193.48,104.47,194.83,104.47z M194.83,105.46c-0.71,0-1.17,0.54-1.17,1.35c0,0.86,0.48,1.35,1.17,1.35
		c0.69,0,1.17-0.49,1.17-1.35C196,106,195.54,105.46,194.83,105.46z"/>
	<path d="M199.44,105.23c-0.52,0-0.7,0.23-0.7,0.47c0,0.76,2.67,0.2,2.67,1.94c0,0.85-0.61,1.5-1.85,1.5
		c-1.61,0-1.93-0.99-1.93-1.53h1.03c0.07,0.35,0.31,0.72,0.98,0.72c0.5,0,0.78-0.19,0.78-0.57c0-0.89-2.67-0.22-2.67-1.94
		c0-0.7,0.47-1.37,1.78-1.37c1.42,0,1.8,0.94,1.8,1.39h-1.03C200.32,105.45,199.98,105.23,199.44,105.23z"/>
	<path d="M205.21,109.24c0-0.09-0.03-0.2-0.07-0.32l-1.49-4.36h1.08l1.04,3.31l1.07-3.31h1.08l-1.89,5.2
		c-0.21,0.57-0.81,1.01-1.48,1.01c-0.4,0-0.65-0.02-0.9-0.05v-0.95c0.22,0.04,0.65,0.05,0.99,0.05
		C204.91,109.82,205.21,109.56,205.21,109.24z"/>
	<path d="M212.25,104.47c1.26,0,2.04,0.9,2.11,2.57h-3.2c0.08,0.78,0.55,1.12,1.15,1.12c0.69,0,0.91-0.43,1-0.63h0.99
		c-0.05,0.61-0.63,1.62-1.98,1.62c-1.31,0-2.16-1.08-2.16-2.3C210.16,105.63,210.99,104.47,212.25,104.47z M211.23,106.14h2.06
		c-0.06-0.55-0.43-0.86-1.01-0.86C211.81,105.28,211.4,105.54,211.23,106.14z"/>
	<path d="M217.9,109.06v-2.97c0-0.42-0.32-0.68-0.78-0.68c-0.73,0-0.9,0.64-0.9,1.12v2.52h-1.03v-4.5h0.99v0.36
		c0.37-0.29,0.84-0.45,1.3-0.45c0.78,0,1.45,0.41,1.45,1.4v3.19H217.9z"/>
	<path d="M221.89,104.47c1.57,0,1.93,1.37,2.05,1.98h-1.04c-0.09-0.56-0.37-0.99-1.04-0.99c-0.58,0-1.08,0.45-1.08,1.35
		c0,0.95,0.55,1.35,1.15,1.35c0.68,0,0.9-0.49,1.06-0.9h0.94c0,0.76-0.67,1.89-2.09,1.89c-1.24,0-2.05-1.08-2.05-2.3
		C219.78,105.45,220.67,104.47,221.89,104.47z"/>
	<path d="M225.8,104.56v2.97c0,0.54,0.35,0.81,0.79,0.81c0.73,0,0.89-0.72,0.89-1.26v-2.52h1.03v4.5h-0.99v-0.36
		c-0.16,0.13-0.57,0.45-1.29,0.45c-0.78,0-1.46-0.5-1.46-1.49v-3.1H225.8z"/>
	<path d="M233.75,108.12c0.12,0,0.23-0.02,0.4-0.05v0.99c-0.31,0.04-0.48,0.05-0.64,0.05c-0.55,0-0.81-0.12-1.02-0.47
		c-0.16,0.13-0.61,0.5-1.4,0.5c-1.01,0-1.76-0.7-1.76-1.49c0-1.03,0.86-1.44,2.11-1.44h0.86V106c0-0.49-0.38-0.81-0.92-0.81
		c-0.56,0-0.85,0.28-0.85,0.81h-1.1c0-0.97,0.86-1.53,1.97-1.53c1.02,0,1.88,0.46,1.88,1.43v1.84
		C233.29,108.01,233.47,108.12,233.75,108.12z M231.24,108.43c0.74,0,1.06-0.63,1.06-0.99v-0.45c-1.57-0.07-1.85,0.29-1.85,0.77
		C230.45,108.12,230.76,108.43,231.24,108.43z"/>
	<path d="M237.72,109.06v-0.4c-0.2,0.14-0.59,0.49-1.24,0.49c-1.31,0-2.05-1.15-2.05-2.3c0-1.3,0.7-2.38,2.02-2.38
		c0.65,0,1.03,0.27,1.24,0.41v-1.94h0.99v6.12H237.72z M236.59,108.16c0.67,0,1.13-0.45,1.13-1.35c0-0.9-0.48-1.35-1.13-1.35
		c-0.66,0-1.17,0.4-1.17,1.35C235.42,107.71,235.91,108.16,236.59,108.16z"/>
	<path d="M241.83,105.44c-0.66,0-1.04,0.27-1.04,1.36v2.26h-1.03v-4.5h0.99v0.5c0.25-0.31,0.56-0.59,1.13-0.59
		c0.27,0,0.52,0.05,0.72,0.14l-0.05,0.99C242.34,105.51,242.17,105.44,241.83,105.44z"/>
	<path d="M244.85,104.47c1.26,0,2.04,0.9,2.11,2.57h-3.2c0.08,0.78,0.55,1.12,1.15,1.12c0.69,0,0.91-0.43,1-0.63h0.99
		c-0.05,0.61-0.63,1.62-1.98,1.62c-1.31,0-2.16-1.08-2.16-2.3C242.76,105.63,243.59,104.47,244.85,104.47z M243.83,106.14h2.06
		c-0.06-0.55-0.43-0.86-1.01-0.86C244.41,105.28,243.99,105.54,243.83,106.14z"/>
	<path d="M249.33,105.23c-0.52,0-0.7,0.23-0.7,0.47c0,0.76,2.67,0.2,2.67,1.94c0,0.85-0.61,1.5-1.85,1.5
		c-1.61,0-1.93-0.99-1.93-1.53h1.03c0.07,0.35,0.31,0.72,0.98,0.72c0.5,0,0.78-0.19,0.78-0.57c0-0.89-2.67-0.22-2.67-1.94
		c0-0.7,0.47-1.37,1.78-1.37c1.42,0,1.8,0.94,1.8,1.39h-1.03C250.21,105.45,249.87,105.23,249.33,105.23z"/>
	<path d="M255.04,104.56v0.4c0.2-0.14,0.59-0.49,1.24-0.49c1.31,0,2.05,1.15,2.05,2.3c0,1.3-0.7,2.38-2.02,2.38
		c-0.65,0-1.03-0.27-1.24-0.41v1.94h-0.99v-6.12H255.04z M256.17,105.46c-0.68,0-1.13,0.45-1.13,1.35c0,0.9,0.48,1.35,1.13,1.35
		s1.17-0.4,1.17-1.35C257.34,105.91,256.85,105.46,256.17,105.46z"/>
	<path d="M261.21,104.47c1.35,0,2.16,1.16,2.16,2.38c0,1.13-0.72,2.3-2.16,2.3s-2.16-1.17-2.16-2.3
		C259.05,105.63,259.86,104.47,261.21,104.47z M261.21,105.46c-0.71,0-1.17,0.54-1.17,1.35c0,0.86,0.48,1.35,1.17,1.35
		c0.69,0,1.17-0.49,1.17-1.35C262.38,106,261.92,105.46,261.21,105.46z"/>
	<path d="M265.82,105.23c-0.52,0-0.7,0.23-0.7,0.47c0,0.76,2.67,0.2,2.67,1.94c0,0.85-0.61,1.5-1.85,1.5
		c-1.61,0-1.93-0.99-1.93-1.53h1.03c0.07,0.35,0.31,0.72,0.98,0.72c0.5,0,0.78-0.19,0.78-0.57c0-0.89-2.67-0.22-2.67-1.94
		c0-0.7,0.47-1.37,1.78-1.37c1.42,0,1.8,0.94,1.8,1.39h-1.03C266.7,105.45,266.36,105.23,265.82,105.23z"/>
	<path d="M269.62,102.85v1.08h-1.03v-1.08H269.62z M269.62,104.56v4.5h-1.03v-4.5H269.62z"/>
	<path d="M270.7,102.94h0.99v1.94c0.22-0.14,0.59-0.41,1.24-0.41c1.31,0,2.02,1.08,2.02,2.38c0,1.15-0.74,2.3-2.05,2.3
		c-0.65,0-1.04-0.34-1.24-0.49v0.4h-0.95V102.94z M272.79,105.46c-0.66,0-1.13,0.45-1.13,1.35c0,0.9,0.46,1.35,1.13,1.35
		s1.17-0.45,1.17-1.35C273.96,105.85,273.44,105.46,272.79,105.46z"/>
	<path d="M276.87,102.94v6.12h-1.03v-6.12H276.87z"/>
	<path d="M278.98,102.85v1.08h-1.03v-1.08H278.98z M278.98,104.56v4.5h-1.03v-4.5H278.98z"/>
	<path d="M281.23,102.94v1.62h0.63v0.99h-0.63v2.32c0,0.27,0.18,0.34,0.36,0.34c0.16,0,0.27-0.04,0.33-0.07v0.9
		c-0.08,0.03-0.3,0.11-0.71,0.11c-0.68,0-0.97-0.41-0.97-0.85v-2.75h-0.54v-0.99h0.54v-1.62H281.23z"/>
	<path d="M286.9,108.12c0.12,0,0.23-0.02,0.4-0.05v0.99c-0.31,0.04-0.48,0.05-0.64,0.05c-0.55,0-0.81-0.12-1.02-0.47
		c-0.16,0.13-0.61,0.5-1.4,0.5c-1.01,0-1.76-0.7-1.76-1.49c0-1.03,0.86-1.44,2.11-1.44h0.86V106c0-0.49-0.38-0.81-0.92-0.81
		c-0.56,0-0.85,0.28-0.85,0.81h-1.1c0-0.97,0.86-1.53,1.97-1.53c1.02,0,1.88,0.46,1.88,1.43v1.84
		C286.44,108.01,286.62,108.12,286.9,108.12z M284.39,108.43c0.74,0,1.06-0.63,1.06-0.99v-0.45c-1.57-0.07-1.85,0.29-1.85,0.77
		C283.59,108.12,283.9,108.43,284.39,108.43z"/>
	<path d="M290.46,109.06v-2.97c0-0.42-0.32-0.68-0.78-0.68c-0.73,0-0.9,0.64-0.9,1.12v2.52h-1.03v-4.5h0.99v0.36
		c0.37-0.29,0.84-0.45,1.3-0.45c0.78,0,1.45,0.41,1.45,1.4v3.19H290.46z"/>
	<path d="M295.54,102.94v6.12h-1.03v-6.12H295.54z"/>
	<path d="M300.78,108.12c0.12,0,0.23-0.02,0.4-0.05v0.99c-0.31,0.04-0.48,0.05-0.64,0.05c-0.55,0-0.81-0.12-1.02-0.47
		c-0.16,0.13-0.61,0.5-1.4,0.5c-1.01,0-1.76-0.7-1.76-1.49c0-1.03,0.86-1.44,2.11-1.44h0.86V106c0-0.49-0.38-0.81-0.92-0.81
		c-0.56,0-0.85,0.28-0.85,0.81h-1.1c0-0.97,0.86-1.53,1.97-1.53c1.02,0,1.88,0.46,1.88,1.43v1.84
		C300.33,108.01,300.51,108.12,300.78,108.12z M298.27,108.43c0.74,0,1.06-0.63,1.06-0.99v-0.45c-1.57-0.07-1.85,0.29-1.85,0.77
		C297.48,108.12,297.79,108.43,298.27,108.43z"/>
	<path d="M145.69,116.24c-0.66,0-1.04,0.27-1.04,1.36v2.26h-1.03v-4.5h0.99v0.5c0.25-0.31,0.56-0.59,1.13-0.59
		c0.27,0,0.52,0.05,0.72,0.14l-0.05,0.99C146.2,116.31,146.03,116.24,145.69,116.24z"/>
	<path d="M148.71,115.27c1.26,0,2.04,0.9,2.11,2.57h-3.2c0.08,0.78,0.55,1.12,1.15,1.12c0.69,0,0.91-0.43,1-0.63h0.99
		c-0.05,0.61-0.63,1.62-1.98,1.62c-1.31,0-2.16-1.08-2.16-2.3C146.63,116.43,147.45,115.27,148.71,115.27z M147.7,116.94h2.06
		c-0.06-0.55-0.43-0.86-1.01-0.86C148.27,116.08,147.86,116.34,147.7,116.94z"/>
	<path d="M152.6,115.36v0.4c0.2-0.14,0.59-0.49,1.24-0.49c1.31,0,2.05,1.15,2.05,2.3c0,1.3-0.7,2.38-2.02,2.38
		c-0.65,0-1.03-0.27-1.24-0.41v1.94h-0.99v-6.12H152.6z M153.74,116.26c-0.68,0-1.13,0.45-1.13,1.35c0,0.9,0.48,1.35,1.13,1.35
		s1.17-0.4,1.17-1.35C154.91,116.71,154.41,116.26,153.74,116.26z"/>
	<path d="M158.87,116.24c-0.66,0-1.04,0.27-1.04,1.36v2.26h-1.03v-4.5h0.99v0.5c0.25-0.31,0.56-0.59,1.13-0.59
		c0.27,0,0.52,0.05,0.72,0.14l-0.05,0.99C159.38,116.31,159.21,116.24,158.87,116.24z"/>
	<path d="M161.89,115.27c1.26,0,2.04,0.9,2.11,2.57h-3.2c0.08,0.78,0.55,1.12,1.15,1.12c0.69,0,0.91-0.43,1-0.63h0.99
		c-0.05,0.61-0.63,1.62-1.98,1.62c-1.31,0-2.16-1.08-2.16-2.3C159.8,116.43,160.63,115.27,161.89,115.27z M160.87,116.94h2.06
		c-0.06-0.55-0.43-0.86-1.01-0.86C161.45,116.08,161.03,116.34,160.87,116.94z"/>
	<path d="M166.37,116.03c-0.52,0-0.7,0.23-0.7,0.47c0,0.76,2.67,0.2,2.67,1.94c0,0.85-0.61,1.5-1.85,1.5
		c-1.61,0-1.93-0.99-1.93-1.53h1.03c0.07,0.35,0.31,0.72,0.98,0.72c0.5,0,0.78-0.19,0.78-0.57c0-0.89-2.67-0.22-2.67-1.94
		c0-0.7,0.47-1.37,1.78-1.37c1.42,0,1.8,0.94,1.8,1.39h-1.03C167.25,116.25,166.91,116.03,166.37,116.03z"/>
	<path d="M171.01,115.27c1.26,0,2.04,0.9,2.11,2.57h-3.2c0.08,0.78,0.55,1.12,1.15,1.12c0.69,0,0.91-0.43,1-0.63h0.99
		c-0.05,0.61-0.63,1.62-1.98,1.62c-1.31,0-2.16-1.08-2.16-2.3C168.92,116.43,169.75,115.27,171.01,115.27z M169.99,116.94h2.06
		c-0.06-0.55-0.43-0.86-1.01-0.86C170.57,116.08,170.15,116.34,169.99,116.94z"/>
	<path d="M176.65,119.86v-2.97c0-0.42-0.32-0.68-0.78-0.68c-0.73,0-0.9,0.64-0.9,1.12v2.52h-1.03v-4.5h0.99v0.36
		c0.37-0.29,0.84-0.45,1.3-0.45c0.78,0,1.45,0.41,1.45,1.4v3.19H176.65z"/>
	<path d="M179.89,113.74v1.62h0.63v0.99h-0.63v2.32c0,0.27,0.18,0.34,0.36,0.34c0.16,0,0.27-0.04,0.33-0.07v0.9
		c-0.08,0.03-0.3,0.11-0.71,0.11c-0.68,0-0.97-0.41-0.97-0.85v-2.75h-0.54v-0.99h0.54v-1.62H179.89z"/>
	<path d="M185.56,118.92c0.12,0,0.23-0.02,0.4-0.05v0.99c-0.31,0.04-0.48,0.05-0.64,0.05c-0.55,0-0.81-0.12-1.02-0.47
		c-0.16,0.13-0.61,0.5-1.4,0.5c-1.01,0-1.76-0.7-1.76-1.49c0-1.03,0.86-1.44,2.11-1.44h0.86v-0.22c0-0.49-0.38-0.81-0.92-0.81
		c-0.56,0-0.85,0.28-0.85,0.81h-1.1c0-0.97,0.86-1.53,1.97-1.53c1.02,0,1.88,0.46,1.88,1.43v1.84
		C185.1,118.81,185.28,118.92,185.56,118.92z M183.05,119.23c0.74,0,1.06-0.63,1.06-0.99v-0.45c-1.57-0.07-1.85,0.29-1.85,0.77
		C182.26,118.92,182.56,119.23,183.05,119.23z"/>
	<path d="M188.34,115.27c1.57,0,1.93,1.37,2.05,1.98h-1.04c-0.09-0.56-0.37-0.99-1.04-0.99c-0.58,0-1.08,0.45-1.08,1.35
		c0,0.95,0.55,1.35,1.15,1.35c0.68,0,0.9-0.49,1.06-0.9h0.94c0,0.76-0.67,1.89-2.09,1.89c-1.24,0-2.05-1.08-2.05-2.3
		C186.23,116.25,187.12,115.27,188.34,115.27z"/>
	<path d="M192.28,113.65v1.08h-1.03v-1.08H192.28z M192.28,115.36v4.5h-1.03v-4.5H192.28z"/>
	<path d="M195.34,115.27c1.35,0,2.16,1.16,2.16,2.38c0,1.13-0.72,2.3-2.16,2.3s-2.16-1.17-2.16-2.3
		C193.18,116.43,193.99,115.27,195.34,115.27z M195.34,116.26c-0.71,0-1.17,0.54-1.17,1.35c0,0.86,0.48,1.35,1.17,1.35
		c0.69,0,1.17-0.49,1.17-1.35C196.51,116.8,196.05,116.26,195.34,116.26z M196.69,113.65l-1.03,1.26h-0.9l0.27-1.26H196.69z"/>
	<path d="M201.11,119.86v-2.97c0-0.42-0.32-0.68-0.78-0.68c-0.73,0-0.9,0.64-0.9,1.12v2.52h-1.03v-4.5h0.99v0.36
		c0.37-0.29,0.84-0.45,1.3-0.45c0.78,0,1.45,0.41,1.45,1.4v3.19H201.11z"/>
	<path d="M208.28,119.86v-0.4c-0.2,0.14-0.59,0.49-1.24,0.49c-1.31,0-2.05-1.15-2.05-2.3c0-1.3,0.7-2.38,2.02-2.38
		c0.65,0,1.03,0.27,1.24,0.41v-1.94h0.99v6.12H208.28z M207.14,118.96c0.68,0,1.13-0.45,1.13-1.35c0-0.9-0.48-1.35-1.13-1.35
		c-0.66,0-1.17,0.4-1.17,1.35C205.97,118.51,206.47,118.96,207.14,118.96z"/>
	<path d="M212.17,115.27c1.26,0,2.04,0.9,2.11,2.57h-3.2c0.08,0.78,0.55,1.12,1.15,1.12c0.69,0,0.91-0.43,1-0.63h0.99
		c-0.05,0.61-0.63,1.62-1.98,1.62c-1.31,0-2.16-1.08-2.16-2.3C210.08,116.43,210.91,115.27,212.17,115.27z M211.15,116.94h2.06
		c-0.06-0.55-0.43-0.86-1.01-0.86C211.73,116.08,211.32,116.34,211.15,116.94z"/>
	<path d="M218.08,115.36v2.97c0,0.54,0.35,0.81,0.79,0.81c0.73,0,0.89-0.72,0.89-1.26v-2.52h1.03v4.5h-0.99v-0.36
		c-0.16,0.13-0.57,0.45-1.29,0.45c-0.78,0-1.46-0.5-1.46-1.49v-3.1H218.08z"/>
	<path d="M224.57,119.86v-2.97c0-0.42-0.32-0.68-0.78-0.68c-0.73,0-0.9,0.64-0.9,1.12v2.52h-1.03v-4.5h0.99v0.36
		c0.37-0.29,0.84-0.45,1.3-0.45c0.78,0,1.45,0.41,1.45,1.4v3.19H224.57z"/>
	<path d="M230.49,115.27c1.26,0,2.04,0.9,2.11,2.57h-3.2c0.08,0.78,0.55,1.12,1.15,1.12c0.69,0,0.91-0.43,1-0.63h0.99
		c-0.05,0.61-0.63,1.62-1.98,1.62c-1.31,0-2.16-1.08-2.16-2.3C228.4,116.43,229.23,115.27,230.49,115.27z M229.47,116.94h2.06
		c-0.06-0.55-0.43-0.86-1.01-0.86C230.04,116.08,229.63,116.34,229.47,116.94z"/>
	<path d="M235.35,115.27c1.57,0,1.93,1.37,2.05,1.98h-1.04c-0.09-0.56-0.37-0.99-1.04-0.99c-0.58,0-1.08,0.45-1.08,1.35
		c0,0.95,0.55,1.35,1.15,1.35c0.68,0,0.9-0.49,1.06-0.9h0.94c0,0.76-0.67,1.89-2.09,1.89c-1.24,0-2.05-1.08-2.05-2.3
		C233.24,116.25,234.12,115.27,235.35,115.27z"/>
	<path d="M240.24,115.27c1.35,0,2.16,1.16,2.16,2.38c0,1.13-0.72,2.3-2.16,2.3s-2.16-1.17-2.16-2.3
		C238.08,116.43,238.89,115.27,240.24,115.27z M240.24,116.26c-0.71,0-1.17,0.54-1.17,1.35c0,0.86,0.48,1.35,1.17,1.35
		c0.69,0,1.17-0.49,1.17-1.35C241.41,116.8,240.95,116.26,240.24,116.26z"/>
	<path d="M244.85,116.03c-0.52,0-0.7,0.23-0.7,0.47c0,0.76,2.67,0.2,2.67,1.94c0,0.85-0.61,1.5-1.85,1.5
		c-1.61,0-1.93-0.99-1.93-1.53h1.03c0.07,0.35,0.31,0.72,0.98,0.72c0.5,0,0.78-0.19,0.78-0.57c0-0.89-2.67-0.22-2.67-1.94
		c0-0.7,0.47-1.37,1.78-1.37c1.42,0,1.8,0.94,1.8,1.39h-1.03C245.73,116.25,245.39,116.03,244.85,116.03z"/>
	<path d="M248.65,113.65v1.08h-1.03v-1.08H248.65z M248.65,115.36v4.5h-1.03v-4.5H248.65z"/>
	<path d="M251.28,116.03c-0.52,0-0.7,0.23-0.7,0.47c0,0.76,2.67,0.2,2.67,1.94c0,0.85-0.61,1.5-1.85,1.5
		c-1.61,0-1.93-0.99-1.93-1.53h1.03c0.07,0.35,0.31,0.72,0.98,0.72c0.5,0,0.78-0.19,0.78-0.57c0-0.89-2.67-0.22-2.67-1.94
		c0-0.7,0.47-1.37,1.78-1.37c1.42,0,1.8,0.94,1.8,1.39h-1.03C252.16,116.25,251.82,116.03,251.28,116.03z"/>
	<path d="M255.22,113.74v1.62h0.63v0.99h-0.63v2.32c0,0.27,0.18,0.34,0.36,0.34c0.16,0,0.27-0.04,0.33-0.07v0.9
		c-0.08,0.03-0.3,0.11-0.71,0.11c-0.68,0-0.97-0.41-0.97-0.85v-2.75h-0.54v-0.99h0.54v-1.62H255.22z"/>
	<path d="M258.58,115.27c1.26,0,2.04,0.9,2.11,2.57h-3.2c0.08,0.78,0.55,1.12,1.15,1.12c0.69,0,0.91-0.43,1-0.63h0.99
		c-0.05,0.61-0.63,1.62-1.98,1.62c-1.31,0-2.16-1.08-2.16-2.3C256.49,116.43,257.32,115.27,258.58,115.27z M257.57,116.94h2.06
		c-0.06-0.55-0.43-0.86-1.01-0.86C258.14,116.08,257.73,116.34,257.57,116.94z"/>
	<path d="M264.15,119.86v-2.97c0-0.42-0.31-0.68-0.75-0.68c-0.73,0-0.86,0.73-0.86,1.22v2.43h-1.03v-4.5h0.99v0.36
		c0.16-0.13,0.54-0.45,1.26-0.45c0.52,0,0.97,0.18,1.22,0.59c0.2-0.2,0.64-0.59,1.42-0.59s1.41,0.41,1.41,1.4v3.19h-1.03v-2.97
		c0-0.42-0.31-0.68-0.75-0.68c-0.73,0-0.86,0.73-0.86,1.22v2.43H264.15z"/>
	<path d="M273.03,118.92c0.12,0,0.23-0.02,0.4-0.05v0.99c-0.31,0.04-0.48,0.05-0.64,0.05c-0.55,0-0.81-0.12-1.02-0.47
		c-0.16,0.13-0.61,0.5-1.4,0.5c-1.01,0-1.76-0.7-1.76-1.49c0-1.03,0.86-1.44,2.11-1.44h0.86v-0.22c0-0.49-0.38-0.81-0.92-0.81
		c-0.56,0-0.85,0.28-0.85,0.81h-1.1c0-0.97,0.86-1.53,1.97-1.53c1.02,0,1.88,0.46,1.88,1.43v1.84
		C272.57,118.81,272.75,118.92,273.03,118.92z M270.52,119.23c0.74,0,1.06-0.63,1.06-0.99v-0.45c-1.57-0.07-1.85,0.29-1.85,0.77
		C269.72,118.92,270.03,119.23,270.52,119.23z"/>
	<path d="M275.19,118.6v1.26h-1.26v-1.26H275.19z"/>
</g>
<g>
	<path d="M320.78,44.9c0-3.29,1.72-4.9,3.81-4.9c2.1,0,3.84,1.61,3.84,4.9c0,3.29-1.75,4.9-3.84,4.9
		C322.52,49.8,320.78,48.19,320.78,44.9z M326.68,44.9c0-1.89-0.67-3.18-2.09-3.18c-1.41,0-2.07,1.29-2.07,3.18s0.66,3.18,2.07,3.18
		C326,48.08,326.68,46.79,326.68,44.9z"/>
	<path d="M332.44,46.16c0.01,2-0.48,3.6-1.57,5.81h-1.4c1.02-2.1,1.56-4.01,1.56-5.83c0-1.82-0.66-4.22-1.56-5.8h1.4
		C331.81,42,332.43,44.16,332.44,46.16z"/>
	<path d="M343.6,48.2c0.18,0,0.36-0.03,0.63-0.08v1.54c-0.49,0.07-0.74,0.08-0.99,0.08c-0.85,0-1.26-0.18-1.58-0.73
		c-0.25,0.2-0.95,0.78-2.19,0.78c-1.57,0-2.75-1.09-2.75-2.33c0-1.6,1.34-2.24,3.28-2.24h1.34V44.9c0-0.76-0.59-1.26-1.43-1.26
		c-0.87,0-1.32,0.43-1.32,1.26h-1.71c0-1.51,1.34-2.38,3.07-2.38c1.58,0,2.93,0.71,2.93,2.23v2.86
		C342.89,48.02,343.17,48.2,343.6,48.2z M339.69,48.68c1.15,0,1.65-0.98,1.65-1.54v-0.7c-2.44-0.11-2.89,0.45-2.89,1.2
		C338.46,48.2,338.94,48.68,339.69,48.68z"/>
	<path d="M346.53,40.13v9.53h-1.6v-9.53H346.53z"/>
	<path d="M352.83,48.79c-0.34,0.27-0.94,0.59-1.79,0.59c-2.04,0-3.11-1.54-3.11-3.31c0-1.89,1.23-3.56,3.03-3.56
		c1.04,0,1.62,0.39,1.93,0.64v-0.5h1.48v6.86c0,1.79-1.06,2.8-3.11,2.8c-1.99,0-3.28-0.87-3.28-2.38h1.6
		c0.17,0.46,0.39,1.12,1.65,1.12c1.12,0,1.6-0.56,1.6-1.4V48.79z M351.2,48.12c1.02,0,1.68-0.7,1.68-2.04
		c0-1.26-0.63-2.02-1.68-2.02c-1.05,0-1.74,0.76-1.74,2.02C349.47,47.42,350.18,48.12,351.2,48.12z"/>
	<path d="M357.59,42.66v4.62c0,0.84,0.55,1.26,1.23,1.26c1.13,0,1.39-1.12,1.39-1.96v-3.92h1.6v7h-1.54V49.1
		c-0.25,0.2-0.88,0.7-2,0.7c-1.22,0-2.27-0.78-2.27-2.33v-4.82H357.59z"/>
	<path d="M367.69,49.66v-4.62c0-0.66-0.5-1.05-1.22-1.05c-1.13,0-1.4,0.99-1.4,1.75v3.92h-1.6v-7h1.54v0.56
		c0.57-0.45,1.3-0.7,2.02-0.7c1.22,0,2.26,0.64,2.26,2.19v4.96H367.69z"/>
	<path d="M377.4,48.2c0.18,0,0.36-0.03,0.63-0.08v1.54c-0.49,0.07-0.74,0.08-0.99,0.08c-0.85,0-1.26-0.18-1.58-0.73
		c-0.25,0.2-0.95,0.78-2.19,0.78c-1.57,0-2.75-1.09-2.75-2.33c0-1.6,1.34-2.24,3.28-2.24h1.34V44.9c0-0.76-0.59-1.26-1.43-1.26
		c-0.87,0-1.32,0.43-1.32,1.26h-1.71c0-1.51,1.34-2.38,3.07-2.38c1.58,0,2.93,0.71,2.93,2.23v2.86
		C376.68,48.02,376.96,48.2,377.4,48.2z M373.49,48.68c1.15,0,1.65-0.98,1.65-1.54v-0.7c-2.44-0.11-2.89,0.45-2.89,1.2
		C372.26,48.2,372.73,48.68,373.49,48.68z"/>
	<path d="M381.13,43.71c-0.81,0-1.09,0.36-1.09,0.73c0,1.18,4.15,0.31,4.15,3.03c0,1.32-0.95,2.34-2.89,2.34c-2.51,0-3-1.54-3-2.38
		h1.6c0.11,0.55,0.48,1.12,1.53,1.12c0.77,0,1.22-0.29,1.22-0.88c0-1.39-4.15-0.35-4.15-3.01c0-1.09,0.73-2.13,2.77-2.13
		c2.21,0,2.8,1.46,2.8,2.16h-1.6C382.51,44.04,381.97,43.71,381.13,43.71z"/>
	<path d="M391.58,39.42h1.33l-4.33,11.81h-1.33L391.58,39.42z"/>
	<path d="M395.33,42.52c2.44,0,3,2.13,3.19,3.08h-1.62c-0.14-0.87-0.57-1.54-1.62-1.54c-0.91,0-1.68,0.7-1.68,2.1
		c0,1.48,0.85,2.1,1.79,2.1c1.06,0,1.4-0.76,1.65-1.4h1.46c0,1.18-1.04,2.94-3.25,2.94c-1.93,0-3.19-1.68-3.19-3.59
		C392.05,44.04,393.42,42.52,395.33,42.52z"/>
	<path d="M406.35,48.2c0.18,0,0.36-0.03,0.63-0.08v1.54c-0.49,0.07-0.74,0.08-0.99,0.08c-0.85,0-1.26-0.18-1.58-0.73
		c-0.25,0.2-0.95,0.78-2.19,0.78c-1.57,0-2.75-1.09-2.75-2.33c0-1.6,1.34-2.24,3.28-2.24h1.34V44.9c0-0.76-0.59-1.26-1.43-1.26
		c-0.87,0-1.32,0.43-1.32,1.26h-1.71c0-1.51,1.34-2.38,3.07-2.38c1.58,0,2.93,0.71,2.93,2.23v2.86
		C405.63,48.02,405.92,48.2,406.35,48.2z M402.44,48.68c1.15,0,1.65-0.98,1.65-1.54v-0.7c-2.44-0.11-2.88,0.45-2.88,1.2
		C401.21,48.2,401.69,48.68,402.44,48.68z"/>
	<path d="M409.36,40.13v2.52h0.98v1.54h-0.98v3.61c0,0.42,0.28,0.53,0.56,0.53c0.25,0,0.42-0.06,0.52-0.11v1.4
		c-0.13,0.04-0.46,0.17-1.11,0.17c-1.06,0-1.51-0.64-1.51-1.32V44.2h-0.84v-1.54h0.84v-2.52H409.36z"/>
	<path d="M414.59,42.52c1.96,0,3.18,1.4,3.28,4.01h-4.97c0.13,1.22,0.86,1.74,1.79,1.74c1.08,0,1.42-0.67,1.56-0.98h1.54
		c-0.08,0.95-0.98,2.52-3.08,2.52c-2.04,0-3.36-1.68-3.36-3.59C411.34,44.32,412.63,42.52,414.59,42.52z M413.01,45.12h3.21
		c-0.1-0.85-0.67-1.34-1.57-1.34C413.91,43.78,413.26,44.18,413.01,45.12z"/>
	<path d="M423.78,48.79c-0.34,0.27-0.94,0.59-1.79,0.59c-2.04,0-3.11-1.54-3.11-3.31c0-1.89,1.23-3.56,3.03-3.56
		c1.04,0,1.62,0.39,1.93,0.64v-0.5h1.49v6.86c0,1.79-1.07,2.8-3.11,2.8c-1.99,0-3.28-0.87-3.28-2.38h1.6
		c0.17,0.46,0.39,1.12,1.65,1.12c1.12,0,1.6-0.56,1.6-1.4V48.79z M422.15,48.12c1.02,0,1.68-0.7,1.68-2.04
		c0-1.26-0.63-2.02-1.68-2.02s-1.74,0.76-1.74,2.02C420.42,47.42,421.13,48.12,422.15,48.12z"/>
	<path d="M430.08,42.52c2.1,0,3.36,1.81,3.36,3.7c0,1.77-1.12,3.59-3.36,3.59s-3.36-1.82-3.36-3.59
		C426.72,44.32,427.98,42.52,430.08,42.52z M430.08,44.06c-1.11,0-1.82,0.84-1.82,2.1c0,1.34,0.74,2.1,1.82,2.1s1.82-0.76,1.82-2.1
		C431.9,44.9,431.18,44.06,430.08,44.06z"/>
	<path d="M438.06,44.03c-1.02,0-1.62,0.42-1.62,2.11v3.52h-1.6v-7h1.54v0.78c0.39-0.48,0.87-0.92,1.76-0.92
		c0.42,0,0.81,0.08,1.12,0.22l-0.08,1.54C438.86,44.14,438.59,44.03,438.06,44.03z"/>
	<path d="M441.74,40v1.68h-1.6V40H441.74z M441.74,42.66v7h-1.6v-7H441.74z"/>
	<path d="M449.9,48.2c0.18,0,0.36-0.03,0.63-0.08v1.54c-0.49,0.07-0.74,0.08-1,0.08c-0.85,0-1.26-0.18-1.58-0.73
		c-0.25,0.2-0.95,0.78-2.19,0.78c-1.57,0-2.75-1.09-2.75-2.33c0-1.6,1.35-2.24,3.28-2.24h1.34V44.9c0-0.76-0.59-1.26-1.43-1.26
		c-0.87,0-1.32,0.43-1.32,1.26h-1.71c0-1.51,1.35-2.38,3.07-2.38c1.58,0,2.93,0.71,2.93,2.23v2.86
		C449.19,48.02,449.47,48.2,449.9,48.2z M446,48.68c1.15,0,1.65-0.98,1.65-1.54v-0.7c-2.44-0.11-2.89,0.45-2.89,1.2
		C444.76,48.2,445.24,48.68,446,48.68z"/>
	<path d="M453.64,43.71c-0.81,0-1.09,0.36-1.09,0.73c0,1.18,4.15,0.31,4.15,3.03c0,1.32-0.95,2.34-2.89,2.34c-2.51,0-3-1.54-3-2.38
		h1.6c0.11,0.55,0.48,1.12,1.53,1.12c0.77,0,1.22-0.29,1.22-0.88c0-1.39-4.15-0.35-4.15-3.01c0-1.09,0.73-2.13,2.77-2.13
		c2.21,0,2.8,1.46,2.8,2.16h-1.6C455.01,44.04,454.48,43.71,453.64,43.71z"/>
	<path d="M462.51,42.66v0.62c0.31-0.22,0.92-0.76,1.93-0.76c2.04,0,3.19,1.79,3.19,3.59c0,2.02-1.09,3.7-3.14,3.7
		c-1.01,0-1.6-0.42-1.93-0.64v3.03h-1.54v-9.53H462.51z M464.28,44.06c-1.05,0-1.77,0.7-1.77,2.1s0.74,2.1,1.77,2.1
		s1.82-0.62,1.82-2.1C466.1,44.76,465.33,44.06,464.28,44.06z"/>
	<path d="M472.12,42.52c2.1,0,3.36,1.81,3.36,3.7c0,1.77-1.12,3.59-3.36,3.59s-3.36-1.82-3.36-3.59
		C468.76,44.32,470.02,42.52,472.12,42.52z M472.12,44.06c-1.11,0-1.82,0.84-1.82,2.1c0,1.34,0.74,2.1,1.82,2.1s1.82-0.76,1.82-2.1
		C473.94,44.9,473.23,44.06,472.12,44.06z"/>
	<path d="M479.29,43.71c-0.81,0-1.09,0.36-1.09,0.73c0,1.18,4.15,0.31,4.15,3.03c0,1.32-0.95,2.34-2.88,2.34c-2.51,0-3-1.54-3-2.38
		h1.6c0.11,0.55,0.48,1.12,1.53,1.12c0.77,0,1.22-0.29,1.22-0.88c0-1.39-4.15-0.35-4.15-3.01c0-1.09,0.73-2.13,2.77-2.13
		c2.21,0,2.8,1.46,2.8,2.16h-1.6C480.66,44.04,480.13,43.71,479.29,43.71z"/>
	<path d="M485.19,40v1.68h-1.6V40H485.19z M485.19,42.66v7h-1.6v-7H485.19z"/>
	<path d="M486.87,40.13h1.54v3.03c0.34-0.22,0.92-0.64,1.93-0.64c2.04,0,3.14,1.68,3.14,3.7c0,1.79-1.15,3.59-3.19,3.59
		c-1.01,0-1.62-0.53-1.93-0.76v0.62h-1.48V40.13z M490.12,44.06c-1.02,0-1.77,0.7-1.77,2.1s0.71,2.1,1.77,2.1
		c1.05,0,1.82-0.7,1.82-2.1C491.94,44.67,491.14,44.06,490.12,44.06z"/>
	<path d="M496.48,40.13v9.53h-1.6v-9.53H496.48z"/>
	<path d="M501.06,42.52c1.96,0,3.18,1.4,3.28,4.01h-4.97c0.13,1.22,0.85,1.74,1.79,1.74c1.08,0,1.41-0.67,1.55-0.98h1.54
		c-0.08,0.95-0.98,2.52-3.08,2.52c-2.04,0-3.36-1.68-3.36-3.59C497.81,44.32,499.09,42.52,501.06,42.52z M499.47,45.12h3.21
		c-0.1-0.85-0.67-1.34-1.57-1.34C500.37,43.78,499.72,44.18,499.47,45.12z"/>
	<path d="M508.03,43.71c-0.81,0-1.09,0.36-1.09,0.73c0,1.18,4.15,0.31,4.15,3.03c0,1.32-0.95,2.34-2.89,2.34c-2.51,0-3-1.54-3-2.38
		h1.6c0.11,0.55,0.48,1.12,1.53,1.12c0.77,0,1.22-0.29,1.22-0.88c0-1.39-4.15-0.35-4.15-3.01c0-1.09,0.73-2.13,2.77-2.13
		c2.21,0,2.8,1.46,2.8,2.16h-1.6C509.4,44.04,508.87,43.71,508.03,43.71z"/>
</g>
<g>
	<path d="M549.92,239.52c2.44,0,3,2.13,3.19,3.08h-1.62c-0.14-0.87-0.57-1.54-1.62-1.54c-0.91,0-1.68,0.7-1.68,2.1
		c0,1.48,0.86,2.1,1.79,2.1c1.06,0,1.4-0.76,1.65-1.4h1.46c0,1.18-1.04,2.94-3.25,2.94c-1.93,0-3.19-1.68-3.19-3.59
		C546.64,241.04,548.01,239.52,549.92,239.52z"/>
	<path d="M556.37,243.16c0.01,2-0.48,3.6-1.57,5.81h-1.4c1.02-2.1,1.56-4.01,1.56-5.83c0-1.82-0.66-4.22-1.56-5.8h1.4
		C555.74,239,556.36,241.16,556.37,243.16z"/>
	<path d="M567.53,245.2c0.18,0,0.36-0.03,0.63-0.08v1.54c-0.49,0.07-0.74,0.08-0.99,0.08c-0.85,0-1.26-0.18-1.58-0.73
		c-0.25,0.2-0.95,0.79-2.18,0.79c-1.57,0-2.75-1.09-2.75-2.33c0-1.6,1.34-2.24,3.28-2.24h1.35v-0.34c0-0.76-0.59-1.26-1.43-1.26
		c-0.87,0-1.32,0.43-1.32,1.26h-1.71c0-1.51,1.34-2.38,3.07-2.38c1.58,0,2.93,0.71,2.93,2.23v2.86
		C566.82,245.02,567.1,245.2,567.53,245.2z M563.62,245.68c1.15,0,1.65-0.98,1.65-1.54v-0.7c-2.44-0.11-2.89,0.45-2.89,1.2
		C562.39,245.2,562.87,245.68,563.62,245.68z"/>
	<path d="M572.08,241.03c-1.02,0-1.62,0.42-1.62,2.12v3.52h-1.6v-7h1.54v0.79c0.39-0.48,0.87-0.93,1.76-0.93
		c0.42,0,0.81,0.08,1.12,0.22l-0.08,1.54C572.88,241.14,572.61,241.03,572.08,241.03z"/>
	<path d="M580.21,249.18h-1.54v-3.03c-0.34,0.22-0.92,0.64-1.93,0.64c-2.04,0-3.14-1.68-3.14-3.7c0-1.79,1.15-3.59,3.19-3.59
		c1.01,0,1.62,0.53,1.93,0.76v-0.62h1.49V249.18z M576.96,245.26c1.02,0,1.76-0.7,1.76-2.1s-0.71-2.1-1.76-2.1s-1.82,0.7-1.82,2.1
		C575.14,244.64,575.94,245.26,576.96,245.26z"/>
	<path d="M583.43,239.66v4.62c0,0.84,0.55,1.26,1.23,1.26c1.13,0,1.39-1.12,1.39-1.96v-3.92h1.6v7h-1.54v-0.56
		c-0.25,0.2-0.88,0.7-2,0.7c-1.22,0-2.27-0.79-2.27-2.33v-4.82H583.43z"/>
	<path d="M590.92,237v1.68h-1.6V237H590.92z M590.92,239.66v7h-1.6v-7H590.92z"/>
	<path d="M594.42,237.13v2.52h0.98v1.54h-0.98v3.61c0,0.42,0.28,0.53,0.56,0.53c0.25,0,0.42-0.06,0.52-0.11v1.4
		c-0.13,0.04-0.46,0.17-1.11,0.17c-1.06,0-1.51-0.64-1.51-1.32v-4.29h-0.84v-1.54h0.84v-2.52H594.42z"/>
	<path d="M599.66,239.52c1.96,0,3.18,1.4,3.28,4.01h-4.97c0.13,1.22,0.85,1.74,1.79,1.74c1.08,0,1.42-0.67,1.55-0.98h1.54
		c-0.08,0.95-0.98,2.52-3.08,2.52c-2.04,0-3.36-1.68-3.36-3.59C596.41,241.32,597.7,239.52,599.66,239.52z M598.08,242.12h3.21
		c-0.1-0.85-0.67-1.34-1.57-1.34C598.97,240.78,598.33,241.18,598.08,242.12z"/>
	<path d="M607.22,239.52c2.44,0,3,2.13,3.19,3.08h-1.62c-0.14-0.87-0.57-1.54-1.62-1.54c-0.91,0-1.68,0.7-1.68,2.1
		c0,1.48,0.86,2.1,1.79,2.1c1.06,0,1.4-0.76,1.65-1.4h1.46c0,1.18-1.04,2.94-3.25,2.94c-1.93,0-3.19-1.68-3.19-3.59
		C603.94,241.04,605.31,239.52,607.22,239.52z"/>
	<path d="M613.57,237.13v2.52h0.98v1.54h-0.98v3.61c0,0.42,0.28,0.53,0.56,0.53c0.25,0,0.42-0.06,0.52-0.11v1.4
		c-0.13,0.04-0.46,0.17-1.11,0.17c-1.06,0-1.51-0.64-1.51-1.32v-4.29h-0.84v-1.54h0.84v-2.52H613.57z"/>
	<path d="M617.45,239.66v4.62c0,0.84,0.55,1.26,1.23,1.26c1.13,0,1.39-1.12,1.39-1.96v-3.92h1.6v7h-1.54v-0.56
		c-0.25,0.2-0.88,0.7-2,0.7c-1.22,0-2.27-0.79-2.27-2.33v-4.82H617.45z"/>
	<path d="M626.57,241.03c-1.02,0-1.62,0.42-1.62,2.12v3.52h-1.6v-7h1.54v0.79c0.39-0.48,0.87-0.93,1.76-0.93
		c0.42,0,0.81,0.08,1.12,0.22l-0.08,1.54C627.36,241.14,627.1,241.03,626.57,241.03z"/>
	<path d="M635.14,245.2c0.18,0,0.36-0.03,0.63-0.08v1.54c-0.49,0.07-0.74,0.08-0.99,0.08c-0.85,0-1.26-0.18-1.58-0.73
		c-0.25,0.2-0.95,0.79-2.18,0.79c-1.57,0-2.75-1.09-2.75-2.33c0-1.6,1.34-2.24,3.28-2.24h1.35v-0.34c0-0.76-0.59-1.26-1.43-1.26
		c-0.87,0-1.32,0.43-1.32,1.26h-1.71c0-1.51,1.34-2.38,3.07-2.38c1.58,0,2.93,0.71,2.93,2.23v2.86
		C634.42,245.02,634.7,245.2,635.14,245.2z M631.23,245.68c1.15,0,1.65-0.98,1.65-1.54v-0.7c-2.44-0.11-2.89,0.45-2.89,1.2
		C629.99,245.2,630.47,245.68,631.23,245.68z"/>
	<path d="M644.39,246.66v-0.62c-0.31,0.22-0.92,0.76-1.93,0.76c-2.04,0-3.19-1.79-3.19-3.59c0-2.02,1.09-3.7,3.14-3.7
		c1.01,0,1.6,0.42,1.93,0.64v-3.03h1.54v9.53H644.39z M642.62,245.26c1.05,0,1.77-0.7,1.77-2.1s-0.74-2.1-1.77-2.1
		c-1.02,0-1.82,0.62-1.82,2.1C640.8,244.56,641.57,245.26,642.62,245.26z"/>
	<path d="M650.45,239.52c1.96,0,3.18,1.4,3.28,4.01h-4.97c0.13,1.22,0.85,1.74,1.79,1.74c1.08,0,1.42-0.67,1.55-0.98h1.54
		c-0.08,0.95-0.98,2.52-3.08,2.52c-2.04,0-3.36-1.68-3.36-3.59C647.2,241.32,648.49,239.52,650.45,239.52z M648.87,242.12h3.21
		c-0.1-0.85-0.67-1.34-1.57-1.34C649.76,240.78,649.12,241.18,648.87,242.12z"/>
	<path d="M656.61,237.13v9.53h-1.6v-9.53H656.61z"/>
	<path d="M667.85,245.2c0.18,0,0.36-0.03,0.63-0.08v1.54c-0.49,0.07-0.74,0.08-0.99,0.08c-0.85,0-1.26-0.18-1.58-0.73
		c-0.25,0.2-0.95,0.79-2.18,0.79c-1.57,0-2.75-1.09-2.75-2.33c0-1.6,1.34-2.24,3.28-2.24h1.35v-0.34c0-0.76-0.59-1.26-1.43-1.26
		c-0.87,0-1.32,0.43-1.32,1.26h-1.71c0-1.51,1.34-2.38,3.07-2.38c1.58,0,2.93,0.71,2.93,2.23v2.86
		C667.14,245.02,667.42,245.2,667.85,245.2z M663.94,245.68c1.15,0,1.65-0.98,1.65-1.54v-0.7c-2.44-0.11-2.89,0.45-2.89,1.2
		C662.71,245.2,663.19,245.68,663.94,245.68z"/>
	<path d="M673.8,245.79c-0.34,0.27-0.94,0.59-1.79,0.59c-2.04,0-3.11-1.54-3.11-3.31c0-1.89,1.23-3.56,3.03-3.56
		c1.04,0,1.62,0.39,1.93,0.64v-0.5h1.48v6.86c0,1.79-1.06,2.8-3.11,2.8c-1.99,0-3.28-0.87-3.28-2.38h1.6
		c0.17,0.46,0.39,1.12,1.65,1.12c1.12,0,1.6-0.56,1.6-1.4V245.79z M672.18,245.12c1.02,0,1.68-0.7,1.68-2.04
		c0-1.26-0.63-2.02-1.68-2.02c-1.05,0-1.74,0.76-1.74,2.02C670.44,244.42,671.15,245.12,672.18,245.12z"/>
	<path d="M678.56,239.66v4.62c0,0.84,0.55,1.26,1.23,1.26c1.13,0,1.39-1.12,1.39-1.96v-3.92h1.6v7h-1.54v-0.56
		c-0.25,0.2-0.88,0.7-2,0.7c-1.22,0-2.27-0.79-2.27-2.33v-4.82H678.56z"/>
	<path d="M690.94,245.2c0.18,0,0.36-0.03,0.63-0.08v1.54c-0.49,0.07-0.74,0.08-0.99,0.08c-0.85,0-1.26-0.18-1.58-0.73
		c-0.25,0.2-0.95,0.79-2.18,0.79c-1.57,0-2.75-1.09-2.75-2.33c0-1.6,1.34-2.24,3.28-2.24h1.35v-0.34c0-0.76-0.59-1.26-1.43-1.26
		c-0.87,0-1.32,0.43-1.32,1.26h-1.71c0-1.51,1.34-2.38,3.07-2.38c1.58,0,2.93,0.71,2.93,2.23v2.86
		C690.22,245.02,690.5,245.2,690.94,245.2z M687.03,245.68c1.15,0,1.65-0.98,1.65-1.54v-0.7c-2.44-0.11-2.89,0.45-2.89,1.2
		C685.8,245.2,686.27,245.68,687.03,245.68z"/>
	<path d="M548.52,258.94c0-0.14-0.04-0.31-0.11-0.5l-2.33-6.78h1.68l1.61,5.15l1.67-5.15h1.68l-2.94,8.1
		c-0.32,0.88-1.26,1.57-2.3,1.57c-0.62,0-1.01-0.03-1.4-0.08v-1.48c0.34,0.06,1.01,0.08,1.54,0.08
		C548.04,259.84,548.52,259.44,548.52,258.94z"/>
	<path d="M561.41,258.66v-0.62c-0.31,0.22-0.92,0.76-1.93,0.76c-2.04,0-3.19-1.79-3.19-3.59c0-2.02,1.09-3.7,3.14-3.7
		c1.01,0,1.6,0.42,1.93,0.64v-3.03h1.54v9.53H561.41z M559.65,257.26c1.05,0,1.77-0.7,1.77-2.1s-0.74-2.1-1.77-2.1
		c-1.02,0-1.82,0.62-1.82,2.1C557.83,256.56,558.6,257.26,559.65,257.26z"/>
	<path d="M566.17,249v1.68h-1.6V249H566.17z M566.17,251.66v7h-1.6v-7H566.17z"/>
	<path d="M570.26,252.71c-0.81,0-1.09,0.36-1.09,0.73c0,1.18,4.15,0.31,4.15,3.03c0,1.32-0.95,2.34-2.89,2.34c-2.51,0-3-1.54-3-2.38
		h1.6c0.11,0.55,0.48,1.12,1.53,1.12c0.77,0,1.22-0.29,1.22-0.88c0-1.39-4.15-0.35-4.15-3.01c0-1.09,0.73-2.13,2.77-2.13
		c2.21,0,2.8,1.46,2.8,2.16h-1.6C571.63,253.04,571.1,252.71,570.26,252.71z"/>
	<path d="M577.47,251.52c1.96,0,3.18,1.4,3.28,4.01h-4.97c0.13,1.22,0.85,1.74,1.79,1.74c1.08,0,1.41-0.67,1.55-0.98h1.54
		c-0.08,0.95-0.98,2.52-3.08,2.52c-2.04,0-3.36-1.68-3.36-3.59C574.22,253.32,575.51,251.52,577.47,251.52z M575.88,254.12h3.21
		c-0.1-0.85-0.67-1.34-1.57-1.34C576.78,252.78,576.14,253.18,575.88,254.12z"/>
	<path d="M586.25,258.66v-4.62c0-0.66-0.5-1.05-1.22-1.05c-1.13,0-1.4,0.99-1.4,1.75v3.92h-1.6v-7h1.54v0.56
		c0.57-0.45,1.3-0.7,2.02-0.7c1.22,0,2.26,0.64,2.26,2.19v4.96H586.25z M583.95,249c0.84,0,1.4,0.7,1.89,0.7
		c0.44,0,0.59-0.35,0.5-0.74l1.15,0.14c0.1,1.39-0.66,1.86-1.44,1.86c-0.77,0-1.53-0.67-1.97-0.67c-0.27,0-0.45,0.15-0.39,0.5h-1.23
		C582.32,249.71,582.87,249,583.95,249z"/>
	<path d="M592.55,251.52c2.1,0,3.36,1.81,3.36,3.7c0,1.76-1.12,3.59-3.36,3.59s-3.36-1.82-3.36-3.59
		C589.18,253.32,590.45,251.52,592.55,251.52z M592.55,253.06c-1.11,0-1.82,0.84-1.82,2.1c0,1.34,0.74,2.1,1.82,2.1
		c1.08,0,1.82-0.76,1.82-2.1C594.37,253.9,593.65,253.06,592.55,253.06z"/>
	<path d="M605.23,258.66v-0.62c-0.31,0.22-0.92,0.76-1.93,0.76c-2.04,0-3.19-1.79-3.19-3.59c0-2.02,1.09-3.7,3.14-3.7
		c1.01,0,1.6,0.42,1.93,0.64v-3.03h1.54v9.53H605.23z M603.47,257.26c1.05,0,1.76-0.7,1.76-2.1s-0.74-2.1-1.76-2.1
		s-1.82,0.62-1.82,2.1C601.64,256.56,602.42,257.26,603.47,257.26z"/>
	<path d="M611.29,251.52c1.96,0,3.18,1.4,3.28,4.01h-4.97c0.13,1.22,0.86,1.74,1.79,1.74c1.08,0,1.42-0.67,1.56-0.98h1.54
		c-0.08,0.95-0.98,2.52-3.08,2.52c-2.04,0-3.36-1.68-3.36-3.59C608.04,253.32,609.33,251.52,611.29,251.52z M609.71,254.12h3.21
		c-0.1-0.85-0.67-1.34-1.57-1.34C610.61,252.78,609.96,253.18,609.71,254.12z"/>
	<path d="M621.93,251.52c2.44,0,3,2.13,3.19,3.08h-1.62c-0.14-0.87-0.57-1.54-1.62-1.54c-0.91,0-1.68,0.7-1.68,2.1
		c0,1.48,0.86,2.1,1.79,2.1c1.06,0,1.4-0.76,1.65-1.4h1.46c0,1.18-1.04,2.94-3.25,2.94c-1.93,0-3.19-1.68-3.19-3.59
		C618.65,253.04,620.03,251.52,621.93,251.52z"/>
	<path d="M629.55,251.52c2.1,0,3.36,1.81,3.36,3.7c0,1.76-1.12,3.59-3.36,3.59s-3.36-1.82-3.36-3.59
		C626.18,253.32,627.45,251.52,629.55,251.52z M629.55,253.06c-1.11,0-1.82,0.84-1.82,2.1c0,1.34,0.74,2.1,1.82,2.1
		s1.82-0.76,1.82-2.1C631.37,253.9,630.65,253.06,629.55,253.06z"/>
	<path d="M638.52,258.66v-4.62c0-0.66-0.5-1.05-1.22-1.05c-1.13,0-1.4,0.99-1.4,1.75v3.92h-1.6v-7h1.54v0.56
		c0.57-0.45,1.3-0.7,2.02-0.7c1.22,0,2.25,0.64,2.25,2.19v4.96H638.52z"/>
	<path d="M643.56,249.13v2.52h0.98v1.54h-0.98v3.61c0,0.42,0.28,0.53,0.56,0.53c0.25,0,0.42-0.06,0.52-0.11v1.4
		c-0.13,0.04-0.46,0.17-1.11,0.17c-1.06,0-1.51-0.64-1.51-1.32v-4.29h-0.84v-1.54h0.84v-2.52H643.56z"/>
	<path d="M648.8,251.52c1.96,0,3.18,1.4,3.28,4.01h-4.97c0.13,1.22,0.85,1.74,1.79,1.74c1.08,0,1.41-0.67,1.55-0.98h1.54
		c-0.08,0.95-0.98,2.52-3.08,2.52c-2.04,0-3.36-1.68-3.36-3.59C645.55,253.32,646.83,251.52,648.8,251.52z M647.21,254.12h3.21
		c-0.1-0.85-0.67-1.34-1.57-1.34C648.11,252.78,647.46,253.18,647.21,254.12z"/>
	<path d="M657.57,258.66v-4.62c0-0.66-0.5-1.05-1.22-1.05c-1.13,0-1.4,0.99-1.4,1.75v3.92h-1.6v-7h1.54v0.56
		c0.57-0.45,1.3-0.7,2.02-0.7c1.22,0,2.26,0.64,2.26,2.19v4.96H657.57z"/>
	<path d="M663.79,251.52c2.44,0,3,2.13,3.19,3.08h-1.62c-0.14-0.87-0.57-1.54-1.62-1.54c-0.91,0-1.68,0.7-1.68,2.1
		c0,1.48,0.86,2.1,1.79,2.1c1.06,0,1.4-0.76,1.65-1.4h1.46c0,1.18-1.04,2.94-3.25,2.94c-1.93,0-3.19-1.68-3.19-3.59
		C660.51,253.04,661.88,251.52,663.79,251.52z"/>
	<path d="M669.92,249v1.68h-1.6V249H669.92z M669.92,251.66v7h-1.6v-7H669.92z"/>
	<path d="M674.68,251.52c2.1,0,3.36,1.81,3.36,3.7c0,1.76-1.12,3.59-3.36,3.59s-3.36-1.82-3.36-3.59
		C671.32,253.32,672.58,251.52,674.68,251.52z M674.68,253.06c-1.11,0-1.82,0.84-1.82,2.1c0,1.34,0.74,2.1,1.82,2.1
		s1.82-0.76,1.82-2.1C676.5,253.9,675.79,253.06,674.68,253.06z M676.78,249l-1.6,1.96h-1.4l0.42-1.96H676.78z"/>
	<path d="M683.66,258.66v-4.62c0-0.66-0.5-1.05-1.22-1.05c-1.13,0-1.4,0.99-1.4,1.75v3.92h-1.6v-7h1.54v0.56
		c0.57-0.45,1.3-0.7,2.02-0.7c1.22,0,2.26,0.64,2.26,2.19v4.96H683.66z"/>
	<path d="M688.62,256.7v1.96h-1.96v-1.96H688.62z"/>
</g>
<circle cx="676.5" cy="57.5" r="30.5"/>
<circle class="st0" cx="468" cy="116" r="30.5"/>
<path class="st0" d="M489,138.11c5.47,5.2,12.86,8.39,21,8.39c16.84,0,30.5-13.66,30.5-30.5S526.84,85.5,510,85.5
	c-8.14,0-15.53,3.19-21,8.39"/>
<g>
	<g>
		<g>
			<g>
				<path class="st1" d="M132,200.5c-0.03,4.85-1.21,9.69-3.43,14.01"/>
				<path class="st1" d="M125.46,219.33c-0.35,0.5-0.76,0.94-1.17,1.39l-1.22,1.35l-1.35,1.22c-0.45,0.41-0.89,0.83-1.39,1.17
					c-0.97,0.73-1.93,1.48-2.99,2.07c-0.52,0.3-1.02,0.66-1.57,0.92l-1.64,0.79"/>
				<path class="st1" d="M108.71,230.11c-1.16,0.36-2.38,0.45-3.58,0.66c-1.2,0.16-2.42,0.15-3.63,0.24
					c-1.21-0.08-2.43-0.07-3.63-0.24c-1.19-0.21-2.41-0.3-3.58-0.66"/>
				<path class="st1" d="M88.87,228.24l-1.64-0.79c-0.55-0.26-1.04-0.62-1.57-0.92c-1.06-0.59-2.02-1.34-2.99-2.07
					c-0.5-0.35-0.94-0.76-1.39-1.17l-1.35-1.22l-1.22-1.35c-0.41-0.45-0.83-0.89-1.17-1.39"/>
				<path class="st1" d="M74.43,214.51c-2.21-4.32-3.4-9.15-3.43-14.01"/>
			</g>
			<g>
				<path class="st1" d="M71,200.5c0.03-4.85,1.21-9.69,3.43-14.01"/>
				<path class="st1" d="M77.54,181.67c0.35-0.5,0.76-0.94,1.17-1.39l1.22-1.35l1.35-1.22c0.45-0.41,0.89-0.83,1.39-1.17
					c0.97-0.73,1.93-1.48,2.99-2.07c0.52-0.3,1.02-0.66,1.57-0.92l1.64-0.79"/>
				<path class="st1" d="M94.29,170.89c1.16-0.36,2.38-0.45,3.58-0.66c1.2-0.16,2.42-0.15,3.63-0.24c1.21,0.08,2.43,0.07,3.63,0.24
					c1.19,0.21,2.41,0.3,3.58,0.66"/>
				<path class="st1" d="M114.13,172.76l1.64,0.79c0.55,0.26,1.04,0.62,1.57,0.92c1.06,0.59,2.02,1.34,2.99,2.07
					c0.5,0.35,0.94,0.76,1.39,1.17l1.35,1.22l1.22,1.35c0.41,0.45,0.83,0.89,1.17,1.39"/>
				<path class="st1" d="M128.57,186.49c2.21,4.32,3.4,9.15,3.43,14.01"/>
			</g>
		</g>
	</g>
</g>
<line class="st0" x1="101.5" y1="91.5" x2="101.5" y2="200.5"/>
<polyline class="st0" points="219,64 482.5,63.5 482.5,76.5 "/>
<rect x="286" y="149" class="st0" width="34" height="34"/>
<rect x="303" y="132" class="st0" width="34" height="34"/>
<line class="st0" x1="320" y1="183" x2="337" y2="166"/>
<line class="st0" x1="320" y1="149" x2="337" y2="132"/>
<line class="st0" x1="286" y1="149" x2="303" y2="132"/>
<line class="st0" x1="286" y1="183" x2="303" y2="166"/>
<line class="st0" x1="531" y1="149" x2="597" y2="200"/>
<g>
	<g>
		<g>
			<line class="st1" x1="170" y1="269" x2="180.03" y2="263.23"/>
			<line class="st1" x1="183.99" y1="260.94" x2="194.02" y2="255.17"/>
			<line class="st1" x1="197.99" y1="252.89" x2="208.01" y2="247.11"/>
			<line class="st1" x1="211.98" y1="244.83" x2="222.01" y2="239.06"/>
			<line class="st1" x1="225.97" y1="236.77" x2="236" y2="231"/>
		</g>
	</g>
</g>
<line class="st0" x1="426" y1="132" x2="352" y2="166"/>
<ellipse class="st0" cx="627" cy="185.53" rx="19" ry="7.53"/>
<line class="st0" x1="608" y1="205" x2="608" y2="185.86"/>
<path class="st2" d="M646,204.86v18.67c0,4.16-8.5,7.54-19,7.54s-19-3.38-19-7.54V205L646,204.86z"/>
<line class="st0" x1="646" y1="223.86" x2="646" y2="223.53"/>
<line class="st0" x1="646" y1="204.86" x2="646" y2="185.86"/>
<line class="st0" x1="608" y1="68" x2="749" y2="68"/>
<line class="st0" x1="540" y1="92" x2="619" y2="49"/>
</svg>
