<?xml version="1.0" encoding="utf-8"?>
<!-- Generator: Adobe Illustrator 25.1.0, SVG Export Plug-In . SVG Version: 6.00 Build 0)  -->
<svg version="1.1" id="Layer_1" xmlns="http://www.w3.org/2000/svg" xmlns:xlink="http://www.w3.org/1999/xlink" x="0px" y="0px"
	 viewBox="0 0 1080 1080" style="enable-background:new 0 0 1080 1080;" xml:space="preserve">
<style type="text/css">
	.st0{fill:#231F20;}
</style>
<g id="Layer_3">
	<path class="st0" d="M413.4,680.5l-0.1-0.8c-4.4-28.5-15.8-50.3-34.9-66.5c3.5-3.8,7-7.6,10.4-11.3l0.6-0.7l0.6-0.8
		c10.2-13.6,10.2-29.9,0-43.5l-0.4-0.5c-10.8-13.5-26-16.5-35.1-18.3l-2-0.4l-0.9-0.1c-29.5-3.1-58.4-2.5-86.3-1.9
		c-18,0.4-36.7,0.8-55,0.1l-20.7-0.7v20.7c0,89.5,0,174-0.6,262.3l40,0.3c0.2-29.2,0.3-57.9,0.4-86.6c1,0.1,2,0.2,2.9,0.2
		c19.4,0,33.7-10.4,45.2-18.8c1.3-1,2.6-1.9,3.9-2.8l1-0.7l0.9-0.8c24.7-22.6,47-44.8,67.6-66.4l0.7,0.5c12,9.8,18.9,23.2,22,42
		c1.9,27.9-3.3,55.2-8.8,84.2c-2.4,12.6-4.9,25.6-6.7,38.5l39.6,5.5c1.7-12,3.9-23.9,6.4-36.6c5.8-30.5,11.8-62,9.3-95.4
		L413.4,680.5z M257.2,678.6L254,681c-4,3.1-8.2,5.9-12.5,8.4c-0.4-8.2,0.7-16.3,3.2-24.1c4.3-10.3,11.7-18.7,23.8-27
		c11.5-5.5,23.8-8.7,40.9-10.3C293.1,644.6,275.9,661.5,257.2,678.6z M342.3,593.3c-10.8-3.5-22.1-5.3-33.4-5.3H308l-0.9,0.1
		c-15.6,1.4-36.3,4.4-57.6,15l-1.1,0.5l-1,0.7c-6.3,4.1-12.2,8.8-17.7,14c0-13.9,0-28,0-42.1c12.4,0,24.6-0.2,36.5-0.5
		c27.6-0.6,53.7-1.1,80.4,1.6h0.1c2.8,0.5,5.6,1.2,8.4,2.1C350.9,584,346.6,588.6,342.3,593.3L342.3,593.3z"/>
	<path class="st0" d="M783.2,810.3h76.1l-0.7-287.4l-37.7,0.1l0.5,212.2c-1.5-13.6-3.9-27-7.1-40.3c-17.4-71.7-57.5-128-116.1-162.6
		c-30.1-17.8-53.6-19.7-69.6-5.5c-23.4,20.6-21.3,69.4,6.8,158.1c18.5,58.6,41.5,111.9,42.4,114.1l34.6-15
		c-0.2-0.5-23-53.5-40.9-109.9c-30.7-97-19.3-117.1-18.1-118.9c1.2-0.2,8.1-0.8,25.6,9.6c50,29.6,83.1,76,98.4,137.9
		c11.7,47.4,8,86.6,8,86.9L783.2,810.3z"/>
	<path class="st0" d="M557.2,670.8c-6.6-7.2-11.2-15.9-14.6-25c-7.4-19.6-10.5-40-11.8-60.7c0-0.8-0.2-1.5-0.2-2.3h-0.8
		c0,0.7,0,1.3-0.1,2c-2.8,12.8-5.2,25.8-8.7,38.5c-3.8,13.9-9.8,27-18.9,38.3c-7.6,9.4-16.9,16-29.5,17c-0.7,0-1.4,0.2-2.2,0.2
		c3.6,1,7.1,1.7,10.3,3.1c12.5,5.2,19.7,15.5,25.4,27.1c6.7,13.6,10.3,28.2,12.5,43c1.4,9.1,2.2,18.3,3.3,27.4l0.8,0.3
		c-0.1-0.7-0.1-1.3-0.1-2c1.8-9.1,3.2-18.2,5.5-27.1c4.1-16.4,9.7-32.2,19.7-46c8.2-11.4,18.3-19.6,33.1-20.4c0.2,0,0.3-0.3,0.4-0.4
		c-1.3-0.4-2.6-0.8-4-1.1C569.3,680.9,562.4,676.7,557.2,670.8z"/>
	<path class="st0" d="M614.6,297.5l1.3-40c-16-0.5-30.5,5.7-42,18c-23,24.5-34.8,73.9-36.4,151c-0.6,32.2,0.7,61.9,2,81.1h-58.4
		l-56.6-252.2l-39,8.8l63.6,283.4h134.1l-2.2-22c-2.9-32.8-4.1-65.8-3.5-98.7c0.6-29.7,4.3-101.4,25.6-124.1
		C607.8,297.9,611.5,297.4,614.6,297.5z"/>
</g>
</svg>
