<?xml version="1.0" encoding="utf-8"?>
<!-- Generator: Adobe Illustrator 27.0.0, SVG Export Plug-In . SVG Version: 6.00 Build 0)  -->
<svg version="1.1" id="Layer_1" xmlns="http://www.w3.org/2000/svg" xmlns:xlink="http://www.w3.org/1999/xlink" x="0px" y="0px"
	 viewBox="0 0 1000 1000" style="enable-background:new 0 0 1000 1000;" xml:space="preserve">
<style type="text/css">
	.st0{fill:#FFFFFF;}
	.st1{fill:#FFFFFF;stroke:#010101;stroke-width:0.2826;stroke-miterlimit:10;}
	.st2{fill:#010101;}
	.st3{fill:#231F20;}
	.st4{fill:#010101;stroke:#010101;stroke-width:0.2826;stroke-miterlimit:10;}
</style>
<g>
	<g>
		<g>
			<path class="st2" d="M437.52,409.88h77.24c20.11,0,46.23,4.64,56.44,26.74c4.23,9.15,5.23,20.47,3.39,31.9
				c-9.62-7.32-20.99-12.86-34.44-15.99c-50.99-11.85-81.72,12.12-88.71,39.42c-6.74,26.34,8.1,59.05,49.51,70.62
				c25.62,7.16,51.77,1.97,73.26-13.84c9.64,34.25,9.64,75.66,9.64,97.06h43.38c0-32.15,0-91.09-20.86-136
				c14.7-29.34,16.82-64.05,4.2-91.36c-8.96-19.39-33.32-51.93-95.82-51.93H394.14v279.67h43.38V409.88z M512.63,520.8
				c-14.58-4.07-20.67-12.18-19.16-18.09c1.41-5.52,9.04-9.86,21.36-9.86c4.55,0,9.73,0.59,15.48,1.93
				c9.54,2.22,17.38,7.24,23.82,14.21C545.77,517.13,531.58,526.1,512.63,520.8z"/>
			<path class="st2" d="M316.24,559.82c14.98,12.27,33.46,23.15,51.87,23.15v-43.38c-4.49,0-16.45-5.74-30.84-18.92
				c14.19-29.11,24.9-58.46,26.82-83.27c3.84-49.57-24.13-79.84-53.75-84.11c-25.5-3.64-55.27,11.43-64.19,53.47
				c-10.77,50.75,22.22,100.13,38.58,120.8c-15.15,27.04-32.64,53.6-47.46,74.59l-94.3-233.46H96.19l112.08,277.47h50.63
				C271.85,628.75,294.94,596.39,316.24,559.82z M288.58,415.77c2.57-12.11,8.15-19.62,14.42-19.62c0.38,0,0.76,0.03,1.14,0.08
				c8.06,1.16,18.57,13.67,16.7,37.82c-1.1,14.23-6.39,31.32-14.15,49.53C291.47,459.11,284.65,434.33,288.58,415.77z"/>
			<path class="st2" d="M731.75,568.98c33.04,31.75,68.12,59.71,91.16,77.19h58.26V368.55h-43.38V602.7
				c-16.73-13.09-37.77-30.22-58.79-49.15c-10.53-9.48-19.86-18.33-28.12-26.57c19.33-46.33,32.22-92.82,23.33-122.01
				c-8.96-29.5-37.8-55.64-75.64-48.5c-41.23,7.77-57.22,47.41-54.61,80.95c2.31,29.76,25.44,64.7,55.39,98.17
				c-17.97,38.41-40.23,78.67-60.1,110.6h50.71C701.58,626.46,717.05,598.98,731.75,568.98z M687.22,434.05
				c-1.77-22.75,8.86-32.98,19.4-34.96c1.25-0.24,2.57-0.36,3.92-0.36c8.29,0,17.91,4.8,22.19,18.86
				c4.38,14.41-2.11,41.58-14.4,73.73C692.65,459.7,687.82,441.83,687.22,434.05z"/>
		</g>
	</g>
	<g>
		<path class="st2" d="M918.42,705.13H79.5c-28.68,0-52.01-23.33-52.01-52.01V355.16c0-33.24,27.04-60.29,60.28-60.29h822.37
			c33.24,0,60.28,27.05,60.28,60.29v297.95C970.43,681.8,947.1,705.13,918.42,705.13z M87.77,307.02
			c-26.54,0-48.14,21.59-48.14,48.14v297.95c0,21.98,17.88,39.86,39.86,39.86h838.92c21.98,0,39.86-17.88,39.86-39.86V355.16
			c0-26.54-21.59-48.14-48.14-48.14H87.77z"/>
	</g>
</g>
</svg>
