<?xml version="1.0" encoding="utf-8"?>
<!-- Generator: Adobe Illustrator 27.0.0, SVG Export Plug-In . SVG Version: 6.00 Build 0)  -->
<svg version="1.1" id="Layer_1" xmlns="http://www.w3.org/2000/svg" xmlns:xlink="http://www.w3.org/1999/xlink" x="0px" y="0px"
	 viewBox="0 0 1000 1000" style="enable-background:new 0 0 1000 1000;" xml:space="preserve">
<style type="text/css">
	.st0{fill:#FFFFFF;}
	.st1{fill:#FFFFFF;stroke:#010101;stroke-width:0.2826;stroke-miterlimit:10;}
	.st2{fill:#010101;}
	.st3{fill:#231F20;}
	.st4{fill:#010101;stroke:#010101;stroke-width:0.2826;stroke-miterlimit:10;}
</style>
<g>
	<g>
		<g>
			<g>
				<path class="st2" d="M515.48,631.67h-30.96c-133.9,0-247.44-10.28-328.33-29.74C62.11,579.3,14.41,545.01,14.41,500
					s47.7-79.3,141.78-101.93c80.89-19.46,194.43-29.74,328.33-29.74h30.96c133.9,0,247.44,10.29,328.33,29.74
					C937.89,420.7,985.59,454.99,985.59,500s-47.7,79.3-141.78,101.93C762.92,621.39,649.38,631.67,515.48,631.67z M484.52,385.6
					C205.2,385.6,31.68,429.44,31.68,500c0,70.57,173.52,114.4,452.84,114.4h30.96c279.32,0,452.84-43.84,452.84-114.4
					c0-70.56-173.52-114.4-452.84-114.4H484.52z"/>
			</g>
		</g>
	</g>
	<g>
		<path class="st2" d="M201.51,555.09l-38.68-108.2h17.93l32.98,92.34l33.39-92.34h17.93l-38.68,108.2H201.51z"/>
		<path class="st2" d="M271.89,555.09v-108.2h17.27v108.2H271.89z"/>
		<path class="st2" d="M307.02,555.09v-108.2h48.1c1.16,0,2.59,0.04,4.3,0.11c1.71,0.08,3.33,0.24,4.88,0.49
			c6.61,0.95,12.14,3,16.57,6.16c4.44,3.16,7.76,7.14,9.96,11.95c2.2,4.81,3.31,10.12,3.31,15.93c0,8.62-2.43,16.04-7.27,22.28
			c-4.85,6.24-12.12,10.13-21.82,11.68l-7.02,0.75h-33.72v38.85H307.02z M324.29,501.36h30.17c1.1,0,2.33-0.05,3.68-0.15
			c1.35-0.1,2.63-0.28,3.84-0.53c3.52-0.75,6.36-2.14,8.51-4.17c2.15-2.03,3.69-4.37,4.63-7.02c0.94-2.66,1.41-5.31,1.41-7.96
			c0-2.66-0.47-5.3-1.41-7.93c-0.94-2.63-2.48-4.96-4.63-6.99c-2.15-2.03-4.99-3.42-8.51-4.17c-1.21-0.3-2.49-0.5-3.84-0.6
			c-1.35-0.1-2.58-0.15-3.68-0.15h-30.17V501.36z M376.61,555.09l-23.47-44.03l17.44-4.06l25.79,48.09H376.61z"/>
		<path class="st2" d="M407.63,555.09v-108.2h48.1c1.16,0,2.59,0.04,4.3,0.11c1.71,0.08,3.33,0.24,4.88,0.49
			c6.61,0.95,12.14,3,16.57,6.16c4.44,3.16,7.76,7.14,9.96,11.95c2.2,4.81,3.31,10.12,3.31,15.93c0,8.62-2.43,16.04-7.27,22.28
			c-4.85,6.24-12.12,10.13-21.82,11.68l-7.02,0.75h-33.72v38.85H407.63z M424.91,501.36h30.17c1.1,0,2.33-0.05,3.68-0.15
			c1.35-0.1,2.63-0.28,3.84-0.53c3.52-0.75,6.36-2.14,8.51-4.17c2.15-2.03,3.69-4.37,4.63-7.02c0.94-2.66,1.41-5.31,1.41-7.96
			c0-2.66-0.47-5.3-1.41-7.93c-0.94-2.63-2.48-4.96-4.63-6.99c-2.15-2.03-4.99-3.42-8.51-4.17c-1.21-0.3-2.49-0.5-3.84-0.6
			c-1.35-0.1-2.58-0.15-3.68-0.15h-30.17V501.36z M477.22,555.09l-23.47-44.03l17.44-4.06l25.79,48.09H477.22z"/>
		<path class="st2" d="M508.25,555.09v-108.2h76.04v14.8h-58.76v30.36h48.85v14.8h-48.85v33.44h58.76v14.8H508.25z"/>
		<path class="st2" d="M595.95,555.09v-108.2h17.27v108.2H595.95z"/>
		<path class="st2" d="M631.08,555.09v-108.2h17.52l58.6,80.4v-80.4h17.52v108.2H707.2l-58.6-80.47v80.47H631.08z"/>
		<path class="st2" d="M732.45,555.09l38.68-108.2h24.88l38.68,108.2h-17.94l-35.62-98.73h4.46l-35.21,98.73H732.45z M752.54,530.67
			v-14.73h62.15v14.73H752.54z"/>
	</g>
</g>
</svg>
