<?xml version="1.0" encoding="utf-8"?>
<!-- Generator: Adobe Illustrator 27.0.0, SVG Export Plug-In . SVG Version: 6.00 Build 0)  -->
<svg version="1.1" id="Layer_1" xmlns="http://www.w3.org/2000/svg" xmlns:xlink="http://www.w3.org/1999/xlink" x="0px" y="0px"
	 viewBox="0 0 1000 1000" style="enable-background:new 0 0 1000 1000;" xml:space="preserve">
<style type="text/css">
	.st0{fill:#FFFFFF;}
	.st1{fill:#FFFFFF;stroke:#010101;stroke-width:0.2826;stroke-miterlimit:10;}
	.st2{fill:#010101;}
	.st3{fill:#231F20;}
	.st4{fill:#010101;stroke:#010101;stroke-width:0.2826;stroke-miterlimit:10;}
</style>
<g id="n4PsB1_00000132775251216435743230000016520331608835569296_">
	<g>
		<path class="st0" d="M31.93,788.82c0-66.62,0-133.24,0-199.87c0.99-0.27,1.83-0.84,2.68-1.4c5.15-3.37,9.7-7.61,15.25-10.39
			c3.36-1.68,6.33-3.98,9.5-5.94c2.37-1.46,4.1-3.58,6.28-5.22c13.81-10.37,28.94-18.66,43.51-27.84
			c7.53-4.75,15.9-8.27,21.93-15.18c0.28-0.33,0.79-0.63,1.21-0.64c1.93-0.04,2.8-1.5,3.84-2.74c0.35-0.42,0.78-0.88,0.48-1.45
			c-0.38-0.71-1.09-0.54-1.67-0.37c-2.18,0.66-4.44,0.8-6.66,1.2c-2.52,0.45-5.14,0.88-7.45,1.92c-6.4,2.86-13.11,4.98-19.34,8.24
			c-4.56,2.39-9.49,4.07-13.8,6.89c-6.66,4.35-13.54,8.23-20.78,11.53c-6.94,3.16-13.39,7.22-19.97,11.06
			c-4.64,2.71-9.1,6.14-15,5.54c0-120.37,0-240.75-0.04-361.12c0-1.75,0.39-2.15,2.15-2.15c116.78,0.05,233.57,0.04,350.35,0.04
			c0.7,1.29,1.08,2.89,2.44,3.64c3.92,2.18,8.01,3.96,12.64,3.35c1.91-0.25,3.49,0.07,5.06,1.17c2.37,1.67,4.81,1.59,7.17-0.1
			c1.09-0.78,2.22-1.45,3.61-1.52c1.48-0.08,2.22,0.61,2.13,2.08c-0.12,1.99-0.96,3.45-3.09,3.81c-0.92,0.16-1.86,0.24-2.78,0.41
			c-2.55,0.47-3.51,2.27-3.94,4.61c-0.42,2.31,0,4.21,2.15,5.42c1.11,0.63,2.07,1.35,2.7,2.49c2.54,4.59,5.45,8.89,9.59,12.23
			c0.35,0.28,0.76,0.73,0.79,1.12c0.24,3.52,3.02,4.22,5.58,5.46c4.02,1.95,7.3,4.5,7.65,9.68c0.34,4.96,4.25,7.2,8.85,5.44
			c2.47-0.95,4.64-0.89,6.82,0.74c1.68,1.25,1.99,0.87,2.6-1.04c1.04-3.29,0.72-6.88,2.09-9.99c1.34-3.04,1.82-6.27,2.87-9.35
			c1.18-3.47,1.63-7.22,5.41-9.47c2.47-1.47,4.46-3.82,6.74-5.7c3.24-2.67,7.3-4.36,9.86-7.79c2.36-3.16,5.41-3.95,9.06-3.51
			c1.31,0.16,2.63,0.29,3.95,0.37c1.87,0.11,3.61-0.29,4.86-1.79c1.24-1.48,2.84-2.36,4.56-3.16c3.46-1.61,4.43-1.13,4.15,2.75
			c-0.37,5.07,0.04,10.12,0.15,15.17c0.1,4.45,2.32,8.18,6.23,10.28c2.13,1.14,3.96,2.25,5.35,4.25c2.3,3.3,5.7,3.49,8.57,0.68
			c4.78-4.7,4.74-11.65-0.28-16.13c-1.61-1.44-2.45-3.03-2.36-5.07c0.14-3.37-0.86-6.47-2.04-9.52c-1.69-4.35-0.82-6.51,3.48-8.27
			c1.5-0.61,3.14-1.08,3.9-2.75c41.03,0,82.07,0,123.1,0c0.54,1.01,1.41,1.35,2.52,1.29c3.72-0.19,3.78-0.13,4.55,3.43
			c0.58,2.71,7.38,6.24,9.88,5.09c0.47-0.22,0.96-0.59,1.23-1.02c1.65-2.61,3.79-4.65,6.48-6.19c1.12-0.64,1.98-1.71,2.96-2.59
			c8.58,0,17.16,0,25.74,0c0.17,1.15,0.36,2.3,0.52,3.45c0.41,2.92,2.51,3.91,5.25,2.81c3.56-1.42,6.28-3.97,9.21-6.26
			c9.83,0,19.66,0,29.49,0c1.34,4.34,4.41,7.06,8.43,8.81c2.69,1.17,5.05,0.04,4.7-2.33c-0.34-2.25,0.18-4.33,0.44-6.48
			c66.86,0,133.71,0.01,200.57-0.04c1.75,0,2.15,0.4,2.15,2.15c-0.05,128.33-0.04,256.66-0.04,384.99
			c-0.82-0.25-1.66-0.44-2.45-0.76c-5.63-2.27-11.17-4.76-16.55-7.58c-1.68-0.88-3.43-1.46-5.32-1.66
			c-3.87-0.41-7.77-0.16-11.65-0.55c-1.94-0.19-4.3-0.11-5.82,1.29c-2.42,2.23-5.32,2.94-8.34,3.26c-3.58,0.38-6.32,1.85-8.44,4.78
			c-0.85,1.17-2.11,2.08-3.27,2.98c-1.19,0.93-2.16,1.97-2.8,3.37c-3.03,6.64-7.11,12.62-12.17,17.83c-2.4,2.47-4.79,4.79-6.22,8.02
			c-1.39,3.14-0.9,5.54,1.84,7.61c1.49,1.12,2.78,2.44,3.77,4.1c2.1,3.54,4.14,7.14,7.71,9.55c4.19,2.83,8.23,5.95,12.73,8.25
			c3.29,1.68,6.32,3.88,10.07,4.82c3,0.75,4.74,3.23,5.77,6.27c0.94,2.81,1.13,6.05,3.87,8.03c0.52,0.38,0.3,0.99,0.06,1.51
			c-0.3,0.64-0.67,1.32-0.05,1.94c0.68,0.68,1.46,0.28,2.19,0.03c1.08-0.36,1.74-1.14,2.44-2.04c2.79-3.58,4.29-7.9,7-11.56
			c5.32-7.18,7.92-16.04,13.87-22.9c3.5-4.03,7.3-7.65,11.78-10.55c0,18.41,0,36.82,0,55.23c-2.86-0.32-5.8-0.28-8.59-0.8
			c-2.91-0.55-4.11,1.12-5.61,2.79c-1.38,1.53-0.68,3.04-0.01,4.57c1.18,2.67,0.88,3.83-1.31,5.67c-1.85,1.55-3.78,2.75-6.37,2.14
			c-0.69-0.16-1.38,0.06-2.02,0.41c-3.74,2.05-5.63,2.12-8.52-0.86c-2.74-2.83-6.05-4.88-8.88-7.57c-2.88-2.75-5.91-5.64-10.64-4.1
			c-1.34,0.43-2.84-0.06-3.85-1.21c-2.83-3.21-5.86-6.29-8.35-9.75c-1.96-2.73-4.05-5.09-7-6.7c-2-1.1-3.95-2.5-4.92-4.54
			c-1.63-3.41-4.28-6.12-5.96-9.48c-0.84-1.67-2.3-2.96-4.14-3.64c-1.05-0.39-1.88-1.06-2.77-1.7c-6.05-4.35-12.65-7.65-19.74-9.86
			c-4.24-1.33-6.45-4.4-8.04-8.12c-0.69-1.62-0.19-3.4,0.45-5.02c0.48-1.23,1.5-2.07,2.73-1.69c3.23,0.98,5.04-0.89,6.67-3.07
			c0.86-1.15,1.75-1.72,3.24-1.88c4.04-0.42,6.69-6.36,4.32-9.69c-1.16-1.64-2.67-3.03-4.05-4.51c-0.44-0.47-1.02-0.76-1.69-0.53
			c-0.8,0.28-0.99,0.98-0.92,1.71c0.26,2.55,0.35,5.15,0.94,7.63c0.47,1.97,0.34,3.48-1.54,4.32c-1.75,0.77-3.37,0.35-4.46-1.38
			c-0.28-0.44-0.51-1.32-1.05-1.04c-1.59,0.83-3.73,0.99-4.34,3.18c-0.48,1.71-0.7,3.87-2.95,3.98c-2.12,0.1-2.47-2.09-3.26-3.54
			c-1.14-2.09-2.53-3.94-4.65-5.13c-0.9-0.5-1.89-0.87-2.87-0.2c-0.91,0.62-0.87,1.6-0.75,2.55c0.21,1.62,0.41,3.24,1.33,4.68
			c1.06,1.66,0.47,2.64-1.38,2.97c-3.21,0.59-6.01-0.55-8.59-2.25c-1.94-1.28-3.76-1.18-5.34,0.28c-2.1,1.94-3.73,4.2-3.53,7.33
			c0.1,1.58-0.08,3.14-1.18,4.41c-1.01,1.16-1.59,2.49-1.63,4.04c-0.05,1.72-1.03,2.55-2.63,2.71c-0.92,0.09-1.86,0.08-2.79,0.05
			c-1.38-0.04-1.82,0.48-1.4,1.87c0.85,2.81-0.08,4.6-2.78,5.62c-2.03,0.77-4.61,0.24-5.26-1.23c-0.91-2.05,0.96-2.86,2-4.01
			c1.53-1.7,5.02-1.95,4.08-5.47c-0.77-2.88-3.25-3.43-5.65-4.27c-2.79-0.98-2.96-1.03-4.06,1.76c-0.34,0.87-0.68,1.75-0.92,2.65
			c-1.92,7.1-5.65,13.21-10.63,18.48c-5.53,5.85-10.64,12.36-18.94,14.71c-0.27,0.08-0.5,0.36-0.72,0.57
			c-0.45,0.44-0.89,0.97-1.6,0.6c-0.74-0.4-0.43-1.08-0.31-1.67c0.63-3.15-0.23-6.21-0.56-9.29c-0.12-1.14-0.82-1.73-1.97-1
			c-2.08,1.34-4.33,2.37-6.36,3.86c-3.23,2.38-6.78,4.46-11.08,2.19c-0.67-0.35-1.5-0.42-2.26-0.58c-4.64-0.95-5.19-1.42-6.04-6.1
			c-0.39-2.15-1.47-3.73-3.5-4.27c-3.63-0.97-7.22-2.5-11.15-1.35c-1.34,0.39-2.76,0.48-4.15,0.71c-0.85,0.14-1.76,0.35-2.31-0.58
			c-0.5-0.85-0.12-1.65,0.27-2.43c0.91-1.81,1.82-3.62,2.72-5.43c1.54-3.13,1.35-4.41-1.07-6.9c-0.7-0.72-1.65-1.33-1.68-2.44
			c-0.12-3.95-1.97-7.52-2.42-11.38c-0.37-3.17-2.35-4.71-5.25-5.47c-1.91-0.51-3.05,0-3.34,2.03c-0.24,1.67-0.47,3.34-0.71,5.01
			c-0.24-0.47-0.29-0.92-0.29-1.38c-0.11-9.81-1.76-19.41-4.1-28.9c-3.89-15.75-9.87-30.73-17.36-45.1
			c-5.78-11.11-12.58-21.53-21.43-30.52c-6.47-6.56-13.08-12.97-20.33-18.66c-10.88-8.54-22.04-16.66-35.34-21.2
			c-2.43-0.83-4.86-1.7-7.25-2.65c-0.87-0.34-2.25-0.13-1.99-1.96c0.23-1.65,1.25-1.42,2.31-1.57c1.5-0.21,2.9-0.24,4.29,0.57
			c0.99,0.58,2.07,0.51,3.06-0.27c2.05-1.6,4.29-0.85,6.48-0.4c0.57,0.12,1.02,0.55,0.8,1.2c-0.22,0.65-0.82,0.69-1.37,0.52
			c-0.52-0.16-0.98-0.46-1.49-0.67c-1.12-0.45-1.66-0.13-1.47,1.14c0.38,2.62,2.11,4.09,4.83,4.01c0.87-0.02,1.7,0.03,2.54,0.27
			c0.63,0.18,1.47,0.7,1.9-0.1c0.47-0.86-0.56-1.12-1.01-1.58c-0.64-0.65-1.23-1.43-0.62-2.25c0.74-0.99,1.72-0.3,2.54,0.07
			c0.86,0.39,0.9,1.14,0.76,1.99c-0.19,1.21,0.45,1.96,1.6,1.54c2.19-0.81,3.89,0.1,5.63,1.15c1.44,0.87,2.91,1.71,4.81,1.35
			c-0.68-1.51-2.73-1.12-3.42-2.64c1.84,0.05,1.82,0.07,3.67,0.95c9.97,4.72,19.28,10.57,28.39,16.73
			c4.98,3.36,9.77,6.99,14.07,11.22c0.7,0.69,1.89,1.51,1.21,2.53c-1.76,2.65-1.62,5.84-2.74,8.6c-1.78,4.44-1.19,8.52,0.93,12.5
			c1.33,2.5,3.43,4.05,6.42,4.54c6.18,1.01,12.39,1.34,18.63,1.46c1.92,0.04,3.34,0.57,4.68,2.06c9.81,10.85,18.4,22.58,25.97,35.09
			c8.79,14.51,16.6,29.49,22.7,45.33c0.62,1.6,1.32,3.17,2.01,4.74c0.64,1.48,1.32,2.95,1.98,4.42
			c-10.86-31.41-26.29-60.32-46.75-86.53c2.71,2.62,5.25,5.34,7.5,8.28c3.93,5.13,7.6,10.46,11.52,15.6
			c5.24,6.88,10.41,13.77,14.17,21.63c1.73,3.63,2.87,7.7,6.38,10.34c1.16-1.7,0.96-3.63,1.31-5.44c0.1-0.5,0.25-1.64,0.92-1.07
			c0.7,0.59,0.98,0.92,1.55,0.1c0.48-0.7,0.25-1.38-0.28-1.91c-1.19-1.17-1.26-2.68-1.16-4.15c0.18-2.51,0.32-4.96-0.99-7.29
			c-0.38-0.68-0.26-2.01,0.81-1.55c2.99,1.29,1.34-1.08,1.23-1.6c-0.46-2.17-1.84-3.93-2.96-5.8c-0.29-0.48-0.97-0.88-0.4-1.68
			c5.01,2.22,6.34,7.36,8.95,11.4c3.08,4.77,4.21,10.93,10.43,13.91c-1.41-4.77-2.75-9.14-4.59-13.34
			c-0.54-1.23-1.01-2.45-1.16-3.78c-0.07-0.62-0.15-1.37,0.58-1.61c0.78-0.26,1.07,0.46,1.34,1.01c0.78,1.61,1.52,3.25,2.3,4.86
			c0.33,0.69,0.43,1.62,1.46,1.77c0.34-0.71-0.01-1.2-0.15-1.71c-1.2-4.44-3.19-8.59-4.76-12.9c-0.39-1.07-0.49-2.22-1.25-3.23
			c-2.2-2.94-2.42-6.78-4.27-9.92c-0.19-0.32-0.03-0.94,0.13-1.35c0.25-0.64,1.02-0.85,1.24-0.26c0.86,2.32,3.48,3.34,4.11,5.89
			c0.35,1.4,1.36,2.67,3.72,2.95c-3.8-6.87-6.57-13.78-11.03-19.69c-3.89-5.16-7.42-10.6-11.78-15.4c-0.4-0.44-1-1.04-0.42-1.62
			c0.6-0.6,1.13,0.09,1.58,0.46c0.48,0.4,0.89,0.88,1.36,1.28c5.07,4.39,8.47,10.22,12.8,15.25c6.59,7.65,12.63,16.03,15.92,25.89
			c0.07,0.2,0.27,0.35,0.36,0.48c0.76-0.05,0.09-1.15,1.06-1.09c0.31,0.82,0.54,1.75,1,2.53c0.49,0.82,0.37,2.44,1.54,2.34
			c1.74-0.14,1.88,1.08,2.38,2.04c0.61,1.17,1.09,2.42,1.69,3.6c0.38,0.73,1.06,2.02,1.76,1.27c0.79-0.84,2.44-1.54,2.22-2.75
			c-0.38-2.12-1.28-4.16-2.03-6.2c-0.8-2.19-1.71-4.35-2.51-6.55c-0.23-0.64-0.53-1.54,0.19-1.94c0.98-0.54,0.97,0.64,1.4,1.08
			c1.26,1.24,2.26,2.65,2.9,4.44c0.98-1.16-0.32-2.5,0.87-3.57c1.26,2.71,2.48,5.36,3.73,7.98c0.21,0.44,0.23,1.29,0.96,1.11
			c1.67-0.41,1.04,0.68,0.79,1.24c-0.54,1.2-0.44,2.27,0.28,3.31c1.75,2.53,2.55,5.47,3.55,8.31c1.1,3.1,0.43,6.47,1.45,9.63
			c0.67,2.05,0.96,4.18,0.88,6.43c-0.07,1.85-0.66,3.87-0.24,5.5c0.8,3.15-0.54,5.72-1.49,8.32c-1.49,4.06-0.35,7.88-0.08,11.96
			c0.73-0.38,0.68-0.81,0.74-1.18c1.89-10.47,3.05-20.99,1.79-31.65c-0.94-7.93-1.08-15.9-3.17-23.77
			c-6.09-22.85-18.03-42.24-34.29-59.02c-12.3-12.69-26.81-22.58-42.29-31.05c-1.12-0.61-2.39-1.05-3.27-2.1
			c0.69-0.79,1.41-0.46,2.05-0.33c2.45,0.47,4.9,0.95,7.33,1.5c14.23,3.19,28.48,6.28,42.64,9.77c10.23,2.52,20.29,5.62,30.14,9.33
			c6.78,2.55,13.56,5.09,20.43,7.38c2.45,0.82,3.35,0.17,3.38-2.36c0.02-2.45,0.23-4.83,1.63-6.96c0.57-0.87,0.7-1.9,0.69-2.93
			c-0.05-4.06-1.16-7.75-3.22-11.3c-1.57-2.7-3.52-5.48-1.69-9.1c1.07-2.11,0.73-4.56-0.39-6.79c-0.91-1.82-1.83-3.72-1.93-5.74
			c-0.16-3.15-1.95-4.87-4.44-6.35c-8.63-5.11-17.81-9.01-27.27-12.24c-9.89-3.38-20.07-5.77-30.24-8.18
			c-11.16-2.64-22.49-4.41-33.78-6.38c-10.92-1.91-21.99-2.56-33.02-3.61c-6.31-0.6-12.53-0.96-18.79,0.83
			c-15.76,4.51-31.26,9.76-46.54,15.67c-3.74,1.45-6.53,4.16-9.32,6.86c-1.45,1.4-1.76,3.08-0.45,4.84c0.43,0.58,0.72,1.19,0.4,1.95
			c-0.95,2.22-5.58,4.97-8.04,4.72c-1.09-0.11-2.19-0.41-3.19,0.24c-4.02,2.63-9.49,2.32-12.85,6.31c-0.05,0.05-0.14,0.08-0.21,0.1
			c-1.38,0.36-3,0.33-3.42-1.05c-0.41-1.36,1.24-1.47,2.25-1.74c2.17-0.59,4.52-0.83,6.04-2.76c2.23-2.84,4.93-5.19,7.63-7.55
			c0.61-0.54,1.71-1.14,1.2-2.02c-0.54-0.93-1.58-0.18-2.31,0.12c-5.87,2.42-11.24,5.73-16.44,9.33c-1.23,0.85-1.72,1.83-1.03,3.38
			c0.77,1.73,0.01,2.9-1.83,3.23c-1.22,0.22-2.51,0.53-3.7,0.37c-2.89-0.39-5.35,0.82-7.81,1.9c-1.72,0.75-3.44,1.44-5.22,2.04
			c-8.25,2.8-16.77,4.97-24.04,10.13c-2.25,1.6-3.49,1.34-5.51-0.64c-0.88-0.86-1.37-1.64,0.29-2.16c0.82-0.26,1.39-0.95,0.54-1.48
			c-1.44-0.89-3.46-2.03-4.78-1.13c-2.75,1.87-5.92,1.05-8.73,2.14c-1.29,0.5-1.92-0.3-1.91-1.55c0-0.69,0.1-1.41,0.32-2.06
			c0.53-1.59-0.11-2.38-1.63-2.68c-0.69-0.13-1.38-0.25-2.07-0.36c-1.15-0.18-2.29-0.24-2.55,1.26c-0.24,1.37,0.29,2.34,1.79,2.44
			c1.7,0.11,1.96,1.13,1.94,2.56c-0.03,1.57-0.47,2.87-1.67,3.94c-4.34,3.89-5.71,9.14-6.63,14.6c-0.31,1.82,0.56,2.89,2.24,2.71
			c2.35-0.25,4.82,0.06,6.69-2.36c1.11-1.43,2.78-1.8,2.75-4.47c-0.04-3.18,7.58-8.15,10.82-7.95c1.61,0.1,3.07,1.83,2.39,3.19
			c-0.85,1.7,0.15,2.21,1.31,2.51c2.29,0.61,3.49,2.22,4.36,4.22c0.84,1.93,1.71,3.84,2.51,5.79c4.13,10.01,7.9,20.19,12.44,30.02
			c7.55,16.35,15.97,32.29,22.95,48.92c1.31,3.13,1.26,5.56-0.33,8.55c-3.43,6.47-5.75,13.3-4.75,20.86
			c0.36,2.71,1.37,5.25,1.52,8.02c0.27,4.83,2.16,6.39,7.04,6.42c0.62,0,1.31-0.07,1.85,0.17c3.45,1.5,6.49,0.85,9.7-1.04
			c2.99-1.75,3.82-1.28,5.52,1.82c5.58,10.18,9.93,20.98,16.21,30.82c3.93,6.17,7.29,12.71,12.05,18.33
			c1.11,1.31,2.06,3.16,3.48,3.7c4.36,1.65,8.35,4.61,13.46,4c1.68-0.2,2.69-0.45,2.67-2.32c-0.01-1.23,0.57-2.21,1.35-3.15
			c1.78-2.14,2.26-4.58,0.41-6.35c-2.24-2.15-1.47-4.15-0.84-6.38c0.21-0.73,0.33-1.71,1.27-1.77c1.11-0.07,1.26,1,1.53,1.79
			c1.16,3.5,2.55,6.86,4.93,9.75c0.69,0.83,1.18,1.8,1.46,2.9c0.46,1.81,2.54,1.91,3.58,3.15c0.2,0.23,0.6-0.1,0.68-0.42
			c0.79-3.22,3.92-4.39,5.82-6.63c0.58-0.69,1.2-1.41,1.05-2.25c-0.65-3.83,1.96-6.59,3.16-9.79c0.36-0.97,0.69-2.87,1.89-2.59
			c1.39,0.31,0.65,2.13,0.84,3.29c0.21,1.3,0.09,2.99,1.73,3.2c1.77,0.22,3.1-0.82,3.62-2.65c0.21-0.72,0.19-1.77,1.19-1.76
			c0.98,0.01,0.7,1.04,0.86,1.66c0.22,0.82,0.6,1.48,1.54,1.5c0.89,0.02,1.13-0.7,1.33-1.39c0.18-0.61,0.44-1.13,0.99-1.53
			c2.65-1.9,4.34-4.31,4.04-7.77c-0.06-0.68,0.11-1.4,0.25-2.08c0.12-0.58,0.17-1.48,0.96-1.37c0.82,0.12,0.61,1.01,0.48,1.58
			c-0.53,2.33-0.68,4.64,0.12,6.92c0.7,2,1.16,4.03,1.19,6.17c0.01,1.17,0.21,2.58,1.65,2.74c1.3,0.14,1.79-1.19,2.12-2.18
			c1.75-5.24,3.48-10.5,4.19-16.03c0.4-3.13,1-6.22,1.52-9.34c0.75,6.49-0.52,12.7-2.07,18.89c-1.81,7.21-4.26,14.16-7.72,20.77
			c-2.43,4.66-1.77,9.36,1.63,12.73c3.74,3.7,8.34,5.58,13.64,5.58c1.12,0,2.22-0.19,2.95-1.14c1.28-1.68,1.96-0.87,2.59,0.53
			c0.36,0.78,0.78,1.54,0.72,2.44c-0.33,4.98-1.38,9.36-6.28,12.25c-2.84,1.67-5.91,3.68-7.4,6.9c-1.09,2.35-2.88,4.26-3.78,6.71
			c-0.32,0.86-1.26,1.28-2.14,1.16c-3.09-0.41-6.24,0.09-9.29-0.82c-2.41-0.72-4.64-0.51-6.3,1.71c-0.58,0.77-1.41,1.23-2.28,1.6
			c-2.55,1.1-4.56,2.57-4.61,5.75c-0.02,0.97-0.49,1.97-0.92,2.88c-1.26,2.63-1.2,5.13-0.13,7.89c0.96,2.49,2.09,5.17,1.27,7.92
			c-0.5,1.69-1.16,3.09,0.08,4.79c0.7,0.95,0.2,2.22-0.22,3.37c-1.79,4.84-4.95,8.38-9.61,10.64c-1.41,0.68-2.65,1.12-4.2,0.49
			c-1.87-0.76-3.52-0.24-4.82,1.32c-0.71,0.85-1.54,1.5-2.52,2.04c-4.13,2.3-8.36,4.4-12.4,6.88c-3.17,1.95-5.5,4.9-8.52,6.8
			c-6.06,3.81-10.44,9.27-15.39,14.18c-52.74,0-105.47,0-158.21,0c2.79-4.14,6.54-7.53,9.21-11.76c1.81-2.88,4.42-4.04,7.72-3.88
			c3.11,0.15,5.83-1.07,8.35-2.62c2.75-1.7,4.19-5.54,3.28-8.4c-1.09-3.44-2.48-6.74-5.68-8.88c-1.89-1.27-2.41-3.03-1.98-5.3
			c0.44-2.29,1.68-4.17,2.54-6.25c1.43-3.5,0.69-4.9-2.82-5.85c-1.63-0.44-3.23-0.39-4.86-0.02c-5.66,1.29-9.99,4.96-14.62,8.09
			c-4.32,2.92-8.39,6.3-12.95,8.76c-2.91,1.57-4.83,3.44-6.04,6.38c-0.84,2.02-1.44,4.13-2.27,6.14
			c-2.34,5.69-2.81,12.25-7.64,16.82c-1.24,1.18-2.38,2.47-3.56,3.71c-0.82,0.86-1.56,1.76-1.45,3.06c-1.72,0-3.43,0-5.15,0
			c0.06-1.36,0.66-2.52,1.26-3.73c1.31-2.65,2.57-5.33,3.68-8.07c2.2-5.4,3.89-11,5.94-16.45c2.91-7.73,5.53-15.53,7.77-23.48
			c1.54-5.49,2.41-11.11,3.77-16.63c0.43-1.74,1.04-3.43,1.41-5.17c1.03-4.86,1.58-9.82,3.56-14.47c1.3-3.06,2.75-6.17,1.57-9.68
			c-0.23-0.68,0.04-1.41,0.43-2.01c1.54-2.4,2.19-5.15,3.19-7.77c0.93-2.43,0.49-4.46-1.36-6.16c-2.64-2.42-5.23-4.9-8.4-6.68
			c-4.24-2.37-5.91-1.66-6.67,3.1c-0.92,5.71-2.61,11.23-3.98,16.82c-2.8,11.41-5.92,22.75-9.03,34.08
			c-1.32,4.81-2.92,9.54-4.49,14.27c-0.29,0.88-0.55,2.36-1.77,2.13c-1.37-0.25-1.03-1.76-1.01-2.78c0.03-1.71,0.27-3.42,0.4-5.13
			c0.58-7.92,1.07-15.85,2.95-23.61c2.35-9.74,3.32-19.62,3.21-29.65c-0.04-3.73,0.25-7.49,0.77-11.18
			c0.71-5.01,1.87-9.99-3.72-13.16c-0.32-0.18-0.49-0.61-0.79-0.85c-1.77-1.41-3.69-0.95-5.56-0.32c-1.6,0.53-1.21,1.94-1.23,3.17
			c-0.02,0.77-0.15,1.55-0.35,2.3c-2.81,10.56-4.08,21.43-5.79,32.18c-1.96,12.37-3.79,24.79-4.8,37.31
			c-0.78,9.7-2.6,19.29-3.04,29.04c-0.39,8.74-1.76,17.35-3.52,25.91c-0.47,2.3-2.09,4.23-1.98,6.68c-11.86,0-23.72,0-35.57,0
			c2.18-8.97,2.35-18.2,3.61-27.29c1.53-11.02,2.46-22.13,3.67-33.2c0.85-7.74,1.65-15.49,2.64-23.21
			c0.77-6.02,1.41-12.11,2.84-17.98c1.09-4.47,1.14-9.13,2.78-13.47c0.2-0.53,0.09-1.26-0.08-1.84c-0.37-1.34-0.06-2.59,0.2-3.9
			c0.33-1.67,1.69-3.31,1.06-4.93c-0.78-1.97-1.02-3.59,0.21-5.45c0.57-0.86,0.24-1.98-0.44-2.85c-0.45-0.58-1.06-0.62-1.68-0.34
			c-2.05,0.9-3.84,2-4.41,4.45c-0.39,1.66-1.07,3.25-1.63,4.87c-1.26,3.6-2.93,7.04-3.78,10.8c-1.69,7.52-3.56,15.01-5.38,22.5
			c-1.97,8.1-3.23,16.33-5.18,24.43c-1.62,6.73-2.51,13.63-3.73,20.45c-2.07,11.5-5.17,22.77-8.05,34.09
			c-1.07,4.21-2.15,8.45-1.84,12.88c-95.95,0-191.91,0-287.86,0C44.65,794.19,38.3,791.5,31.93,788.82z M380.45,378.53
			c1.18-0.37,1.59,0.06,1.95,0.43c3.4,3.56,7.34,6.53,10.9,9.91c6.26,5.95,11.99,12.39,17.63,18.92
			c5.36,6.2,10.72,12.38,15.66,18.92c3.14,4.17,6.16,8.48,10.63,11.39c0.97,0.63,2.14,2.09,3.24,1.14c1.19-1.03,0.07-2.5-0.57-3.6
			c-3.71-6.4-7.34-12.86-11.28-19.13c-9.5-15.14-19.78-29.73-31.46-43.3c-4.43-5.14-8.6-10.52-13.64-15.09
			c-10.42-9.45-21.64-17.88-33.54-25.36c-14.41-9.06-29.31-17.25-45.45-22.87c-12.73-4.43-25.51-8.77-38.98-10.57
			c-3.54-0.47-7.09-1.01-10.4-2.61c-1.4-0.68-3-0.69-4.54,0.02c-1.72,0.79-3.62,0.87-5.48,1.08c-5.34,0.58-10.71,1.04-16.03,1.81
			c-19.04,2.75-37.4,7.85-54.56,16.68c-10.62,5.46-20.15,12.46-27.73,21.85c-2.09,2.59-3.67,5.41-4.09,8.79
			c-0.19,1.5,0.12,2.32,1.88,1.78c2.26-0.7,4.61-0.77,6.95-0.79c24.58-0.24,49.14-0.04,73.52,3.74c5.47,0.85,10.98,1.44,16.46,2.2
			c0.91,0.12,1.98,0.26,2.31,1.31c0.39,1.23-0.67,1.84-1.43,2.44c-2.38,1.89-4.76,3.76-7.22,5.54c-3.17,2.29-5.75,5.21-5.88,9.12
			c-0.15,4.57,0.15,9.26,1.08,13.72c1.32,6.35,2.75,12.6,2.22,19.16c-0.15,1.89-0.6,3.26-2.3,4.23c-3.38,1.94-6.71,3.96-10.03,6
			c-13.23,8.1-24.85,17.99-34.06,30.6c-13.08,17.91-19.76,37.79-18.03,60.04c0.82,10.5,3.55,20.6,9.54,29.53
			c1.69,2.52,3.39,5.08,5.72,7.07c1.89,1.63,4.42,1.04,4.8-1.18c0.56-3.28,2.35-5.92,3.94-8.67c6.52-11.31,14.34-21.69,22.47-31.89
			c9.99-12.53,21.26-23.65,34.18-33.08c17.87-13.05,37.22-23.46,58-31.01c17.79-6.47,36.07-11.13,54.99-12.93
			c10.72-1.02,21.45-2.16,32.03,1.13c0.64,0.2,1.52,0.42,1.75-0.54c0.2-0.85-0.55-1.25-1.22-1.47c-1.34-0.44-2.58-1.14-2.69-2.62
			c-0.3-4.12-3.36-5.76-6.43-7.31c-11.11-5.6-22.63-10.13-34.8-12.88c-17.12-3.87-34.42-5.84-52-5.1
			c-6.78,0.28-13.56,0.45-20.35,0.57c-3.22,0.05-3.99-1-3.15-4c1.77-6.32,4.3-12.35,7.39-18.13c1.8-3.37,2.6-7.03,2.86-10.74
			c0.11-1.61,0.44-1.91,1.8-1.64c3.06,0.6,6.15,1.08,9.17,1.84c17.01,4.3,34.03,8.52,50.3,15.3c14.68,6.11,29.58,11.71,42.13,21.92
			c1.39,1.13,2.03,2.23,1.13,3.75c-1.44,2.44-0.35,3.96,1.64,5.24c1.36,0.87,2.64,2.04,4.12,2.48c1.84,0.55,2.39,1.37,2.07,3.19
			c-0.34,1.94,0.97,3,2.62,3.22c2.56,0.35,4.9,1.8,5.48,4.25c0.43,1.81,1.51,2.98,2.73,4.22c4.54,4.6,10.19,7.67,15.44,11.29
			c1.37,0.94,2.79,1.8,4.24,2.74c0.36-0.97-0.18-1.41-0.52-1.9c-3.31-4.72-6.7-9.39-10.46-13.78c-1.47-1.72-2.89-3.48-4.27-5.27
			c-0.51-0.67-1.09-1.87,0.31-1.88c2.44-0.02,1.5-1.07,0.86-2.07c-0.67-1.05-1.51-1.99-2.19-3.03c-2.4-3.7-6.12-6.18-8.76-9.69
			c-3.98-5.31-8.42-10.21-13.49-14.56C386.3,385.5,383.49,382.07,380.45,378.53z M608.69,406.69c0.15,1.15-0.29,2.07,0.23,2.83
			c1.08,1.56,0.36,2.53-0.9,3.51c-4.8,3.73-8.62,8.59-13.81,11.87c-0.9,0.57-2.41,1.55-1.67,2.7c0.8,1.26,2.1-0.03,3.06-0.49
			c2.6-1.23,5.09-3.49,7.72-3.66c3.31-0.21,5.35-1.56,7.32-3.76c0.45-0.5,1.11-0.97,1.75-1.12c4.58-1.09,8.54-3.84,13.15-4.83
			c1.06-0.23,2.18-0.34,3.1-1c2.98-2.14,6.53-2.96,9.92-3.94c20.95-6.02,42.22-10.29,63.99-12.32c18.14-1.69,36.22-2.52,54.4-0.9
			c17.33,1.54,33.86,6.13,50.02,12.34c1.37,0.53,3.19,2.06,4.21,0.72c1.06-1.4-0.33-3.19-1.39-4.59c-1.38-1.82-2.96-3.84-2.7-6.08
			c0.38-3.31-1.39-5.09-3.54-6.85c-1.52-1.24-3.09-2.44-3.82-4.33c-0.82-2.12-2.26-3.66-4.04-5.02c-1.84-1.4-3.89-2.71-3.97-5.45
			c-0.02-0.65-0.61-1.05-1.1-1.45c-9.89-7.84-21.16-12.91-33.3-15.95c-13.71-3.43-27.75-4.16-41.81-3.9
			c-13,0.24-25.7,2.75-38.3,5.91c-18.46,4.63-35.71,12.05-52.05,21.74c-5.98,3.54-11.81,7.29-17.5,11.28
			c-0.48,0.33-0.99,1-1.63,0.53c-0.53-0.39-0.11-1.01,0-1.53c0.28-1.26,0.42-2.61-0.61-3.52c-1.61-1.42-0.97-2.58,0.2-3.73
			c2.84-2.78,5.61-5.65,8.58-8.28c10.2-9.02,21.66-16.33,33.01-23.77c9.06-5.94,18.22-11.75,27.77-16.91
			c12.48-6.75,24.94-13.54,37.44-20.25c6.86-3.68,13.66-7.52,21.2-9.78c4.18-1.25,8.34-2.57,12.63-3.44
			c1.35-0.27,2.85-0.56,3.03-2.4c0.2-2.13-1.04-4.45-3.14-4.96c-5.13-1.27-8.96-4.78-12.97-7.72c-5.25-3.85-10.96-6.54-16.91-8.85
			c-5.3-2.06-10.98-3.01-16.23-5.25c-3.9-1.67-8.03-2.25-12.2-2.83c-3.67-0.51-7.32-1.64-11.02-1.53
			c-7.69,0.25-14.59,3.02-20.79,7.54c-1.78,1.3-3.64,2.38-5.74,3.09c-5.05,1.69-9.87,3.84-14.05,7.26c-1.5,1.23-3.18,2.13-5.12,0.87
			c-1.94-1.26-2.11-3.13-1.64-5.18c0.26-1.14,0.83-2.31,0.42-3.44c-0.85-2.3,0.22-3.77,1.69-5.37c2.83-3.09,5.71-6.2,6.96-10.39
			c1.09-3.67,1.09-7.53,2.18-11.22c0.47-1.59,0.22-3.62-1.14-4.82c-2.2-1.95-3.81-4.79-7.21-5.17c-0.79-0.09-1.56-0.7-2.26-1.19
			c-1.76-1.24-3.35-1-4.86,0.4c-3.45,3.19-5.22,7.06-5.07,11.83c0.08,2.49-0.17,4.98-0.18,7.47c-0.01,2.93-1.19,5.88,0.13,8.78
			c1.39,3.06,1.93,6.05,0.84,9.48c-0.81,2.56-1.97,4.25-4.54,4.66c-7.52,1.21-15.02,1.43-22.43-0.82c-1.93-0.59-3.79-1.8-5.82-1.64
			c-4.87,0.38-6.67-3.68-9.5-6.24c-0.52-0.47-0.43-1.34-0.22-2.02c1.61-5.05,2.3-10.35,4.48-15.24c2.1-4.71,3.4-9.54,1.76-14.74
			c-2.58-8.17-8.9-11.98-17.36-9.52c-2.83,0.83-4.78,2.82-7.02,4.48c-3.81,2.81-5.85,6.65-6.42,11.25
			c-0.51,4.1-0.72,8.27-2.08,12.17c-1.19,3.43-1.54,7.28-4.03,10.13c-3.94,4.53-5.35,9.69-4.71,15.59c0.59,5.48,4.25,9.1,9.84,9.35
			c1.59,0.07,2.31,0.91,2.2,2.38c-0.08,0.99-0.35,2-0.71,2.93c-3.68,9.45-7.17,18.96-8.59,29.08c-0.23,1.64-1.02,2.71-2.79,2.96
			c-1.57,0.23-2.5,1.22-2.69,2.81c-0.19,1.64-0.01,3.27,0.37,4.87c0.21,0.9,0.74,1.66,1.68,1.74c2.3,0.19,2.51,1.78,2.44,3.51
			c-0.12,2.95-0.36,5.9-0.47,8.85c-0.11,2.97-0.24,6.06,1.71,8.53c1.09,1.38,1.46,2.77,1.72,4.44c0.37,2.43,0.15,5.11,1.45,7.2
			c0.94,1.51,1.4,2.93,1.26,4.58c-0.36,4.19-0.49,8.42-1.93,12.44c-0.59,1.64-0.54,3.24-0.18,5.02c0.62,3.03,1.02,6.27-0.39,9.19
			c-2.2,4.58-3.75,9.41-5.71,14.08c-0.47,1.11-1.4,2.92,0.14,3.53c1.53,0.6,2.25-1.27,2.91-2.46c0.41-0.74,0.64-1.59,0.85-2.42
			c0.45-1.82,0.84-3.65,1.26-5.47c0.19-0.84,0.32-1.76,1.3-2.06c2.38-0.74,2.66-2.66,2.59-4.68c-0.11-3.17,1.27-6.06,1.51-9.16
			c0.04-0.46,0.26-1.12,1.07-0.95c0.55,0.76,0.27,1.67,0.47,2.48c0.29,1.12-0.39,3.03,1.09,3.15c1.27,0.1,1.42-1.82,1.84-2.94
			c1.02-2.75,1.49-5.65,2.09-8.93c0.69,1.41,0.39,2.41,0.31,3.38c-0.3,3.51-1.17,6.91-2.05,10.31c-0.24,0.94-0.6,2.05,0.96,1.97
			c2.16-0.11,1.73,1.22,1.23,2.26c-2.08,4.34-2.08,8.86-1.58,13.51c0.34,3.18,0.31,6.36-1.87,9.14c-0.94,1.2-0.82,2.81-0.39,4.29
			c0.13,0.46,0.4,0.86,0.93,0.94c0.44,0.07,0.84-0.19,0.92-0.56c0.69-3.01,3.72-5.04,3.47-8.46c-0.06-0.83,0.25-1.69,0.44-2.53
			c0.14-0.62,0.33-1.28,1.09-1.35c0.66-0.06,0.93,0.46,1.13,1c0.61,1.67,1.18,1.07,1.7-0.04c0.83-1.77,1.24-3.67,1.76-5.55
			c0.8-2.92,1.97-5.73,3.08-8.89c1.26,2.15-0.62,3.82,0.31,6.28c1.25-3.02,2.37-5.42,3.22-7.91c0.54-1.59,1.23-2.73,3.07-2.51
			c4.24,0.5,7.34-1.36,9.84-4.59c0.95-1.23,1.99-2.41,3.09-3.51c1.26-1.25,2.17-3.06,3.98-3.51c2.02-0.49,3.49-1.6,4.86-3.03
			c0.61-0.63,1.24-1.83,2.23-1.31c1.12,0.58,0.46,1.84,0.31,2.78c-0.97,5.77-2.28,11.43-5.09,16.64c-0.41,0.77-0.66,1.6-0.55,2.48
			c0.1,0.84,0.07,1.82,1.03,2.2c0.86,0.34,1.48-0.31,2.06-0.82c1.87-1.65,3.68-3.37,5.59-4.98
			C605.74,408.41,606.82,407.12,608.69,406.69z M425.24,450.88c-0.32-0.95-1.03-0.81-1.61-0.89c-5.96-0.8-11.93-0.27-17.63,1.22
			c-15.61,4.09-29.6,11.62-42.03,21.81c-14.8,12.13-25.08,27.61-32.16,45.29c-7.18,17.91-9.89,36.49-8.26,55.69
			c0.79,9.32,3.54,17.8,10.32,24.71c3.58,3.64,8.31,5.36,12.4,8.12c1.77,1.2,3.58,2.78,5.75,3.36c3.7,0.98,7.3,2.16,10.79,3.74
			c2.49,1.12,6.93-0.13,8.5-2.41c0.4-0.58,0.77-1.22,1.28-0.23c1.02,1.98,3.03,3.34,2.72,6.16c-0.27,2.39,1.19,3.2,3.51,2.47
			c1.7-0.53,3.44-0.96,4.96-2.02c2.24-1.55,4.22-1.15,5.87,1.03c2.82,3.72,8.27,3.44,10.35-0.74c4.1-8.23,8.19-16.47,11.91-24.88
			c3.51-7.94,7.8-15.44,12.02-22.98c3.84-6.87,8.26-13.43,11.86-20.41c6.92-13.44,14.06-26.79,20.4-40.52
			c2.52-5.45,4.95-10.94,7.43-16.4c0.28-0.62,0.39-1.54,1.15-1.65c0.92-0.13,0.85,0.94,1.25,1.46c1.1,1.41,1.37,3.06,1.71,4.77
			c0.51,2.5,0.83,5.08,2.18,7.36c1.52,2.57,2.08,5.38,1.73,8.31c-0.22,1.9,0.12,3.54,1.25,5.07c0.62,0.84,0.9,2.15,2.38,1.77
			c1.29-0.34,2.23-1.15,2.52-2.5c0.31-1.45,0.46-2.93,0.82-4.37c0.55-2.21,0.24-3.76-2.32-4.44c-1.6-0.43-1.72-1.59-0.44-2.52
			c1.7-1.22,3.42-2.42,5.21-3.52c2.06-1.26,2.21-4.59-0.01-5.53c-2.29-0.97-4.38-2.36-6.85-2.96c-2.46-0.6-6.28-5.4-6.42-7.89
			c-0.03-0.61,0.06-1.26,0.25-1.84c0.34-1.03,0.78-2.04,1.21-3.04c2.57-5.95,6.44-11.21,8.91-17.22c0.2-0.49,0.83-0.95,0.36-1.46
			c-0.99-1.07-0.97-2.42-1.3-3.68c-0.21-0.81-0.6-1.5-1.66-0.9c-2.65,1.52-2.66,1.52-3.81-1.39c-1.21-3.05-3.89-3.49-5.89-0.96
			c-0.49,0.61-1.04,1.26-0.64,2.1c0.36,0.77,1.11,0.72,1.84,0.67c1.39-0.11,1.97,0.41,1.3,1.79c-0.87,1.8-0.66,3.44,0.53,5.04
			c0.65,0.87,0.42,2-0.67,1.86c-2.7-0.36-5.39,0.39-8.05-0.15c-0.46-0.09-0.99-0.14-1.11-0.68c-0.13-0.58,0.39-0.78,0.79-1.02
			c0.55-0.33,0.78-0.66,0.33-1.3c-2.02-2.91-2.1-6.51-3.29-9.72c-0.38-1.02-0.24-2.3-1.61-2.49c-1.83-0.25-3.66-0.07-4.8,1.65
			c-0.76,1.15-0.52,2.23,0.37,3.41c1.11,1.48,1.87,3.23,2.91,5.09c-2.91,0.07-5.43,0.11-7.97-0.58c-3.38-0.92-6.79-1.83-10.24-2.36
			c-4.89-0.76-9.19-3.46-14.1-4.09c-0.67-0.09-1.4-0.45-1.4-1.33c0.01-0.74,0.62-1.06,1.2-1.3
			C422.54,451.91,423.9,451.41,425.24,450.88z M481.01,420.07c0.88,1.51,0.62,2.97,0.53,4.44c-0.24,3.73-0.47,7.47-0.65,11.21
			c-0.04,0.72-0.23,1.8,0.85,1.87c0.98,0.06,1.05-0.97,1.25-1.71c0.04-0.15,0.05-0.31,0.07-0.46c0.82-7.98,2.4-15.87,2.97-23.89
			c0.22-3.11,0.65-6.21,2.38-8.96c1.01-1.6,0.85-3.08-0.54-4.43c-1.48-1.43-1.81-3.05-1.29-5.11c1.27-5.02,1.56-10.16,1.17-15.32
			c-0.18-2.42-0.57-4.75-3.64-5.19c-0.48-0.07-1.03-0.41-1.02-0.85c0.03-2.52-0.81-5.33,0.93-7.42c1.34-1.61,1.62-3.14,1.24-4.94
			c-0.92-4.3-1.14-8.62-0.69-13c0.23-2.17,0.43-4.35,0.41-6.53c-0.18-14.66-2.35-29.05-6.17-43.19c-0.98-3.62-2.41-7.11-4.37-10.31
			c-3.35-5.45-8.21-8.79-14.73-7.99c-5.26,0.65-10.48,1.37-15.79,1.23c-1-0.03-2.02,0.17-3,0.4c-1.51,0.37-2.72,1.16-3.25,2.73
			c-0.72,2.12-2.28,2.53-4.3,2.16c-1.33-0.25-2.53-0.75-3.69-1.42c-3.83-2.2-7.74-2.74-11.81-0.62c-0.41,0.21-0.89,0.27-1.33,0.45
			c-6.46,2.63-13.41,3.43-20.02,5.45c-3.55,1.08-7.27,0.84-10.8,1.86c-2.27,0.65-3.08,2.02-3,4.31c0.26,7.11,2.9,13.3,7.1,18.9
			c3.37,4.5,6.78,9.01,9.36,13.98c3.56,6.87,8.03,12.95,13.53,18.34c5.63,5.51,10.98,11.29,15.68,17.64
			c2.1,2.84,3.71,5.81,4.18,9.47c1.29,10.05,2.86,20.07,4.31,30.1c0.29,1.96,0.71,3.89,1.42,5.73c0.25-0.03,0.49-0.07,0.74-0.1
			c-1.32-11.97-2.64-23.95-3.96-35.92c0.23-0.03,0.46-0.07,0.68-0.1c0.41,2.08,1.07,4.02,2.35,5.77c0.87,1.2,1.44,1.81,2.35,0.12
			c0.54,0.72,0.47,1.37,0.39,1.97c-0.61,4.68-0.2,9.34,0.09,14.01c0.18,2.95,0.11,5.89-0.3,8.86c-1.03,7.46,1.36,14.49,3.06,21.6
			c0.05,0.21,0.21,0.4,0.62,1.16c1.49-6.28,0.24-12.1,1.16-17.79c0.82,0.27,0.86,0.69,1.05,1.02c1.56,2.71-0.31,5.34-0.17,7.98
			c0.41,7.55,0.94,15.09,2.32,22.54c0.06,0.33,0.29,0.55,0.93,0.35c0.12-6.92-1.08-13.93-0.09-20.96c0.99,3.18,3.13,6,2.36,9.56
			c-0.46,2.11-0.25,4.26,0.73,6.17c1.39,2.72,2.53,5.52,3.49,8.41c0.19,0.56,0.33,1.41,1.12,1.23c0.78-0.17,0.59-1.02,0.52-1.6
			c-0.24-2.25-0.57-4.47-1.32-6.63c-0.55-1.62-1.03-3.54,1.03-4.5c1.43-0.66,2.05-1.76,2.73-3.02c1.48-2.7,2.56-5.51,2.53-8.88
			c1.04,0.73,0.84,1.39,0.85,1.99c0.05,6.8,0.76,13.54,2.08,20.21c0.21,1.08,0.4,2.38,1.79,2.37c1.45,0,2.2-1.14,2.4-2.46
			c0.15-1.06,0.13-2.19-0.04-3.25c-0.46-2.85-1.08-5.67-1.57-8.51c-1.01-5.82-3.57-11.3-3.72-17.33c-0.07-2.8-0.18-5.69-0.96-8.35
			c-1.28-4.39-1.05-8.79-1.01-13.22c0.01-0.62,0.07-1.25,0.18-1.86c0.08-0.46,0.26-0.96,0.86-0.94c0.44,0.01,0.66,0.41,0.76,0.78
			c0.23,0.9,0.45,1.82,0.61,2.73c0.31,1.69,0.53,3.39,0.89,5.07c0.17,0.83,0.44,1.84,1.5,1.83c1.16-0.01,1.1-1.11,1.27-1.92
			c0.29-1.37,0.55-2.75,0.88-4.11c0.1-0.44,0.29-0.98,0.85-0.98c0.59,0,0.69,0.58,0.79,1.02c0.37,1.6,0.73,3.19,1.03,4.8
			c1.47,7.88,4.15,15.54,4.51,23.63c0.03,0.76,0.28,1.53,0.52,2.27c0.23,0.71,0.72,1.24,1.53,1.22c0.84-0.02,1.23-0.63,1.4-1.35
			C480.47,422.63,480.73,421.35,481.01,420.07z M523.63,403.73c0.96,1.24,0.71,2.21,0.73,3.11c0.05,2.82-0.46,5.59-0.79,8.37
			c-0.07,0.56-0.32,1.41,0.54,1.54c0.61,0.09,0.83-0.64,1.01-1.14c0.41-1.17,0.79-2.37,1.13-3.56c0.26-0.91,0.46-2.19,1.24-2.43
			c4.15-1.27,3.11-3.58,2.67-7c-0.48-3.76,1.47-7.83,2.39-11.75c0.07-0.28,0.3-0.57,0.54-0.75c3.43-2.51,2.8-6.3,3.08-9.8
			c0.03-0.4-0.13-0.85-0.55-0.93c-1.68-0.3-1.46-1.61-1.46-2.74c-0.02-3.59,0.07-7.22-0.84-10.7c-1.33-5.12-1.61-10.3-1.53-15.53
			c0.01-0.85,0.05-1.72-0.09-2.56c-0.18-1.09-0.86-1.84-2-2.01c-1.12-0.16-1.98,0.3-2.52,1.3c-0.37,0.68-0.53,1.68-1.09,2.02
			c-2.97,1.8-2.21,4.22-1.46,6.79c1.91,6.59,2.67,13.46,3.67,20.17c0.9,6.05-0.74,12.53-2.37,18.66c-0.2,0.76-0.43,2-1.42,1.87
			c-1-0.13-0.85-1.38-0.88-2.18c-0.1-2.58-0.19-5.15-1.05-7.61c-0.33-0.95-0.6-2.16-1.84-2.13c-1.38,0.04-1.59,1.35-1.79,2.4
			c-0.53,2.84-0.71,5.72-0.66,8.61c0.02,1.18,0,2.38-0.96,3.26c-1.37,1.26-1.54,2.84-1.21,4.52c0.3,1.55,0.38,3.1,0.22,4.66
			c-0.6,5.94-0.1,11.84-1.77,17.87c-1.71,6.18-0.81,13,0.02,19.53c0.08,0.63,0.21,1.29,0.96,1.45c0.82,0.18,1.3-0.38,1.69-0.99
			c0.52-0.8,0.78-1.71,0.87-2.64c0.23-2.48,0.4-4.97,0.63-7.45c0.71-7.55,0.03-15.24,2.3-22.64
			C521.96,410.27,522.7,407.18,523.63,403.73z M206.95,525.96c0.22,2.58,0.66,5.28,1.98,7.71c2.29,4.24,6.32,5.71,10.77,5.81
			c4.9,0.11,8.9-1.79,11.28-6.44c3.76-7.33,4.72-14.65,1.08-22.41c-2.04-4.35-3.19-5.54-7.9-5.73c-0.54-0.02-1.1-0.09-1.61-0.25
			c-1.66-0.53-3.03-0.04-4.33,1c-2.4,1.93-4.27,4.34-5.98,6.83C209.47,516.49,207.34,520.81,206.95,525.96z M489.78,444.9
			c0.21-0.04,0.42-0.07,0.63-0.11c0.21,0.31,0.41,0.63,0.64,0.92c0.53,0.68,0.2,2.21,1.47,2.06c1.14-0.14,1.27-1.43,1.53-2.4
			c0.12-0.45,0.2-0.91,0.26-1.38c0.53-3.77,1.74-7.39,2.45-11.13c0.5-2.63,0.88-5.23,0.72-7.85c-0.43-7.44,0.47-14.76,1.64-22.07
			c0.21-1.3,0.24-2.49-0.53-3.58c-1.88-2.68-1.91-5.7-0.89-8.51c1.64-4.51,0.52-8.89,0.04-13.32c-0.16-1.48-1.28-2.69-2.77-1.95
			c-2.11,1.03-4.21,2.16-4.53,5.13c-0.48,4.47,0.39,8.87,0.21,13.31c-0.13,3.24-0.55,6.47,0.29,9.74c0.44,1.69,1.47,3.09,1.76,4.8
			c0.91,5.25,1.36,10.5,0.4,15.79c-0.17,0.93-0.3,1.86-0.94,2.6c-1.09,1.25-1.39,2.77-1.46,4.35c-0.11,2.64-0.43,5.28-0.21,7.94
			c0.08,0.95,0.17,1.99-1.24,3.32c0.03-5.14-0.64-9.65,0.62-14.14c0.3-1.05,0.87-2.2-0.07-3.08c-1.27-1.18-1.99-2.54-2.28-4.21
			c-0.08-0.45-0.33-0.96-0.9-0.9c-0.56,0.06-0.66,0.6-0.79,1.04c-0.42,1.36-0.39,2.77-0.45,4.17c-0.22,5.46,0.51,10.89,0.54,16.34
			c0.01,1.21,0.01,2.32-1.24,3.28c-1.42,1.09-0.98,4.31,0.52,5.42c1.43,1.07,1.24,2.18-0.04,2.99c-2.46,1.56-2.36,4.04-2.55,6.41
			c-0.08,1.01,0.35,1.84,1.64,1.75c4.45-0.32,5.84-1.78,5.82-6.3C490.08,451.86,490.24,448.38,489.78,444.9z M61.49,238.41
			c0.21-2.31-0.16-4.51-1.12-6.62c-2.41-5.32-6.52-9.01-11.38-12.02c-4.84-3-11.51-0.49-13.02,4.95
			c-2.05,7.41,1.73,15.17,8.77,18.32c4.13,1.85,8.55,1.58,12.86,1.96c1.93,0.17,3.26-1.37,3.65-3.34
			C61.46,240.61,61.42,239.5,61.49,238.41z M564.6,449.1c0.11,0.58-0.09,1.27,0.58,1.47c0.89,0.26,1.19-0.57,1.58-1.1
			c5.14-7.17,10.97-13.75,17.12-20.06c2.55-2.62,5.05-5.35,6.61-8.71c2.33-5.01,4.52-10.09,6.72-15.16
			c0.35-0.81,1.02-1.88,0.13-2.59c-1.01-0.81-1.67,0.39-2.34,0.92c-8.97,7.27-17.22,15.29-24.88,23.94
			c-0.87,0.99-1.25,2.14-1.39,3.4c-0.62,5.36-1.8,10.59-3.59,15.68C564.89,447.61,564.77,448.39,564.6,449.1z M548.23,382.67
			c0.15-2.08-0.91-3.53-2.48-4.73c-0.84-0.64-1.24-0.45-1.81,0.43c-1.95,3.03-3.76,6.08-4.43,9.69c-0.22,1.21-0.92,2.04-2.35,2.21
			c-2.75,0.33-3.39,1.2-2.9,4.08c1.75,10.4,1.51,20.76-0.51,31.1c-0.82,4.2-1.68,8.4-2.55,12.6c-0.21,0.99-0.47,2.1-1.63,2.38
			c-2.26,0.54-1.6,2.33-1.72,3.79c-0.03,0.39,0.16,0.79,0.6,0.89c0.45,0.1,0.8-0.17,0.91-0.56c0.38-1.28,1.3-1.83,2.52-2.14
			c0.65-0.16,0.89-0.83,1.09-1.44c0.59-1.77,1.24-3.51,1.69-5.34c2.55-10.38,3.69-21.06,8.61-30.91
			C546.66,397.98,547.61,390.26,548.23,382.67z M399.4,265.55c-0.05-1.37,0.73-2.87-0.23-4.1c-1.63-2.08-2.25-4.61-3.32-6.93
			c-1.29-2.82-3.92-3.9-6.4-3.95c-2.6-0.05-5.13,1.15-6.7,3.91c-2.14,3.78-2.56,7.8-2.27,11.9c0.17,2.4,0.42,5.09,2.66,6.75
			c3.77,2.79,12.23,1.38,15.07-2.27C399.51,269.2,399.46,267.42,399.4,265.55z M337.88,264.53c-0.03-5.11-2.82-8.23-7.83-9.19
			c-1.15-0.22-2.33-0.26-3.33-0.97c-2-1.41-3.92-1.2-5.82,0.25c-0.93,0.7-1.94,1.7-3.13,1.26c-3.04-1.13-5.31,0.69-7.64,1.9
			c-1.8,0.93-2.81,2.74-2.63,4.87c0.16,1.98,1,4.04,3.03,4.27c3.72,0.41,7.42,1.73,11.28,0.5c2.73-0.87,5.56-0.96,8.03,0.95
			c1.31,1.02,2.62,2.32,4.37,1.31C336.3,268.46,337.63,266.57,337.88,264.53z M939.64,574.38c5.13-0.05,7.86-2.8,7.76-7.81
			c-0.02-1.15-0.21-2.36-1.43-2.68c-4.45-1.14-8.9-3.14-13.35,0.2c-1.45,1.09-2.09,2.16-1.61,3.93
			C932.13,572.21,935.11,574.42,939.64,574.38z M503.7,377.64c0.01,1.81,0.44,2.85,1.47,3.16c1.34,0.4,2.46-0.09,3.35-1.09
			c0.84-0.95,0.5-2.02,0.26-3.1c-1.72-7.5-3.14-15.04-2.43-22.81c0.2-2.24-1.3-4.31-3.02-4.27c-1.93,0.04-3.04,1.77-2.84,4.28
			c0.13,1.75,1.2,3.2,1.44,4.91C502.8,364.99,505,371.15,503.7,377.64z M500.58,452.25c0.01,1.36-0.14,3.06,1.89,3.03
			c1.76-0.03,2.48-1.05,2.42-2.95c-0.29-8.64-0.45-17.29-0.65-25.93c-0.03-1.34,0.14-2.65,0.76-3.86c0.57-1.12,0.42-2.12-0.52-2.96
			c-0.74-0.65-1.63-0.99-2.6-0.68c-1.26,0.41-1.53,1.52-1.46,2.65c0.11,1.94,0.55,3.88,0.49,5.8
			C500.65,435.64,501.78,443.96,500.58,452.25z M523.07,669.54c2.48-0.38,5.02-1.27,6.44-3.54c1.7-2.74,3.5-5.3,5.9-7.48
			c1.13-1.02,1.01-2.06-0.67-2.55c-3.5-1.02-9.16,1.05-11.24,4.12c-1.05,1.55-2.1,3.09-3.16,4.62c-0.68,0.99-1.34,2.01-0.62,3.22
			C520.41,669.12,521.6,669.46,523.07,669.54z M510.89,389.39c0.22,0.02,0.45,0.04,0.67,0.06c0.65-3.42,1.08-6.88,1.04-10.37
			c-0.02-2.4,0.07-4.64,1.89-6.5c0.84-0.86,0.86-2.13,0.96-3.31c0.21-2.48,0.37-5,1.42-7.3c0.64-1.42,1.06-2.64-0.61-3.59
			c-1.87-1.06-5.08-0.88-5.8,0.47c-1.22,2.28-1.97,4.51-1.15,7.33c1.42,4.89,2.98,9.82,2.06,15.12
			C510.9,383.95,511.03,386.69,510.89,389.39z M380.9,628.16c-0.88,0.02-1.47,0-1.74,0.61c-0.33,0.75,0,1.42,0.5,1.92
			c1.39,1.4,1.28,2.86,0.39,4.46c-0.62,1.1-0.85,2.35-0.97,3.59c-0.25,2.65-0.78,5.21-1.71,7.72c-0.59,1.6-0.96,3.28-1.38,4.94
			c-0.3,1.17-0.29,2.36,0.64,3.28c0.68,0.67,1.45,0.34,2.16-0.02c1.18-0.58,1.73-1.52,1.57-2.85c-0.1-0.85-0.08-1.74-0.35-2.53
			c-0.55-1.61-0.38-3.01,0.59-4.41c0.52-0.75,0.81-1.68,1.12-2.55c1.41-3.95,2.46-8.05,5.3-11.33c0.66-0.77,0.63-1.47-0.49-1.71
			C384.56,628.83,382.57,628.48,380.9,628.16z M498.9,468.25c-0.09-1.06-0.15-2.23-0.32-3.38c-0.11-0.78,0.25-1.98-0.93-2.09
			c-0.95-0.09-1.48,0.88-1.71,1.68c-1.01,3.59-1.85,7.23-2.02,10.98c-0.07,1.4,0.57,2.43,2,2.76c1.92,0.44,3.61-0.2,4.81-1.65
			c0.98-1.17,0.7-2.55-0.4-3.57C498.94,471.69,498.42,470.2,498.9,468.25z M848.17,456.12c-0.22-2.09-0.52-4.33-1.3-6.47
			c-0.16-0.44-0.39-0.9-0.95-0.88c-0.58,0.02-0.73,0.53-0.81,0.99c-0.08,0.46-0.1,0.93-0.11,1.39c-0.05,4.17-1.23,7.96-3.65,11.38
			c-0.75,1.07-1.61,2.13-1.78,3.51c-0.08,0.64-0.01,1.26,0.6,1.66c0.62,0.4,1.21,0.2,1.73-0.19
			C845.64,464.69,847.92,461.05,848.17,456.12z M498,555.72c0.99-0.28,1.81-0.71,2.63-0.71c5,0.02,5.96-4.3,8.02-7.41
			c0.36-0.54,0.56-1.39-0.08-1.95c-0.67-0.58-1.34-0.19-1.85,0.33c-2.89,2.91-5.44,6.19-9.01,8.38c-0.33,0.2-0.58,0.61-0.34,1
			C497.5,555.58,497.86,555.65,498,555.72z M674.04,235.93c0.06-1.15,0.17-1.63,0.08-2.07c-0.32-1.62-1.54-2.87-2.95-2.76
			c-1.57,0.12-0.91,1.83-0.83,2.91c0.14,1.93,1.33,3.72,0.49,5.83c-0.31,0.78,0.66,1.67,1.35,2.31c0.54,0.5,1.18,0.82,1.9,0.46
			c0.77-0.39,0.68-1.1,0.58-1.82C674.41,238.94,674.19,237.1,674.04,235.93z M470.92,415.66c-1.67,3.36,0,17.46,2.23,19.47
			C472.78,428.6,472.99,422.25,470.92,415.66z M493.73,492.03c0.78-0.03,1.52,0.11,1.99-0.6c0.25-0.38,0.19-0.81-0.13-1.06
			c-1.84-1.43-3.63-2.99-6.06-3.32c-1-0.14-1.91,0.19-2.3,1.21c-0.39,1.01,0.36,1.57,1.05,2.11
			C489.93,491.62,491.9,491.72,493.73,492.03z M488.98,472.17c0-0.04-0.01-0.44-0.09-0.81c-0.36-1.59-2.16-2.91-3.45-2.42
			c-1.9,0.72-1.02,2.1-0.64,3.33c0.14,0.45,0.24,0.93,0.49,1.31c0.69,1.06,0.49,3.3,1.92,3.09c1.73-0.26,1.45-2.44,1.77-3.91
			C488.99,472.68,488.98,472.6,488.98,472.17z M628.88,736.46c0.7-0.01,1.49,0.08,1.88-0.64c0.42-0.79-0.35-1.24-0.71-1.81
			c-1.2-1.93-3.16-2.39-5.17-2.73c-1.55-0.26-1.9,0.65-1.23,1.79C624.79,735.03,626.47,736.35,628.88,736.46z M952.57,313.47
			c0.8-0.01,1.42-0.24,1.72-0.82c0.55-1.04,1.2-1.94,2.24-2.57c0.51-0.31,0.57-0.91,0.2-1.44c-0.37-0.53-0.93-0.63-1.42-0.26
			c-0.92,0.7-1.92,0.86-3.04,0.84c-1.21-0.03-2.24,0.45-2.04,1.88C950.41,312.46,951.31,313.29,952.57,313.47z M537.51,465
			c1.96,0.4,2.78-0.44,3.27-1.7c0.31-0.79,0.64-1.72-0.14-2.37c-1.13-0.94-2.16,0.01-3.19,0.42c-0.07,0.03-0.14,0.06-0.2,0.11
			c-1.04,0.8-3.04,1.16-2.62,2.75C534.95,465.47,536.82,464.74,537.51,465z M428.22,578.35c0.35,1.2-0.34,3.46,1.33,3.63
			c1.69,0.17,1.63-2.1,1.98-3.43c0.33-1.26,0.45-2.63-0.62-3.7c-0.35-0.35-0.85-0.39-1.29-0.11
			C428.34,575.55,428.27,576.87,428.22,578.35z M413.25,642.88c0.13,1.16,0.19,2.32,0.4,3.45c0.16,0.84,0.49,1.79,1.59,1.65
			c1.21-0.16,1.66-1.2,1.52-2.24c-0.15-1.13-0.61-2.22-1.01-3.31c-0.36-0.97-0.45-2.68-1.57-2.52
			C412.72,640.14,413.65,641.86,413.25,642.88z M415.22,619.36c-1.51,3.24-2.35,6.57-2.23,10.09c0.01,0.45-0.02,1.06,0.52,1.18
			c0.7,0.15,0.9-0.51,1.04-1C415.53,626.26,415.19,622.8,415.22,619.36z M813.46,618.28c1.2,0.05,2.24-0.22,2.21-1.52
			c-0.03-1.54-1.01-2.7-2.46-2.94c-1.22-0.2-2.39,0.67-2.45,1.92C810.69,617.44,812.17,617.91,813.46,618.28z"/>
		<path class="st0" d="M674.59,799.12c1-2.24,0.72-4.71,1.22-7.03c0.23-1.06-0.19-1.53-1.16-1.5c-1.16,0.03-2.33,0.2-3.49,0.33
			c-1.85,0.21-2.35-0.38-1.52-2.05c0.76-1.53,1.62-3.06,2.88-4.24c3.47-3.26,7.4-5.69,12.21-6.4c4.23-0.63,6.96-3.56,9.84-6.28
			c0.45-0.42,0.75-1.18,1.25-1.33c2.76-0.8,3.71-3.41,4.73-5.44c1.45-2.89,3.39-5.39,5.05-8.09c1.59-2.58,4.17-3.97,7.03-4.07
			c4.27-0.15,7.25-2.71,10.3-4.98c3.39-2.52,6.73-5.08,10.5-7c0.94-0.48,0.88-1.27,0.66-2c-0.92-3.01,0.19-6.16-0.88-9.24
			c-0.55-1.59,0.94-3.41,1.94-4.84c1.74-2.48,3.75-4.76,5.68-7.1c0.29-0.35,0.69-0.76,1.1-0.84c4.03-0.78,6.28-4.17,9.26-6.42
			c2.16-1.62,3.28-4.39,5.83-5.89c2.35-1.38,4.12-1.1,5.05,1.52c0.7,1.98,1.37,3.99,1.88,6.03c0.73,2.96,1.93,5.65,3.68,8.15
			c0.45,0.65,0.98,0.95,1.67,1.13c0.91,0.24,1.79,0.56,2.51,1.2c0.48,0.43,0.9,0.94,0.56,1.63c-0.33,0.69-1.03,0.77-1.62,0.53
			c-1.14-0.47-1.83-0.54-1.96,1.04c-0.07,0.9-0.93,0.8-1.68,0.68c-4.31-0.65-8.02,0.92-11.28,3.49c-1.64,1.29-3.12,2.7-5.02,3.71
			c-5.72,3.02-8.82,11-3.19,17.23c1,1.11,0.92,2.03,0.36,3.15c-1.37,2.77-2.22,5.63-1.63,8.76c0.15,0.8-0.13,1.57-0.55,2.23
			c-1.93,3.02-1.88,6.21-0.7,9.42c0.69,1.87,0.24,2.67-1.78,3.03c-4.49,0.82-8.69,0-12.75-1.84c-1.55-0.7-2.91-0.96-4.31,0.3
			c-0.83,0.75-1.84,0.99-2.66-0.06c-1.24-1.58-2.81-1.53-4.44-0.95c-1.78,0.63-3.57,1.1-5.46,1.21c-0.87,0.05-1.71,0.35-2.32,0.99
			c-3.22,3.4-7.29,4.94-11.83,5.33c-2.8,0.24-5.19,2.2-8.12,1.84c-0.46-0.06-4.46,5.21-4.47,5.71c-0.04,2.09,2.96,4.53,5.08,4.31
			c3.02-0.32,6.03-0.2,8.96,0.74c3.33,1.08,6.68,0.39,9.91-0.32c1.88-0.41,3.73-1.11,5.67-1.28c3.84-0.34,7.4-1.75,11.06-2.79
			c1.27-0.36,2.44-0.65,3.48,0.38c1.13,1.13,0.15,2.11-0.22,3.19c-0.54,1.56-2.25,2.75-1.53,4.71
			C711.1,799.12,692.85,799.12,674.59,799.12z"/>
		<path class="st0" d="M780.84,799.12c-0.69-3.92-2.19-7.11-6.39-8.53c-2.78-0.95-5.4-2.39-8.3-3.07c-0.66-0.15-1.29-0.55-1.87-0.92
			c-0.59-0.38-1.2-0.87-1.02-1.68c0.18-0.81,0.93-1.04,1.63-1.1c2.56-0.2,5.12-0.41,7.68-0.47c8.95-0.21,17.65,1.58,26.24,3.75
			c3.54,0.9,7.16,1.35,10.65,2.45c1.06,0.33,2.13,0.66,2.66,1.72c1.24,2.53,3.56,3.82,5.82,5.15c1.24,0.72,2.33,1.54,3.16,2.7
			C807.68,799.12,794.26,799.12,780.84,799.12z"/>
		<path class="st0" d="M930.16,799.12c-0.29-3.76-2.6-7.25-1.49-11.21c0.42-1.5,0.68-3.04,1.13-4.53c0.74-2.44,3.08-3.04,4.87-1.14
			c1.22,1.29,2.45,2.72,3.18,4.31c1.96,4.28,5.88,7.56,6.36,12.57C939.52,799.12,934.84,799.12,930.16,799.12z"/>
		<path class="st0" d="M441.96,200.92c-0.89,2-2.75,2.89-4.51,3.87c-2.65,1.48-5.61,2.28-8.27,3.79c-4.36,2.48-7.71,1.15-9.45-3.64
			c-0.48-1.31-0.79-2.68-1.18-4.03C426.36,200.92,434.16,200.92,441.96,200.92z"/>
		<path class="st0" d="M851.05,799.12c0.04-0.07,0.07-0.14,0.12-0.2c2.79-3.64,12.57-3.51,14.86,0.2
			C861.04,799.12,856.05,799.12,851.05,799.12z"/>
		<path class="st0" d="M874.37,709.19c0.02,2.06,0.18,3.94-2.26,4.92c-2.71,1.08-5.31,2.67-7.78-0.38
			c-0.46-0.56-1.06-0.91-1.82-0.94c-4.1-0.14-7.27-2.02-10.29-4.76c-3.25-2.96-7.47-3.31-11.44-1.78c-4.06,1.57-6.56,1.8-8.82-4.25
			c-1.36-3.66-2.87-7.27-1.67-11.31c0.08-0.29,0.03-0.62,0-0.93c-0.4-4.04-0.39-4.04,3.35-5.68c2.88-1.27,5.69-1.81,8.75-0.31
			c1.78,0.87,3.95,0.65,5.79,1.69c1.65,0.93,3.04,2,4.32,3.44c2.35,2.64,5.66,3.86,9,4.61c2.48,0.56,4.45,1.75,6.32,3.32
			c0.36,0.3,0.66,0.7,1.06,0.91C873.65,700.21,873.66,704.87,874.37,709.19z"/>
		<path class="st0" d="M804.65,677.39c0.01-2.16,1-3.53,2.35-4.66c1.56-1.3,3.01-2.63,4.07-4.42c0.92-1.56,5.74-1.12,6.53,0.47
			c0.24,0.49,0.02,0.9-0.23,1.3c-1.59,2.49-2.82,5.17-4.1,7.83c-1.05,2.18-3.2,3.13-5.13,4.21c-1.19,0.66-2.31-0.07-2.73-1.37
			C805.02,679.57,804.85,678.33,804.65,677.39z"/>
		<path class="st0" d="M574.97,392.61c0.68-4.43,1.62-8.93,2.89-13.36c0.8-2.77,1.47-5.58,2.33-8.33c0.44-1.43,1.16-2.74,3.01-1.36
			c0.85,0.64,1.52,0.22,1.86-0.62c0.78-1.87,2.02-3.53,2.36-5.58c0.81-4.8,3.8-8.67,5.54-13.08c1.02-2.6,2.37-5.08,3.63-7.58
			c0.27-0.53,0.78-1.15,1.5-0.72c0.57,0.34,0.32,1,0.12,1.5c-3.33,8.48-5.45,17.44-10.26,25.31c-1.5,2.46-2.79,5.03-4.71,7.24
			c-1.68,1.94-1.94,4.56-2.67,6.93c-1.01,3.28-1.93,6.58-2.95,9.86c-0.26,0.85-0.81,1.59-1.87,1.41
			C574.97,394.09,574.96,393.38,574.97,392.61z"/>
		<path class="st0" d="M566.92,380.26c0.66,1.75,0.27,3.2,0.22,4.64c-0.1,2.55,0.32,3.02,2.86,2.92c1.96-0.08,3.03,0.79,2.95,2.72
			c-0.21,4.96-1.47,9.72-3.53,14.2c-0.68,1.48-2.22,2.58-3.41,3.8c-0.65,0.66-1.17,0.38-1.26-0.46c-0.08-0.68-0.05-1.41,0.1-2.09
			c0.91-4.25,0.74-8.69,2.37-12.83c0.58-1.46-0.09-2.68-1.34-3.66c-2.69-2.08-2.76-2.7-0.67-5.35
			C566.03,383.09,565.55,381.53,566.92,380.26z"/>
		<path class="st0" d="M453.1,395.31c0.37,6.36,0.41,12.36,2.18,18.18c1.17,3.85,0.63,7.9,1.13,11.83c0.07,0.52,0.09,1.2-0.58,1.37
			c-0.64,0.16-0.93-0.45-1.26-0.87c-0.73-0.96-1.1-2.07-1.17-3.25c-0.22-4.05-1.82-7.84-1.98-11.94c-0.08-2.09-1.17-4.16-1.71-6.27
			c-1.32-5.13-1.99-10.19-0.11-15.32c1.04-2.83,0.49-5.71,0.16-8.56c-0.23-2-0.67-3.99-1.1-5.96c-0.3-1.38-0.72-2.64-2.36-3.18
			c-1.38-0.45-1.13-1.75-0.75-2.78c0.43-1.16,1.33-2.02,2.65-1.88c0.95,0.1,1.02,1.09,1.1,1.85c0.53,5.2,1.56,10.31,2.56,15.43
			C452.61,387.84,454.13,391.61,453.1,395.31z"/>
	</g>
</g>
</svg>
