<?xml version="1.0" encoding="utf-8"?>
<!-- Generator: Adobe Illustrator 27.0.0, SVG Export Plug-In . SVG Version: 6.00 Build 0)  -->
<svg version="1.1" id="Layer_1" xmlns="http://www.w3.org/2000/svg" xmlns:xlink="http://www.w3.org/1999/xlink" x="0px" y="0px"
	 viewBox="0 0 1000 1000" style="enable-background:new 0 0 1000 1000;" xml:space="preserve">
<style type="text/css">
	.st0{fill:#FFFFFF;}
	.st1{fill:#FFFFFF;stroke:#010101;stroke-width:0.2826;stroke-miterlimit:10;}
	.st2{fill:#010101;}
	.st3{fill:#231F20;}
	.st4{fill:#010101;stroke:#010101;stroke-width:0.2826;stroke-miterlimit:10;}
</style>
<path d="M931.46,393.52c-0.98-8.11-9.9-14.45-15.12-17.51c-5.32-3.11-15.41-7.86-23.21-4.64l-1.25,0.52
	c-7.63,3.13-16.29,6.68-22.04,14.33c-3.18,4.22-5.77,4.77-14.56,3.07c-12.07-2.33-24.13-6.74-36.89-11.41
	c-12.83-4.69-26.1-9.54-39.48-12.12c-8.64-1.67-17.9-2.65-27.03,1.36c-2.89,1.27-5.81,2.61-8.76,3.95
	c-17.65,8.07-35.91,16.42-52.29,12.36c-15.22-3.77-26.4-13.38-36.66-23.72c-0.1-0.11-0.2-0.21-0.31-0.31
	c-1.95-1.97-3.87-3.97-5.78-5.95c-6.95-7.22-14.05-14.62-22.25-20.28c15.48-8.94,43.43-25.49,60.17-63.73
	c1.46-3.33,0.54-7.22-2.24-9.56c-2.79-2.34-6.78-2.56-9.8-0.54c-6.13,4.08-11.66,8.83-17.53,13.85
	c-13.11,11.24-26.63,22.79-47.24,26.33V138.12c0-9.67-5.93-17.9-15.1-20.98c-9.17-3.07-18.86-0.07-24.68,7.65L437.64,299.36
	c-2.88,3.82-4.46,8.55-4.46,13.33v89.2c-2.42,1.24-6.01,3.59-12.65,8.01c-17.81,11.85-50.95,33.9-73.58,36.52
	c-8.59,0.99-10.06,0.57-13.1-3.77c-6.83-9.73-15.71-17.11-34.24-5.27c-4.58,2.93-9.45,5.29-14.61,7.78
	c-6.29,3.05-12.79,6.2-19.02,10.55c-3.56,2.49-7.32,4.74-11.3,7.13c-6.85,4.1-13.93,8.35-20.25,14.05c-1.1,1-2.27,1.94-3.44,2.89
	c-4.32,3.51-9.5,7.7-11.77,14.41c-8.79,1.3-14.04,7.82-18.05,12.8c-1.14,1.41-2.21,2.74-3.29,3.9l-3.88,4.14
	c-16.68,17.78-33.92,36.17-41.39,61.68c-1.67,5.7-3.04,6.4-3.05,6.4c-0.01,0.01-1.47,0.46-6.76-2.53
	c-12.09-6.81-25.59-9.45-40.09-7.83c-6.51,0.72-10.76,3.55-12.65,8.39c-2.78,7.13,2.25,11.95,4.4,14.01l0.45,0.43
	c1.91,1.87,3.84,3.72,5.78,5.56c-6.85,0.39-13.75,1.36-20.54,3.87l-0.38,0.14c-3.61,1.32-11.11,4.08-11.35,12.72
	c-0.21,7.46,5.76,10.39,8.63,11.8c0.41,0.2,0.82,0.4,1.21,0.61c19.33,10.47,40.3,15.95,62.33,16.27
	c14.1,0.21,22.25,3.38,26.42,10.29c16.62,27.55,41,46.77,64.57,65.35c7.51,5.92,15.28,12.05,22.61,18.31
	c11.28,9.64,25.02,13.86,39.73,12.22c12.82-1.43,23.56-8.97,28.73-20.17c4.99-10.82,3.86-23.34-3.03-33.51
	c-6.14-9.06-12.48-18.43-13.07-29.06c-0.98-17.83-6.94-33.95-18.22-49.27c-0.7-0.95-0.97-1.46-1.07-1.7
	c0.04-0.07,0.1-0.17,0.19-0.29c3.08-3.89,23.18-7.71,27.11-5.26c4.55,4.07,12.16,7.46,20.97,11.38c12.87,5.74,30.5,13.6,29.88,21.88
	c-0.76,10.09-0.91,20.29-1.06,30.15c-0.24,16.44-0.5,33.45-3.64,49.79c-1.72,8.93-2.15,18.09-1.29,27.22
	c3.58,37.95-2.85,70.7-19.65,100.11c-1.27,2.23-2.27,4.48-3.24,6.65l-0.17,0.39c-2.32,5.21-4.5,11.82-0.73,16.76
	c2.59,3.39,6.66,4.17,10.08,4.17c2.02,0,3.81-0.28,4.92-0.45c13.11-2.02,22.98-2.19,33.76-1.83c3.93,0.09,7.64-1.7,9.92-4.89
	c2.3-3.21,2.84-7.34,1.44-11.05c-0.85-2.26-1.81-4.47-2.73-6.6c-2.17-5-4.21-9.73-4.63-14.38c-0.47-5.22-0.94-11.27-0.41-16.97
	c0.3-3.25,0.91-6.51,1.55-9.95l0.4-2.14c1.38-7.54,3.25-12.7,5.05-17.7c2.38-6.58,4.83-13.39,5.74-24.49
	c1.25-15.36,4.72-27.82,8.38-41c3.66-13.16,7.44-26.77,8.79-43.3c0.34-4.14,6.25-15.02,11-23.75c1.54-2.83,2.97-5.5,4.31-8.04
	v206.42c0,9.67,5.92,17.91,15.09,20.98c2.39,0.8,4.81,1.19,7.19,1.19c6.76,0,13.18-3.13,17.49-8.84l131.76-174.57
	c2.88-3.82,4.46-8.55,4.46-13.33V509.91c0.92,0.17,1.93,0.6,3.18,1.17c10.27,4.69,21.89,5.28,35.51,1.8
	c17.13-4.38,34.63-9.73,53.51-16.36c12.82-4.5,26.15-7.01,39.62-7.45c26.55-0.87,51.84,6.69,77.36,23.11l1.07,0.69
	c5.94,3.86,15.87,10.31,26.47,3.86c8.84-5.37,18.77-8.03,29.29-10.85c4.99-1.34,10.15-2.72,15.24-4.42
	c5.84-1.96,9.6-5.17,11.17-9.55c2.4-6.7-1.5-12.91-2.79-14.95c-6.5-10.36-14.44-16.36-23.59-17.85c-8.96-1.46-18.12,1.59-27.2,9.05
	c-4.56,3.75-6.59,3.96-12.06,1.25c-10.48-5.21-21.24-10.15-31.65-14.92c-9.41-4.32-19.15-8.79-28.56-13.4
	c-3.23-1.59-6.83-5.18-10.32-8.65c-0.64-0.64-1.28-1.28-1.93-1.91c24.78-7.08,50.03-5.6,81.28,4.41c8.2,2.62,23.46,7.52,36.1-2.35
	c9.14-7.13,19.2-12.52,29.84-18.23c3.97-2.13,8.08-4.33,12.11-6.62l0.24-0.14C925.67,406.13,932.53,402.25,931.46,393.52z
	 M768.54,455.78c9.6,4.71,19.43,9.22,28.94,13.58c10.29,4.72,20.94,9.6,31.19,14.7c11.26,5.59,20.15,4.62,29.74-3.26
	c5.29-4.35,10.07-6.2,14.18-5.54c5.36,0.87,9.67,6.13,12.35,10.39c0.07,0.1,0.13,0.2,0.18,0.3c-4.59,1.53-9.25,2.78-14.18,4.1
	c-11.17,2.99-22.71,6.09-33.55,12.68c-1.55,0.95-3.94-0.29-9.04-3.6l-1.13-0.73c-28.41-18.28-56.77-26.67-86.76-25.71
	c-15.13,0.5-30.11,3.31-44.51,8.37c-18.42,6.47-35.48,11.69-52.14,15.95c-9.99,2.55-17.82,2.29-24.64-0.83
	c-11.84-5.41-21.59-2.63-29.79,8.48c-26.69,36.13-55.69,63.4-88.66,83.37c-3.87,2.34-5.1,7.38-2.76,11.25
	c1.54,2.54,4.24,3.95,7.01,3.95c1.45,0,2.91-0.38,4.24-1.19c30.83-18.68,58.3-43.3,83.6-74.98v160.26c0,1.24-0.41,2.47-1.16,3.46
	L459.88,865.34c-2.31,3.06-5.49,2.29-6.41,1.99c-0.92-0.31-3.92-1.61-3.92-5.44V312.69c0-1.24,0.41-2.47,1.16-3.46l131.76-174.57
	c2.31-3.06,5.48-2.3,6.41-1.99c0.92,0.31,3.92,1.61,3.92,5.44v163.56c-36.46,7.5-65.77,21.04-89.46,41.34
	c-3.43,2.95-3.83,8.11-0.89,11.55c2.94,3.44,8.11,3.83,11.55,0.89c22.37-19.18,50.55-31.79,86.13-38.55
	c12.89-0.53,23.6-3.44,32.87-7.63c-6.06,4.33-11.65,7.55-16.03,10.08c-8.56,4.94-14.21,8.2-14.21,14.97c0,3.36,2.05,6.38,5.17,7.61
	c10.06,3.99,18.66,12.79,27.71,22.2c-3.57,4.31-3.98,9.01-3.91,11.45c0.68,23.08,47.4,53.98,78.55,63.56
	c7.91,2.43,14.41,3.42,19.73,3.42c7.83,0,13.11-2.15,16.7-4.97c1.95,1.25,5.11,4.4,7.15,6.43
	C758.09,448.23,762.87,453,768.54,455.78z M903,399.91c-10.78,5.78-21.94,11.76-32.18,19.75c-4.84,3.78-11.64,2.67-21.03-0.34
	c-41.7-13.36-75.39-12.72-109.22,2.08c-0.98,0.43-1.86,1.05-2.6,1.81c-0.91,0.6-1.82,1.34-2.73,2.24
	c-3.34,1.28-10.13,1.11-20.15-1.97c-30.92-9.5-62.78-35.13-66.61-46.47c10.27,9.56,22.33,18.32,38.4,22.3
	c21.92,5.43,43.76-4.55,63.03-13.36c2.87-1.31,5.72-2.62,8.54-3.85c4.75-2.08,10.37-1.61,17.34-0.27
	c12.09,2.33,24.17,6.75,36.96,11.42c12.81,4.68,26.06,9.53,39.41,12.11c7.76,1.5,20.74,4,30.76-9.3c3.05-4.06,9.21-6.58,15.17-9.03
	l0.9-0.37c3.19-0.18,11,4.05,14.65,7.45C910.13,396.09,906.51,398.03,903,399.91z"/>
</svg>
