<?xml version="1.0" encoding="utf-8"?>
<!-- Generator: Adobe Illustrator 27.0.0, SVG Export Plug-In . SVG Version: 6.00 Build 0)  -->
<svg version="1.1" id="Layer_1" xmlns="http://www.w3.org/2000/svg" xmlns:xlink="http://www.w3.org/1999/xlink" x="0px" y="0px"
	 viewBox="0 0 1000 1000" style="enable-background:new 0 0 1000 1000;" xml:space="preserve">
<style type="text/css">
	.st0{fill:#FFFFFF;}
	.st1{fill:#FFFFFF;stroke:#010101;stroke-width:0.2826;stroke-miterlimit:10;}
	.st2{fill:#010101;}
	.st3{fill:#231F20;}
	.st4{fill:#010101;stroke:#010101;stroke-width:0.2826;stroke-miterlimit:10;}
</style>
<g>
	<g>
		<g>
			<path class="st0" d="M170.69,479.89L47.82,291.51H26.26l0.43-12.05h107.36v12.05l-43.12,0.29l99.16,153.11l72.87-124.02
				l2.59-29.39h-55.19v-12.05h117.71v12.05h-25.01L187.51,479.89H170.69z"/>
			<path class="st0" d="M352.54,479.89v-12.05h39.67V291.51h-39.67v-12.05h119v12.05h-40.09v176.33h40.09v12.05H352.54z"/>
			<path class="st0" d="M506.21,479.89v-12.05h39.66V291.51h-39.66v-12.05h119v12.05h-40.1v176.33h40.1v12.05H506.21z"/>
			<path class="st0" d="M648.23,479.89v-12.05h26.3l115.54-91.11l-99.59-85.22h-28.46v-12.05h134.09v12.05h-56.04l82.35,70.53
				l56.91-45.55l13.8-24.98h-46.56v-12.05h113.82v12.05h-25.87l-100.03,81.11l110.8,95.22h28.45v12.05H859.06v-12.05H897
				l-94.85-81.11l-71.14,55.84l-12.93,25.27h49.15v12.05H648.23z"/>
		</g>
		<g>
			<path class="st0" d="M341.34,720.54v-10.46h39.67V529.01h-39.67v-10.46h317.32v10.46h-40.09v181.07h40.09v10.46H539.67v-10.46
				h39.66V529.01H420.24v181.07h40.09v10.46H341.34z"/>
			<g>
				<path class="st0" d="M26.26,720.54v-10.71l124.6-87.73L30.57,529.52v-10.46l216.43-0.51v-10.2h23.71v55.85h-23.71v-26.01
					l-38.8-8.67H78.86l112.53,85.18l-124.6,87.22l204.37-5.36v23.97H26.26z"/>
				<path class="st0" d="M706,720.54l112.1-202.19h43.55l112.1,202.19H706z M738.33,705.55h189.71l-93.13-168.39h-3.88
					L738.33,705.55z"/>
			</g>
		</g>
	</g>
</g>
</svg>
