<?xml version="1.0" encoding="utf-8"?>
<!-- Generator: Adobe Illustrator 27.0.0, SVG Export Plug-In . SVG Version: 6.00 Build 0)  -->
<svg version="1.1" id="Layer_1" xmlns="http://www.w3.org/2000/svg" xmlns:xlink="http://www.w3.org/1999/xlink" x="0px" y="0px"
	 viewBox="0 0 1000 1000" style="enable-background:new 0 0 1000 1000;" xml:space="preserve">
<style type="text/css">
	.st0{fill:#FFFFFF;}
	.st1{fill:#FFFFFF;stroke:#010101;stroke-width:0.2826;stroke-miterlimit:10;}
	.st2{fill:#010101;}
	.st3{fill:#231F20;}
	.st4{fill:#010101;stroke:#010101;stroke-width:0.2826;stroke-miterlimit:10;}
</style>
<g>
	<path class="st2" d="M64.24,64.24v871.53h871.53V64.24H64.24z M576.45,393.02c0-92.98,75.65-168.63,168.64-168.63
		c92.98,0,168.63,75.65,168.63,168.63c0,92.99-75.65,168.64-168.63,168.64C652.1,561.65,576.45,486.01,576.45,393.02z M422,86.28
		c-28.02,23.91-48.08,60.49-39.2,109.2l83.04,472.25l-2.04,0.93L160.65,297.16c-21.66-26.88-48.04-39.26-74.38-42.42V86.28H422z
		 M86.28,578.2L392.7,898.41c5.3,5.6,10.46,10.67,15.52,15.31H86.28V578.2z M913.72,913.72H608.05
		c62.66-32.77,86.43-66.87,78.14-149.64l-18.78-197c23.75,10.64,50.02,16.61,77.69,16.61c73.07,0,136.63-41.33,168.63-101.83V913.72
		z M745.09,202.35c-40.59,0-78.22,12.79-109.18,34.49l-3.89-40.8c-4.18-38.76-8.03-57.95-19.7-83.42
		c-4.62-10.1-10.75-18.78-17.81-26.33h319.2v217.9C881.72,243.68,818.16,202.35,745.09,202.35z"/>
	<g>
		<path class="st2" d="M678.36,451.91c5.22-10.16,11.79-18.81,19.72-25.96c7.92-7.16,19.05-15.86,33.36-26.12l11.89-8.41l0.87-0.58
			c12.18-8.71,21.33-16.78,27.41-24.23c6.1-7.44,9.14-15.71,9.14-24.8c0-6.39-1.31-11.85-3.91-16.4
			c-2.62-4.54-6.33-8.02-11.17-10.44c-4.84-2.42-10.55-3.63-17.12-3.63c-8.11,0-14.93,1.75-20.44,5.23
			c-5.51,3.48-9.67,8.52-12.48,15.09c-2.81,6.58-4.2,14.32-4.2,23.21v2.03h-38.88v-1.73c0-14.9,3.04-28,9.14-39.32
			c6.08-11.31,14.84-20.06,26.25-26.25c11.41-6.19,24.96-9.29,40.61-9.29c14.32,0,26.65,2.66,36.99,7.98
			c10.35,5.32,18.27,12.67,23.78,22.05c5.51,9.38,8.27,19.97,8.27,31.77s-2.47,22.29-7.39,31.48c-4.94,9.19-11.27,17.31-19,24.37
			c-7.75,7.06-17.61,14.84-29.59,23.35l-13.64,9.57c-10.64,7.75-17.65,13.01-21.03,15.81c-3.4,2.81-5.66,5.47-6.82,7.98h97.48v33.94
			H669.94C670.34,474.3,673.15,462.07,678.36,451.91z"/>
	</g>
</g>
</svg>
