<?xml version="1.0" encoding="utf-8"?>
<!-- Generator: Adobe Illustrator 27.0.0, SVG Export Plug-In . SVG Version: 6.00 Build 0)  -->
<svg version="1.1" id="Layer_1" xmlns="http://www.w3.org/2000/svg" xmlns:xlink="http://www.w3.org/1999/xlink" x="0px" y="0px"
	 viewBox="0 0 1000 1000" style="enable-background:new 0 0 1000 1000;" xml:space="preserve">
<style type="text/css">
	.st0{fill:#FFFFFF;}
	.st1{fill:#FFFFFF;stroke:#010101;stroke-width:0.2826;stroke-miterlimit:10;}
	.st2{fill:#010101;}
	.st3{fill:#231F20;}
	.st4{fill:#010101;stroke:#010101;stroke-width:0.2826;stroke-miterlimit:10;}
</style>
<g>
	<g>
		<path class="st0" d="M174.82,364.3h26.09v78.43h17.29v12.48h-17.29v21.13h-13.44v-21.13H135.6v-18.57L174.82,364.3z
			 M147.12,440.81v1.92h40.34v-72.67h-1.92L147.12,440.81z"/>
		<path class="st0" d="M245.09,385.27c0-3.2,0.61-6.21,1.84-9.04c1.23-2.83,2.88-5.28,4.96-7.36c2.08-2.08,4.53-3.73,7.36-4.96
			c2.83-1.23,5.84-1.84,9.04-1.84c3.2,0,6.21,0.61,9.04,1.84c2.83,1.23,5.28,2.88,7.36,4.96c2.08,2.08,3.73,4.54,4.96,7.36
			c1.23,2.83,1.84,5.84,1.84,9.04c0,3.2-0.62,6.22-1.84,9.04c-1.23,2.83-2.88,5.28-4.96,7.36c-2.08,2.08-4.54,3.74-7.36,4.96
			c-2.83,1.23-5.84,1.84-9.04,1.84c-3.2,0-6.22-0.61-9.04-1.84c-2.83-1.23-5.28-2.88-7.36-4.96c-2.08-2.08-3.74-4.54-4.96-7.36
			C245.7,391.49,245.09,388.47,245.09,385.27z M256.61,385.27c0,3.2,1.15,5.95,3.44,8.24c2.29,2.3,5.04,3.44,8.24,3.44
			c3.2,0,5.95-1.14,8.24-3.44c2.3-2.29,3.44-5.04,3.44-8.24c0-3.2-1.15-5.95-3.44-8.24c-2.3-2.29-5.04-3.44-8.24-3.44
			c-3.2,0-5.95,1.15-8.24,3.44C257.76,379.32,256.61,382.07,256.61,385.27z"/>
		<path class="st0" d="M348.81,420.64v-18.57l36.49-23.37v-1.92h-63.39V364.3h74.91v20.49l-36.5,23.37v1.92h6.4
			c4.27,0,8.38,0.7,12.32,2.08c3.95,1.39,7.45,3.42,10.48,6.08c3.04,2.67,5.5,5.95,7.36,9.84c1.87,3.9,2.8,8.4,2.8,13.52v2.88
			c0,4.8-0.96,9.28-2.88,13.45c-1.92,4.16-4.59,7.76-8.01,10.81c-3.41,3.04-7.44,5.44-12.08,7.2c-4.64,1.76-9.68,2.64-15.13,2.64
			c-6.3,0-11.95-0.96-16.96-2.88c-5.02-1.92-9.28-4.56-12.81-7.92c-3.52-3.36-6.22-7.31-8.08-11.85c-1.87-4.53-2.8-9.36-2.8-14.49
			v-8.64h13.45v7.68c0,4.06,0.66,7.66,2,10.81c1.33,3.15,3.2,5.82,5.6,8.01s5.25,3.87,8.56,5.04c3.31,1.18,6.88,1.76,10.73,1.76
			c3.52,0,6.8-0.58,9.84-1.76c3.04-1.18,5.68-2.8,7.92-4.88c2.24-2.08,4-4.53,5.28-7.36c1.28-2.83,1.92-5.84,1.92-9.04v-0.96
			c0-6.72-2.14-11.98-6.4-15.77c-4.27-3.79-9.6-5.68-16.01-5.68H348.81z"/>
		<path class="st0" d="M474.94,396.95c0-6.93-2.13-12.51-6.4-16.73c-4.27-4.21-10.19-6.32-17.77-6.32c-3.63,0-6.96,0.64-10,1.92
			c-3.04,1.28-5.66,3.12-7.85,5.52c-2.19,2.4-3.9,5.26-5.12,8.56c-1.23,3.31-1.84,6.94-1.84,10.88v16.65h1.92
			c2.56-4.69,6.22-8.38,10.97-11.05c4.75-2.66,10.06-4,15.93-4c5.12,0,9.87,0.83,14.24,2.48c4.38,1.65,8.14,4.08,11.28,7.28
			c3.15,3.2,5.6,7.07,7.36,11.6c1.76,4.54,2.64,9.68,2.64,15.45v1.92c0,5.55-0.99,10.62-2.96,15.21c-1.98,4.59-4.7,8.54-8.16,11.85
			c-3.47,3.31-7.58,5.87-12.32,7.68c-4.75,1.81-9.9,2.72-15.45,2.72c-5.55,0-10.7-0.91-15.45-2.72c-4.75-1.81-8.86-4.35-12.32-7.6
			c-3.47-3.25-6.19-7.15-8.16-11.68c-1.98-4.54-2.96-9.53-2.96-14.97V400.8c0-5.87,1.01-11.2,3.04-16.01
			c2.03-4.8,4.8-8.88,8.32-12.25c3.52-3.36,7.61-5.95,12.25-7.76c4.64-1.81,9.63-2.72,14.96-2.72c5.33,0,10.3,0.8,14.89,2.4
			c4.59,1.6,8.54,3.92,11.85,6.96c3.3,3.04,5.9,6.72,7.76,11.04c1.87,4.32,2.8,9.15,2.8,14.49H474.94z M451.42,466.75
			c3.84,0,7.33-0.61,10.48-1.84c3.15-1.23,5.84-2.96,8.08-5.2c2.24-2.24,3.95-4.91,5.12-8.01c1.17-3.09,1.76-6.51,1.76-10.24v-1.92
			c0-3.73-0.64-7.15-1.92-10.25c-1.28-3.09-3.04-5.76-5.28-8s-4.94-3.98-8.08-5.2c-3.15-1.23-6.54-1.84-10.16-1.84
			c-3.63,0-6.99,0.64-10.08,1.92c-3.1,1.28-5.79,3.04-8.08,5.28c-2.3,2.24-4.08,4.86-5.36,7.84c-1.28,2.99-1.92,6.19-1.92,9.6v3.04
			c0,3.52,0.58,6.8,1.76,9.84c1.18,3.04,2.88,5.68,5.12,7.93c2.24,2.24,4.93,3.98,8.08,5.2
			C444.08,466.13,447.57,466.75,451.42,466.75z"/>
		<path class="st0" d="M532.73,373.26c0-3.09,1.09-5.74,3.28-7.92c2.19-2.19,4.83-3.28,7.92-3.28c3.1,0,5.74,1.1,7.93,3.28
			c2.18,2.19,3.28,4.83,3.28,7.92c0,2.67-0.85,5.04-2.56,7.12c-1.71,2.08-3.84,3.39-6.4,3.92l-3.68,17.13l-8.48-1.76l3.84-16.96
			c-1.5-1.07-2.72-2.43-3.68-4.08C533.21,376.97,532.73,375.18,532.73,373.26z"/>
		<path class="st0" d="M623.49,420.64v-18.57l36.49-23.37v-1.92H596.6V364.3h74.91v20.49l-36.5,23.37v1.92h6.4
			c4.27,0,8.38,0.7,12.32,2.08c3.95,1.39,7.45,3.42,10.48,6.08c3.04,2.67,5.5,5.95,7.36,9.84c1.87,3.9,2.8,8.4,2.8,13.52v2.88
			c0,4.8-0.96,9.28-2.88,13.45c-1.92,4.16-4.59,7.76-8.01,10.81c-3.41,3.04-7.44,5.44-12.08,7.2c-4.64,1.76-9.68,2.64-15.13,2.64
			c-6.3,0-11.95-0.96-16.96-2.88c-5.02-1.92-9.28-4.56-12.81-7.92c-3.52-3.36-6.22-7.31-8.08-11.85c-1.87-4.53-2.8-9.36-2.8-14.49
			v-8.64h13.45v7.68c0,4.06,0.66,7.66,2,10.81c1.33,3.15,3.2,5.82,5.6,8.01c2.4,2.19,5.25,3.87,8.56,5.04
			c3.31,1.18,6.88,1.76,10.73,1.76c3.52,0,6.8-0.58,9.84-1.76c3.04-1.18,5.68-2.8,7.92-4.88c2.24-2.08,4-4.53,5.28-7.36
			c1.28-2.83,1.92-5.84,1.92-9.04v-0.96c0-6.72-2.14-11.98-6.4-15.77c-4.27-3.79-9.6-5.68-16.01-5.68H623.49z"/>
		<path class="st0" d="M689.6,423.53V364.3h70.11v12.49h-56.98v40.02h1.92c1.06-2.13,2.45-4.18,4.16-6.16c1.7-1.97,3.7-3.71,6-5.2
			c2.29-1.49,4.88-2.69,7.76-3.6c2.88-0.91,6.08-1.36,9.61-1.36c5.12,0,9.84,0.86,14.16,2.56c4.32,1.71,8.03,4.11,11.13,7.2
			c3.09,3.1,5.52,6.83,7.28,11.2c1.76,4.38,2.64,9.23,2.64,14.57v2.88c0,5.34-0.85,10.38-2.56,15.13
			c-1.71,4.75-4.22,8.96-7.53,12.65c-3.31,3.68-7.42,6.59-12.32,8.72c-4.91,2.13-10.57,3.2-16.97,3.2c-6.51,0-12.27-0.96-17.29-2.88
			c-5.02-1.92-9.23-4.59-12.64-8.01c-3.42-3.41-6-7.44-7.76-12.08c-1.76-4.64-2.64-9.68-2.64-15.13v-4.48h13.45v3.52
			c0,8.86,2.48,15.5,7.44,19.93c4.96,4.43,11.44,6.64,19.45,6.64c4.27,0,8.03-0.77,11.28-2.32c3.25-1.55,5.98-3.63,8.16-6.24
			c2.18-2.61,3.81-5.65,4.88-9.12c1.07-3.47,1.6-7.07,1.6-10.81v-0.96c0-3.31-0.56-6.4-1.68-9.28c-1.12-2.88-2.67-5.39-4.64-7.52
			c-1.98-2.13-4.38-3.81-7.2-5.04c-2.83-1.23-5.9-1.84-9.21-1.84c-2.24,0-4.3,0.32-6.16,0.96c-1.87,0.64-3.5,1.47-4.88,2.48
			c-1.39,1.02-2.54,2.16-3.44,3.44c-0.91,1.28-1.52,2.51-1.84,3.68H689.6z"/>
		<path class="st0" d="M792.68,373.26c0-3.09,1.09-5.74,3.28-7.92c2.19-2.19,4.83-3.28,7.93-3.28c3.09,0,5.73,1.1,7.92,3.28
			c2.19,2.19,3.28,4.83,3.28,7.92c0,2.67-0.85,5.04-2.56,7.12c-1.71,2.08-3.84,3.39-6.4,3.92l-3.68,17.13l-8.48-1.76l3.84-16.96
			c-1.5-1.07-2.72-2.43-3.68-4.08C793.16,376.97,792.68,375.18,792.68,373.26z M821.82,373.26c0-3.09,1.09-5.74,3.28-7.92
			c2.19-2.19,4.83-3.28,7.92-3.28c3.1,0,5.74,1.1,7.93,3.28c2.18,2.19,3.28,4.83,3.28,7.92c0,2.67-0.85,5.04-2.56,7.12
			c-1.71,2.08-3.84,3.39-6.4,3.92l-3.68,17.13l-8.48-1.76l3.84-16.96c-1.5-1.07-2.72-2.43-3.68-4.08
			C822.3,376.97,821.82,375.18,821.82,373.26z"/>
		<path class="st0" d="M931.14,470.59h1.92V364.3h13.45v112.05h-26.89l-32.33-106.29h-1.92v106.29h-13.45V364.3h26.89L931.14,470.59
			z"/>
		<path class="st0" d="M49.57,523.65h74.91v19.53l-47.22,71.39c-2.24,3.42-3.95,6.35-5.12,8.81c-1.18,2.45-1.76,4.96-1.76,7.52v4.8
			H57.25v-5.76c0-1.92,0.19-3.74,0.56-5.44c0.37-1.71,0.96-3.44,1.76-5.2c0.8-1.76,1.82-3.63,3.04-5.6s2.7-4.24,4.4-6.8l45.94-68.83
			v-1.92H49.57V523.65z"/>
		<path class="st0" d="M176.66,523.65h26.09v78.43h17.29v12.48h-17.29v21.13h-13.44v-21.13h-51.86V596L176.66,523.65z
			 M148.97,600.17v1.92h40.34v-72.67h-1.92L148.97,600.17z"/>
		<path class="st0" d="M246.93,544.62c0-3.2,0.61-6.21,1.84-9.04c1.23-2.83,2.88-5.28,4.96-7.36c2.08-2.08,4.53-3.73,7.36-4.96
			c2.83-1.23,5.84-1.84,9.04-1.84s6.21,0.61,9.04,1.84c2.83,1.23,5.28,2.88,7.36,4.96c2.08,2.08,3.73,4.54,4.96,7.36
			c1.23,2.83,1.84,5.84,1.84,9.04c0,3.2-0.62,6.22-1.84,9.04c-1.23,2.83-2.88,5.28-4.96,7.36c-2.08,2.08-4.54,3.74-7.36,4.96
			c-2.83,1.23-5.84,1.84-9.04,1.84s-6.22-0.61-9.04-1.84c-2.83-1.23-5.28-2.88-7.36-4.96c-2.08-2.08-3.74-4.54-4.96-7.36
			C247.54,550.84,246.93,547.82,246.93,544.62z M258.46,544.62c0,3.2,1.15,5.95,3.44,8.24c2.29,2.3,5.04,3.44,8.24,3.44
			s5.95-1.14,8.24-3.44c2.3-2.29,3.44-5.04,3.44-8.24c0-3.2-1.15-5.95-3.44-8.24c-2.3-2.29-5.04-3.44-8.24-3.44
			s-5.95,1.15-8.24,3.44C259.6,538.67,258.46,541.42,258.46,544.62z"/>
		<path class="st0" d="M322.32,567.19c0-14.51,3.47-25.77,10.4-33.77c6.94-8,16.59-12.01,28.97-12.01c12.38,0,22.04,4,28.97,12.01
			c6.94,8,10.41,19.26,10.41,33.77v24.97c0,14.94-3.47,26.31-10.41,34.09c-6.93,7.79-16.59,11.68-28.97,11.68
			c-12.38,0-22.04-3.89-28.97-11.68c-6.93-7.79-10.4-19.15-10.4-34.09V567.19z M361.7,625.78c8.64,0,15.13-3.01,19.45-9.04
			c4.32-6.03,6.48-14.54,6.48-25.53v-23.05c0-5.12-0.54-9.79-1.6-14.01c-1.07-4.22-2.7-7.84-4.88-10.88
			c-2.19-3.04-4.91-5.42-8.16-7.12c-3.25-1.71-7.02-2.56-11.28-2.56c-4.38,0-8.16,0.85-11.36,2.56c-3.2,1.71-5.9,4.08-8.08,7.12
			c-2.19,3.04-3.82,6.67-4.88,10.88c-1.07,4.22-1.6,8.88-1.6,14.01v23.05c0,10.99,2.16,19.5,6.48,25.53S353.05,625.78,361.7,625.78z
			 M351.45,579.68c0-2.77,1.01-5.17,3.04-7.2c2.03-2.03,4.43-3.04,7.21-3.04c2.78,0,5.18,1.02,7.2,3.04
			c2.03,2.03,3.04,4.43,3.04,7.2c0,2.78-1.01,5.18-3.04,7.2c-2.03,2.03-4.43,3.04-7.2,3.04c-2.78,0-5.18-1.01-7.21-3.04
			C352.47,584.86,351.45,582.45,351.45,579.68z"/>
		<path class="st0" d="M451.34,523.65h26.09v78.43h17.29v12.48h-17.29v21.13h-13.44v-21.13h-51.86V596L451.34,523.65z
			 M423.65,600.17v1.92h40.34v-72.67h-1.92L423.65,600.17z"/>
		<path class="st0" d="M534.57,532.62c0-3.09,1.09-5.74,3.28-7.92c2.19-2.19,4.83-3.28,7.92-3.28c3.1,0,5.74,1.1,7.93,3.28
			c2.18,2.19,3.28,4.83,3.28,7.92c0,2.67-0.85,5.04-2.56,7.12c-1.71,2.08-3.84,3.39-6.4,3.92l-3.68,17.13l-8.48-1.76l3.84-16.96
			c-1.5-1.07-2.72-2.43-3.68-4.08C535.05,536.33,534.57,534.54,534.57,532.62z"/>
		<path class="st0" d="M599.88,582.88v-59.23h70.11v12.49h-56.98v40.02h1.92c1.06-2.13,2.45-4.18,4.16-6.16c1.7-1.97,3.7-3.71,6-5.2
			c2.29-1.49,4.88-2.69,7.76-3.6c2.88-0.91,6.08-1.36,9.61-1.36c5.12,0,9.84,0.86,14.16,2.56c4.32,1.71,8.03,4.11,11.13,7.2
			c3.09,3.1,5.52,6.83,7.28,11.2c1.76,4.38,2.64,9.23,2.64,14.57v2.88c0,5.34-0.85,10.38-2.56,15.13
			c-1.71,4.75-4.22,8.96-7.53,12.65c-3.31,3.68-7.42,6.59-12.32,8.72c-4.91,2.13-10.57,3.2-16.97,3.2c-6.51,0-12.27-0.96-17.29-2.88
			c-5.02-1.92-9.23-4.59-12.64-8.01c-3.42-3.41-6-7.44-7.76-12.08c-1.76-4.64-2.64-9.68-2.64-15.13v-4.48h13.45v3.52
			c0,8.86,2.48,15.5,7.44,19.93c4.96,4.43,11.44,6.64,19.45,6.64c4.27,0,8.03-0.77,11.28-2.32c3.25-1.55,5.98-3.63,8.16-6.24
			c2.18-2.61,3.81-5.65,4.88-9.12c1.07-3.47,1.6-7.07,1.6-10.81V596c0-3.31-0.56-6.4-1.68-9.28s-2.67-5.39-4.64-7.52
			c-1.98-2.13-4.38-3.81-7.2-5.04c-2.83-1.23-5.9-1.84-9.21-1.84c-2.24,0-4.3,0.32-6.16,0.96c-1.87,0.64-3.5,1.47-4.88,2.48
			c-1.39,1.02-2.54,2.16-3.44,3.44c-0.91,1.28-1.52,2.51-1.84,3.68H599.88z"/>
		<path class="st0" d="M726.01,523.65h26.09v78.43h17.29v12.48H752.1v21.13h-13.44v-21.13H686.8V596L726.01,523.65z M698.32,600.17
			v1.92h40.34v-72.67h-1.92L698.32,600.17z"/>
		<path class="st0" d="M794.53,532.62c0-3.09,1.09-5.74,3.28-7.92c2.19-2.19,4.83-3.28,7.93-3.28c3.09,0,5.73,1.1,7.92,3.28
			c2.19,2.19,3.28,4.83,3.28,7.92c0,2.67-0.85,5.04-2.56,7.12c-1.71,2.08-3.84,3.39-6.4,3.92l-3.68,17.13l-8.48-1.76l3.84-16.96
			c-1.5-1.07-2.72-2.43-3.68-4.08C795.01,536.33,794.53,534.54,794.53,532.62z M823.66,532.62c0-3.09,1.09-5.74,3.28-7.92
			c2.19-2.19,4.83-3.28,7.92-3.28c3.1,0,5.74,1.1,7.93,3.28c2.18,2.19,3.28,4.83,3.28,7.92c0,2.67-0.85,5.04-2.56,7.12
			c-1.71,2.08-3.84,3.39-6.4,3.92l-3.68,17.13l-8.48-1.76l3.84-16.96c-1.5-1.07-2.72-2.43-3.68-4.08
			C824.14,536.33,823.66,534.54,823.66,532.62z"/>
		<path class="st0" d="M871.68,567.19c0-14.51,3.47-25.77,10.4-33.77c6.94-8,16.59-12.01,28.97-12.01c12.38,0,22.04,4,28.97,12.01
			c6.94,8,10.41,19.26,10.41,33.77v24.97c0,14.94-3.47,26.31-10.41,34.09c-6.93,7.79-16.59,11.68-28.97,11.68
			c-12.38,0-22.04-3.89-28.97-11.68c-6.93-7.79-10.4-19.15-10.4-34.09V567.19z M911.06,625.46c8.64,0,15.13-2.96,19.45-8.88
			c4.32-5.92,6.48-14.38,6.48-25.37v-23.05c0-10.24-2.16-18.51-6.48-24.81s-10.81-9.44-19.45-9.44s-15.13,3.15-19.45,9.44
			s-6.48,14.57-6.48,24.81v23.05c0,10.99,2.16,19.45,6.48,25.37C895.93,622.5,902.41,625.46,911.06,625.46z"/>
	</g>
</g>
</svg>
