<?xml version="1.0" encoding="utf-8"?>
<!-- Generator: Adobe Illustrator 27.0.0, SVG Export Plug-In . SVG Version: 6.00 Build 0)  -->
<svg version="1.1" id="Layer_1" xmlns="http://www.w3.org/2000/svg" xmlns:xlink="http://www.w3.org/1999/xlink" x="0px" y="0px"
	 viewBox="0 0 1000 1000" style="enable-background:new 0 0 1000 1000;" xml:space="preserve">
<style type="text/css">
	.st0{fill:#FFFFFF;}
	.st1{fill:#FFFFFF;stroke:#010101;stroke-width:0.2826;stroke-miterlimit:10;}
	.st2{fill:#010101;}
	.st3{fill:#231F20;}
	.st4{fill:#010101;stroke:#010101;stroke-width:0.2826;stroke-miterlimit:10;}
</style>
<g>
	<path class="st4" d="M86.44,349.62c2.12,0,3.6,0.23,4.46,0.68c0.86,0.46,1.28,1.49,1.28,3.11c0,1.61-1.1,5.62-3.32,12.04
		l-11.2,32.16l-11.81-32.16c-0.2-0.56-0.46-1.29-0.79-2.19c-0.33-0.91-0.58-1.59-0.76-2.05c-0.18-0.46-0.39-1.04-0.65-1.74
		c-0.25-0.71-0.44-1.25-0.57-1.63c-0.13-0.38-0.27-0.83-0.42-1.36c-0.15-0.53-0.26-0.95-0.34-1.25c-0.07-0.31-0.18-0.69-0.31-1.17
		c-0.13-0.48-0.19-1.16-0.19-2.05c0-0.88,0.39-1.5,1.18-1.86c0.78-0.35,2.12-0.53,4.04-0.53l0.16-0.91H46.78l0.16,0.91
		c1.26,0,2.25,0.04,2.99,0.11c0.72,0.08,1.48,0.35,2.27,0.79c0.79,0.46,1.4,0.96,1.86,1.52c1.16,1.36,3.15,5.83,5.98,13.4
		l13.39,36.62h4.77l12.72-36.62c1.31-3.78,2.42-6.69,3.33-8.71c0.91-2.01,1.9-3.58,2.99-4.69c1.09-1.11,2.12-1.79,3.11-2.05
		c0.98-0.25,2.43-0.38,4.35-0.38l0.16-0.91H86.28L86.44,349.62z"/>
	<path class="st4" d="M192.62,395.33c-0.2,1.36-0.44,2.34-0.72,2.91c-0.28,0.58-0.73,1.1-1.36,1.55c-0.64,0.46-1.3,0.74-2.01,0.83
		c-0.71,0.1-1.69,0.16-2.95,0.16l-0.15,0.9h20.43l-0.15-0.9c-2.53,0-4.37-0.48-5.52-1.44c-0.61-0.5-1.07-1.75-1.4-3.71
		c-0.33-1.97-0.5-5.65-0.5-11.04v-18.77c0-8.83,0.63-13.77,1.9-14.84c1.16-0.96,3-1.44,5.52-1.44l0.15-0.83h-20.43l0.15,0.83
		c2.53,0,4.39,0.48,5.59,1.44c0.61,0.5,1.07,1.79,1.37,3.86c0.3,2.07,0.46,5.73,0.46,10.97v18.77
		C193,389.98,192.87,393.56,192.62,395.33z"/>
	<path class="st4" d="M295.71,392c-0.16,4.18-0.71,6.65-1.67,7.41c-1.16,0.91-2.97,1.37-5.44,1.37l-0.16,0.9h20.28l-0.14-0.9
		c-2.53,0-4.39-0.48-5.6-1.44c-0.61-0.5-1.08-1.73-1.4-3.67c-0.33-1.94-0.5-5.64-0.5-11.08v-9.38c2.27,0.1,4.41,0.83,6.43,2.19
		c2.02,1.36,3.69,3.03,5,4.99c1.31,1.97,2.62,4.07,3.93,6.32c1.31,2.24,2.45,4.33,3.45,6.25c0.98,1.92,2.09,3.52,3.33,4.81
		c1.23,1.28,2.49,1.93,3.75,1.93h10.51l-0.14-0.9c-4.7,0-8.53-2.38-11.51-7.12c-1.36-2.07-2.65-4.24-3.86-6.51
		c-3.13-5.81-6.53-9.79-10.21-11.96c3.68-0.41,6.82-1.86,9.42-4.35c2.6-2.5,3.89-5.59,3.89-9.27c0-8.57-6.36-12.87-19.08-12.87
		h-17.56l0.16,0.91c2.47,0,4.28,0.42,5.44,1.28c0.61,0.46,1.06,1.59,1.37,3.41c0.3,1.82,0.45,5.53,0.45,11.13v19.15
		C295.86,387.86,295.81,390.33,295.71,392z M301.09,350.45H306c8.78,0,13.17,3.83,13.17,11.5c0,3.89-1.26,6.81-3.78,8.78
		c-2.53,1.97-5.71,2.95-9.54,2.95h-4.77V350.45z"/>
	<path class="st4" d="M423.18,392c-0.15,4.18-0.71,6.65-1.67,7.41c-1.16,0.91-2.97,1.37-5.44,1.37l-0.15,0.9h20.28l-0.15-0.9
		c-2.53,0-4.39-0.48-5.6-1.44c-0.61-0.5-1.07-1.73-1.4-3.67c-0.33-1.94-0.49-5.64-0.49-11.08v-9.38c2.27,0.1,4.41,0.83,6.43,2.19
		c2.02,1.36,3.69,3.03,4.99,4.99c1.31,1.97,2.63,4.07,3.93,6.32c1.31,2.24,2.46,4.33,3.45,6.25c0.99,1.92,2.09,3.52,3.34,4.81
		c1.23,1.28,2.49,1.93,3.74,1.93h10.52l-0.15-0.9c-4.69,0-8.53-2.38-11.5-7.12c-1.37-2.07-2.66-4.24-3.86-6.51
		c-3.13-5.81-6.54-9.79-10.22-11.96c3.68-0.41,6.83-1.86,9.42-4.35c2.6-2.5,3.9-5.59,3.9-9.27c0-8.57-6.36-12.87-19.08-12.87h-17.56
		l0.15,0.91c2.47,0,4.29,0.42,5.44,1.28c0.61,0.46,1.07,1.59,1.37,3.41c0.3,1.82,0.46,5.53,0.46,11.13v19.15
		C423.33,387.86,423.28,390.33,423.18,392z M428.56,350.45h4.92c8.78,0,13.17,3.83,13.17,11.5c0,3.89-1.27,6.81-3.78,8.78
		c-2.53,1.97-5.7,2.95-9.53,2.95h-4.77V350.45z"/>
	<path class="st4" d="M548.91,399.34c-1.16,0.96-3,1.44-5.52,1.44l-0.16,0.9h38.14v-10.97l-0.9,0.15c0,6.06-7.12,9.09-21.35,9.09
		c-1.31-0.61-2.16-1.79-2.53-3.56c-0.38-1.77-0.57-5.33-0.57-10.67v-9.76c4.85,0,8.32,0.24,10.45,0.72
		c2.12,0.48,3.48,1.23,4.08,2.23c0.61,1.01,0.9,2.75,0.9,5.22l0.83,0.15v-18.39l-0.83,0.16c0,2.41-0.3,4.15-0.9,5.18
		c-0.61,1.03-1.97,1.8-4.08,2.3c-2.12,0.5-5.6,0.76-10.45,0.76v-23.83c7.32,0,12.75,0.65,16.31,1.97c3.56,1.31,5.34,3.66,5.34,7.04
		l0.9,0.15v-10.9h-35.34l0.16,0.83c2.52,0,4.36,0.48,5.52,1.44c0.6,0.5,1.07,1.75,1.4,3.74c0.32,2,0.49,5.7,0.49,11.09v18.77
		C550.8,393.36,550.17,398.28,548.91,399.34z"/>
	<path class="st4" d="M679.11,350.98c1.16-0.96,3-1.44,5.52-1.44l0.15-0.83h-20.43l0.15,0.83c2.53,0,4.39,0.48,5.59,1.44
		c0.61,0.5,1.07,1.79,1.37,3.86c0.3,2.07,0.46,5.73,0.46,10.97v18.77c0,5.4-0.13,8.98-0.38,10.75c-0.2,1.36-0.44,2.34-0.72,2.91
		c-0.28,0.58-0.73,1.1-1.36,1.55c-0.64,0.46-1.3,0.74-2.01,0.83c-0.71,0.1-1.69,0.16-2.95,0.16l-0.15,0.9h20.43l-0.15-0.9
		c-2.53,0-4.37-0.48-5.52-1.44c-0.61-0.5-1.07-1.75-1.4-3.71c-0.33-1.97-0.5-5.65-0.5-11.04v-18.77
		C677.21,356.98,677.84,352.04,679.11,350.98z"/>
	<path class="st4" d="M804.9,349.54c2.47,0,4.24,0.35,5.29,1.02c1.06,0.68,1.83,2.13,2.31,4.35c0.48,2.23,0.72,5.83,0.72,10.82v28
		l-36.11-45.03h-10.29l0.15,0.83c2.47,0,4.22,0.35,5.26,1.02c1.03,0.68,1.79,2.12,2.27,4.32c0.48,2.19,0.72,5.81,0.72,10.86v18.69
		c0,5.05-0.24,8.68-0.72,10.9c-0.48,2.22-1.24,3.68-2.3,4.39s-2.8,1.06-5.22,1.06l-0.15,0.9h18.61l-0.15-0.9
		c-2.41,0-4.16-0.35-5.22-1.06c-1.07-0.71-1.82-2.17-2.28-4.39c-0.45-2.22-0.68-5.85-0.68-10.9v-27.39l35.65,45.03h2.34v-36.33
		c0-4.99,0.22-8.6,0.68-10.82c0.46-2.22,1.21-3.67,2.27-4.35c1.06-0.68,2.82-1.02,5.29-1.02l0.16-0.83h-18.77L804.9,349.54z"/>
	<path class="st4" d="M915.08,400.78c-2.17,0-3.67-0.2-4.5-0.57c-0.83-0.38-1.25-1.38-1.25-3.02c0-1.64,1.09-5.66,3.25-12.07h23.09
		c2.67,7.32,4.01,11.6,4.01,12.87c0,1.26-0.39,2.04-1.17,2.34c-0.79,0.3-2.14,0.46-4.05,0.46l-0.15,0.9h18.92l-0.15-0.9
		c-1.92,0-3.51-0.43-4.77-1.29c-0.71-0.46-1.46-1.49-2.23-3.1c-0.79-1.62-2.31-5.43-4.58-11.43l-13.4-36.26h-12.48l0.14,0.83
		c2.02,0,3.38,0.22,4.09,0.65c0.71,0.43,1.06,1.38,1.06,2.84s-1.19,5.62-3.56,12.48l-6.73,19.45c-1.26,3.74-2.34,6.63-3.25,8.7
		s-1.86,3.65-2.84,4.73c-0.98,1.09-1.89,1.75-2.72,2.01c-0.83,0.26-1.98,0.39-3.45,0.39l-0.16,0.9h17.04L915.08,400.78z
		 M923.85,352.8l11.2,30.5h-21.87L923.85,352.8z"/>
	<path class="st4" d="M86.44,474.23c2.12,0,3.6,0.23,4.47,0.68c0.85,0.46,1.28,1.49,1.28,3.11c0,1.61-1.11,5.62-3.33,12.04
		l-11.2,32.16l-11.81-32.16c-0.2-0.56-0.46-1.29-0.79-2.19c-0.33-0.91-0.58-1.59-0.76-2.05c-0.17-0.46-0.39-1.04-0.65-1.74
		c-0.25-0.71-0.44-1.25-0.57-1.63c-0.13-0.38-0.27-0.83-0.42-1.36c-0.15-0.53-0.26-0.95-0.34-1.25c-0.08-0.31-0.18-0.69-0.31-1.17
		c-0.13-0.48-0.19-1.16-0.19-2.05c0-0.88,0.39-1.5,1.17-1.86c0.79-0.35,2.13-0.53,4.05-0.53l0.15-0.91H46.78l0.16,0.91
		c1.26,0,2.26,0.04,2.99,0.11c0.73,0.08,1.49,0.35,2.27,0.79c0.79,0.46,1.4,0.96,1.86,1.52c1.16,1.36,3.15,5.83,5.98,13.4
		l13.4,36.62h4.77l12.72-36.62c1.31-3.78,2.42-6.69,3.33-8.71c0.9-2.01,1.9-3.58,2.99-4.69c1.08-1.11,2.12-1.79,3.11-2.05
		c0.98-0.25,2.42-0.38,4.34-0.38l0.16-0.91H86.28L86.44,474.23z"/>
	<path class="st4" d="M200.19,475.6c1.16-0.96,3-1.44,5.52-1.44l0.16-0.83h-20.44l0.16,0.83c2.52,0,4.39,0.48,5.59,1.44
		c0.61,0.5,1.06,1.79,1.36,3.86c0.31,2.07,0.46,5.73,0.46,10.97v18.77c0,5.4-0.13,8.98-0.38,10.75c-0.2,1.36-0.44,2.34-0.72,2.91
		c-0.27,0.58-0.72,1.1-1.35,1.55c-0.64,0.46-1.31,0.74-2.01,0.83c-0.71,0.1-1.68,0.16-2.94,0.16l-0.16,0.9h20.44l-0.16-0.9
		c-2.52,0-4.36-0.48-5.52-1.44c-0.61-0.5-1.07-1.75-1.4-3.71c-0.33-1.97-0.49-5.65-0.49-11.04v-18.77
		C198.3,481.6,198.93,476.66,200.19,475.6z"/>
	<path class="st4" d="M325.84,518.28c-1.37-2.07-2.66-4.24-3.86-6.51c-3.13-5.81-6.54-9.79-10.22-11.96
		c3.68-0.41,6.83-1.86,9.42-4.35c2.6-2.5,3.9-5.59,3.9-9.27c0-8.57-6.36-12.87-19.08-12.87h-17.56l0.15,0.91
		c2.47,0,4.29,0.42,5.44,1.28c0.61,0.46,1.07,1.59,1.37,3.41s0.46,5.53,0.46,11.13v19.15c0,3.28-0.06,5.75-0.16,7.42
		c-0.15,4.18-0.71,6.65-1.67,7.41c-1.16,0.91-2.97,1.37-5.44,1.37l-0.15,0.9h20.28l-0.15-0.9c-2.53,0-4.39-0.48-5.6-1.44
		c-0.61-0.5-1.07-1.73-1.4-3.67c-0.33-1.94-0.49-5.64-0.49-11.08v-9.38c2.27,0.1,4.41,0.83,6.43,2.19c2.02,1.36,3.69,3.03,4.99,4.99
		c1.31,1.97,2.63,4.07,3.93,6.32c1.31,2.24,2.46,4.33,3.45,6.25c0.99,1.92,2.09,3.52,3.34,4.81c1.23,1.28,2.49,1.93,3.74,1.93h10.52
		l-0.15-0.9C332.65,525.4,328.81,523.02,325.84,518.28z M305.86,498.3h-4.77v-23.23h4.92c8.78,0,13.17,3.83,13.17,11.5
		c0,3.89-1.27,6.81-3.78,8.78C312.87,497.31,309.69,498.3,305.86,498.3z"/>
	<path class="st4" d="M453.3,518.28c-1.36-2.07-2.65-4.24-3.85-6.51c-3.13-5.81-6.54-9.79-10.23-11.96
		c3.68-0.41,6.83-1.86,9.42-4.35c2.6-2.5,3.9-5.59,3.9-9.27c0-8.57-6.36-12.87-19.07-12.87h-17.56l0.14,0.91
		c2.47,0,4.29,0.42,5.45,1.28c0.61,0.46,1.06,1.59,1.36,3.41c0.31,1.82,0.46,5.53,0.46,11.13v19.15c0,3.28-0.05,5.75-0.15,7.42
		c-0.15,4.18-0.71,6.65-1.67,7.41c-1.16,0.91-2.98,1.37-5.45,1.37l-0.14,0.9h20.28l-0.16-0.9c-2.52,0-4.39-0.48-5.6-1.44
		c-0.6-0.5-1.07-1.73-1.4-3.67c-0.33-1.94-0.49-5.64-0.49-11.08v-9.38c2.27,0.1,4.41,0.83,6.43,2.19c2.01,1.36,3.68,3.03,4.99,4.99
		c1.32,1.97,2.63,4.07,3.94,6.32c1.31,2.24,2.46,4.33,3.44,6.25c0.99,1.92,2.1,3.52,3.34,4.81c1.23,1.28,2.49,1.93,3.74,1.93h10.52
		l-0.16-0.9C460.11,525.4,456.28,523.02,453.3,518.28z M433.32,498.3h-4.77v-23.23h4.92c8.78,0,13.17,3.83,13.17,11.5
		c0,3.89-1.27,6.81-3.79,8.78C440.34,497.31,437.16,498.3,433.32,498.3z"/>
	<path class="st4" d="M559.13,524.56c-1.31-0.61-2.16-1.79-2.54-3.56c-0.38-1.77-0.57-5.33-0.57-10.67v-9.76
		c4.85,0,8.32,0.24,10.45,0.72c2.12,0.48,3.48,1.23,4.09,2.23c0.6,1.01,0.9,2.75,0.9,5.22l0.83,0.15V490.5l-0.83,0.16
		c0,2.41-0.31,4.15-0.9,5.18c-0.61,1.03-1.97,1.8-4.09,2.3c-2.12,0.5-5.6,0.76-10.45,0.76v-23.83c7.32,0,12.76,0.65,16.31,1.97
		c3.56,1.31,5.33,3.66,5.33,7.04l0.91,0.15v-10.9h-35.35l0.16,0.83c2.52,0,4.36,0.48,5.52,1.44c0.61,0.5,1.07,1.75,1.4,3.74
		c0.33,2,0.49,5.7,0.49,11.09v18.77c0,8.78-0.63,13.69-1.89,14.76c-1.16,0.96-3,1.44-5.52,1.44l-0.16,0.9h38.15v-10.97l-0.91,0.15
		C580.47,521.53,573.36,524.56,559.13,524.56z"/>
	<path class="st4" d="M679.11,475.6c1.16-0.96,3-1.44,5.52-1.44l0.15-0.83h-20.43l0.15,0.83c2.53,0,4.39,0.48,5.59,1.44
		c0.61,0.5,1.07,1.79,1.37,3.86c0.3,2.07,0.46,5.73,0.46,10.97v18.77c0,5.4-0.13,8.98-0.38,10.75c-0.2,1.36-0.44,2.34-0.72,2.91
		c-0.28,0.58-0.73,1.1-1.36,1.55c-0.64,0.46-1.3,0.74-2.01,0.83c-0.71,0.1-1.69,0.16-2.95,0.16l-0.15,0.9h20.43l-0.15-0.9
		c-2.53,0-4.37-0.48-5.52-1.44c-0.61-0.5-1.07-1.75-1.4-3.71c-0.33-1.97-0.5-5.65-0.5-11.04v-18.77
		C677.21,481.6,677.84,476.66,679.11,475.6z"/>
	<path class="st4" d="M804.9,474.16c2.47,0,4.23,0.35,5.29,1.02c1.06,0.68,1.83,2.13,2.3,4.35c0.49,2.23,0.72,5.83,0.72,10.82v28
		l-36.11-45.03h-10.29l0.16,0.83c2.47,0,4.22,0.35,5.25,1.02c1.04,0.68,1.79,2.12,2.27,4.32c0.49,2.19,0.72,5.81,0.72,10.86v18.69
		c0,5.05-0.24,8.68-0.72,10.9c-0.47,2.22-1.24,3.68-2.3,4.39c-1.07,0.71-2.8,1.06-5.22,1.06l-0.16,0.9h18.62l-0.15-0.9
		c-2.42,0-4.17-0.35-5.22-1.06c-1.06-0.71-1.82-2.17-2.27-4.39c-0.45-2.22-0.68-5.85-0.68-10.9v-27.39l35.65,45.03h2.34v-36.33
		c0-4.99,0.23-8.6,0.68-10.82c0.45-2.22,1.21-3.67,2.27-4.35c1.05-0.68,2.82-1.02,5.29-1.02l0.15-0.83h-18.77L804.9,474.16z"/>
	<path class="st4" d="M948.3,524.11c-0.71-0.46-1.46-1.49-2.23-3.1c-0.79-1.62-2.31-5.43-4.58-11.43l-13.4-36.25h-12.48l0.14,0.83
		c2.02,0,3.38,0.22,4.09,0.65c0.71,0.43,1.06,1.38,1.06,2.84s-1.19,5.62-3.56,12.48l-6.73,19.45c-1.26,3.74-2.34,6.63-3.25,8.7
		c-0.9,2.07-1.86,3.65-2.84,4.73c-0.98,1.09-1.89,1.75-2.72,2.01c-0.83,0.26-1.98,0.39-3.45,0.39l-0.16,0.9h17.04l-0.16-0.9
		c-2.17,0-3.67-0.2-4.5-0.57c-0.83-0.38-1.25-1.38-1.25-3.02c0-1.64,1.09-5.66,3.25-12.07h23.09c2.67,7.32,4.01,11.6,4.01,12.87
		c0,1.26-0.39,2.04-1.17,2.34c-0.79,0.3-2.14,0.46-4.05,0.46l-0.15,0.9h18.92l-0.15-0.9C951.15,525.4,949.56,524.96,948.3,524.11z
		 M913.19,507.91l10.67-30.5l11.2,30.5H913.19z"/>
	<path class="st4" d="M86.44,598.85c2.12,0,3.6,0.23,4.47,0.68c0.85,0.46,1.28,1.49,1.28,3.11s-1.11,5.62-3.33,12.04l-11.2,32.16
		l-11.81-32.16c-0.2-0.56-0.46-1.29-0.79-2.19c-0.33-0.91-0.58-1.59-0.76-2.05c-0.17-0.46-0.39-1.04-0.65-1.74
		c-0.25-0.71-0.44-1.25-0.57-1.63c-0.13-0.38-0.27-0.83-0.42-1.36c-0.15-0.53-0.26-0.95-0.34-1.25c-0.08-0.31-0.18-0.69-0.31-1.17
		c-0.13-0.48-0.19-1.16-0.19-2.05c0-0.88,0.39-1.5,1.17-1.86c0.79-0.35,2.13-0.53,4.05-0.53l0.15-0.91H46.78l0.16,0.91
		c1.26,0,2.26,0.04,2.99,0.11c0.73,0.08,1.49,0.35,2.27,0.79c0.79,0.46,1.4,0.96,1.86,1.52c1.16,1.36,3.15,5.83,5.98,13.4
		l13.4,36.62h4.77l12.72-36.62c1.31-3.78,2.42-6.69,3.33-8.71c0.9-2.01,1.9-3.58,2.99-4.69c1.08-1.11,2.12-1.79,3.11-2.05
		c0.98-0.25,2.42-0.38,4.34-0.38l0.16-0.91H86.28L86.44,598.85z"/>
	<path class="st4" d="M200.19,600.21c1.16-0.96,3-1.44,5.52-1.44l0.16-0.83h-20.44l0.16,0.83c2.52,0,4.39,0.48,5.59,1.44
		c0.61,0.5,1.06,1.79,1.36,3.86c0.31,2.07,0.46,5.73,0.46,10.97v18.77c0,5.4-0.13,8.98-0.38,10.75c-0.2,1.36-0.44,2.34-0.72,2.91
		c-0.27,0.58-0.72,1.1-1.35,1.55c-0.64,0.46-1.31,0.74-2.01,0.83c-0.71,0.1-1.68,0.16-2.94,0.16l-0.16,0.9h20.44l-0.16-0.9
		c-2.52,0-4.36-0.48-5.52-1.44c-0.61-0.5-1.07-1.75-1.4-3.71c-0.33-1.97-0.49-5.65-0.49-11.04v-18.77
		C198.3,606.21,198.93,601.27,200.19,600.21z"/>
	<path class="st4" d="M325.84,642.89c-1.37-2.07-2.66-4.24-3.86-6.51c-3.13-5.81-6.54-9.79-10.22-11.96
		c3.68-0.41,6.83-1.86,9.42-4.35c2.6-2.5,3.9-5.59,3.9-9.27c0-8.57-6.36-12.87-19.08-12.87h-17.56l0.15,0.91
		c2.47,0,4.29,0.42,5.44,1.28c0.61,0.46,1.07,1.59,1.37,3.41s0.46,5.53,0.46,11.13v19.15c0,3.28-0.06,5.75-0.16,7.42
		c-0.15,4.18-0.71,6.65-1.67,7.41c-1.16,0.91-2.97,1.37-5.44,1.37l-0.15,0.9h20.28l-0.15-0.9c-2.53,0-4.39-0.48-5.6-1.44
		c-0.61-0.5-1.07-1.73-1.4-3.67c-0.33-1.94-0.49-5.64-0.49-11.08v-9.38c2.27,0.1,4.41,0.83,6.43,2.19c2.02,1.36,3.69,3.03,4.99,4.99
		c1.31,1.97,2.63,4.07,3.93,6.32c1.31,2.24,2.46,4.33,3.45,6.25c0.99,1.92,2.09,3.52,3.34,4.81c1.23,1.28,2.49,1.93,3.74,1.93h10.52
		l-0.15-0.9C332.65,650.01,328.81,647.64,325.84,642.89z M305.86,622.91h-4.77v-23.23h4.92c8.78,0,13.17,3.83,13.17,11.5
		c0,3.89-1.27,6.81-3.78,8.78C312.87,621.93,309.69,622.91,305.86,622.91z"/>
	<path class="st4" d="M453.3,642.89c-1.36-2.07-2.65-4.24-3.85-6.51c-3.13-5.81-6.54-9.79-10.23-11.96
		c3.68-0.41,6.83-1.86,9.42-4.35c2.6-2.5,3.9-5.59,3.9-9.27c0-8.57-6.36-12.87-19.07-12.87h-17.56l0.14,0.91
		c2.47,0,4.29,0.42,5.45,1.28c0.61,0.46,1.06,1.59,1.36,3.41c0.31,1.82,0.46,5.53,0.46,11.13v19.15c0,3.28-0.05,5.75-0.15,7.42
		c-0.15,4.18-0.71,6.65-1.67,7.41c-1.16,0.91-2.98,1.37-5.45,1.37l-0.14,0.9h20.28l-0.16-0.9c-2.52,0-4.39-0.48-5.6-1.44
		c-0.6-0.5-1.07-1.73-1.4-3.67c-0.33-1.94-0.49-5.64-0.49-11.08v-9.38c2.27,0.1,4.41,0.83,6.43,2.19c2.01,1.36,3.68,3.03,4.99,4.99
		c1.32,1.97,2.63,4.07,3.94,6.32c1.31,2.24,2.46,4.33,3.44,6.25c0.99,1.92,2.1,3.52,3.34,4.81c1.23,1.28,2.49,1.93,3.74,1.93h10.52
		l-0.16-0.9C460.11,650.01,456.28,647.64,453.3,642.89z M433.32,622.91h-4.77v-23.23h4.92c8.78,0,13.17,3.83,13.17,11.5
		c0,3.89-1.27,6.81-3.79,8.78C440.34,621.93,437.16,622.91,433.32,622.91z"/>
	<path class="st4" d="M559.13,649.18c-1.31-0.61-2.16-1.79-2.54-3.56c-0.38-1.77-0.57-5.33-0.57-10.67v-9.76
		c4.85,0,8.32,0.24,10.45,0.72s3.48,1.23,4.09,2.23c0.6,1.01,0.9,2.75,0.9,5.22l0.83,0.15v-18.39l-0.83,0.16
		c0,2.41-0.31,4.15-0.9,5.18c-0.61,1.03-1.97,1.8-4.09,2.3c-2.12,0.5-5.6,0.76-10.45,0.76v-23.83c7.32,0,12.76,0.65,16.31,1.97
		c3.56,1.31,5.33,3.66,5.33,7.04l0.91,0.15v-10.9h-35.35l0.16,0.83c2.52,0,4.36,0.48,5.52,1.44c0.61,0.5,1.07,1.75,1.4,3.74
		c0.33,2,0.49,5.7,0.49,11.09v18.77c0,8.78-0.63,13.69-1.89,14.76c-1.16,0.96-3,1.44-5.52,1.44l-0.16,0.9h38.15v-10.97l-0.91,0.15
		C580.47,646.15,573.36,649.18,559.13,649.18z"/>
	<path class="st4" d="M679.11,600.21c1.16-0.96,3-1.44,5.52-1.44l0.15-0.83h-20.43l0.15,0.83c2.53,0,4.39,0.48,5.59,1.44
		c0.61,0.5,1.07,1.79,1.37,3.86c0.3,2.07,0.46,5.73,0.46,10.97v18.77c0,5.4-0.13,8.98-0.38,10.75c-0.2,1.36-0.44,2.34-0.72,2.91
		c-0.28,0.58-0.73,1.1-1.36,1.55c-0.64,0.46-1.3,0.74-2.01,0.83c-0.71,0.1-1.69,0.16-2.95,0.16l-0.15,0.9h20.43l-0.15-0.9
		c-2.53,0-4.37-0.48-5.52-1.44c-0.61-0.5-1.07-1.75-1.4-3.71c-0.33-1.97-0.5-5.65-0.5-11.04v-18.77
		C677.21,606.21,677.84,601.27,679.11,600.21z"/>
	<path class="st4" d="M804.9,598.77c2.47,0,4.23,0.35,5.29,1.02c1.06,0.68,1.83,2.13,2.3,4.35c0.49,2.23,0.72,5.83,0.72,10.82v28
		l-36.11-45.03h-10.29l0.16,0.83c2.47,0,4.22,0.35,5.25,1.02c1.04,0.68,1.79,2.12,2.27,4.32c0.49,2.19,0.72,5.81,0.72,10.86v18.69
		c0,5.05-0.24,8.68-0.72,10.9c-0.47,2.22-1.24,3.68-2.3,4.39c-1.07,0.71-2.8,1.06-5.22,1.06l-0.16,0.9h18.62l-0.15-0.9
		c-2.42,0-4.17-0.35-5.22-1.06c-1.06-0.71-1.82-2.17-2.27-4.39c-0.45-2.22-0.68-5.85-0.68-10.9v-27.39l35.65,45.03h2.34v-36.33
		c0-4.99,0.23-8.6,0.68-10.82c0.45-2.22,1.21-3.67,2.27-4.35c1.05-0.68,2.82-1.02,5.29-1.02l0.15-0.83h-18.77L804.9,598.77z"/>
	<path class="st4" d="M948.3,648.72c-0.71-0.46-1.46-1.49-2.23-3.1c-0.79-1.62-2.31-5.43-4.58-11.43l-13.4-36.25h-12.48l0.14,0.83
		c2.02,0,3.38,0.22,4.09,0.65c0.71,0.43,1.06,1.38,1.06,2.84c0,1.46-1.19,5.62-3.56,12.48l-6.73,19.45
		c-1.26,3.74-2.34,6.63-3.25,8.7s-1.86,3.65-2.84,4.73c-0.98,1.09-1.89,1.75-2.72,2.01c-0.83,0.26-1.98,0.39-3.45,0.39l-0.16,0.9
		h17.04l-0.16-0.9c-2.17,0-3.67-0.2-4.5-0.57s-1.25-1.38-1.25-3.02c0-1.64,1.09-5.66,3.25-12.07h23.09
		c2.67,7.32,4.01,11.6,4.01,12.87c0,1.26-0.39,2.04-1.17,2.34c-0.79,0.3-2.14,0.46-4.05,0.46l-0.15,0.9h18.92l-0.15-0.9
		C951.15,650.01,949.56,649.58,948.3,648.72z M913.19,632.52l10.67-30.5l11.2,30.5H913.19z"/>
</g>
</svg>
