<?xml version="1.0" encoding="utf-8"?>
<!-- Generator: Adobe Illustrator 27.0.0, SVG Export Plug-In . SVG Version: 6.00 Build 0)  -->
<svg version="1.1" id="Layer_1" xmlns="http://www.w3.org/2000/svg" xmlns:xlink="http://www.w3.org/1999/xlink" x="0px" y="0px"
	 viewBox="0 0 1000 1000" style="enable-background:new 0 0 1000 1000;" xml:space="preserve">
<style type="text/css">
	.st0{fill:#FFFFFF;}
	.st1{fill:#FFFFFF;stroke:#010101;stroke-width:0.2826;stroke-miterlimit:10;}
	.st2{fill:#010101;}
	.st3{fill:#231F20;}
	.st4{fill:#010101;stroke:#010101;stroke-width:0.2826;stroke-miterlimit:10;}
</style>
<g>
	<g>
		<path class="st2" d="M229.31,782.56C119.4,782.56,29.98,655.8,29.98,500s89.42-282.56,199.32-282.56
			c109.92,0,199.34,126.76,199.34,282.56S339.23,782.56,229.31,782.56z M229.31,255.18c-89.09,0-161.58,109.83-161.58,244.82
			s72.49,244.82,161.58,244.82c89.11,0,161.6-109.83,161.6-244.82S318.41,255.18,229.31,255.18z"/>
	</g>
	<g>
		<path class="st2" d="M409.77,782.56c-109.92,0-199.34-126.76-199.34-282.56s89.42-282.56,199.34-282.56
			c109.9,0,199.32,126.76,199.32,282.56S519.68,782.56,409.77,782.56z M409.77,255.18c-89.11,0-161.6,109.83-161.6,244.82
			s72.49,244.82,161.6,244.82c89.09,0,161.58-109.83,161.58-244.82S498.87,255.18,409.77,255.18z"/>
	</g>
	<g>
		<path class="st2" d="M590.23,782.56C480.32,782.56,390.9,655.8,390.9,500s89.42-282.56,199.32-282.56
			c109.92,0,199.34,126.76,199.34,282.56S700.15,782.56,590.23,782.56z M590.23,255.18c-89.09,0-161.58,109.83-161.58,244.82
			s72.49,244.82,161.58,244.82c89.11,0,161.6-109.83,161.6-244.82S679.33,255.18,590.23,255.18z"/>
	</g>
	<g>
		<path class="st2" d="M770.69,782.56c-109.92,0-199.34-126.76-199.34-282.56s89.42-282.56,199.34-282.56
			c109.9,0,199.32,126.76,199.32,282.56S880.6,782.56,770.69,782.56z M770.69,255.18c-89.11,0-161.6,109.83-161.6,244.82
			s72.49,244.82,161.6,244.82c89.09,0,161.58-109.83,161.58-244.82S859.78,255.18,770.69,255.18z"/>
	</g>
</g>
</svg>
