<?xml version="1.0" encoding="utf-8"?>
<!-- Generator: Adobe Illustrator 27.0.0, SVG Export Plug-In . SVG Version: 6.00 Build 0)  -->
<svg version="1.1" id="Layer_1" xmlns="http://www.w3.org/2000/svg" xmlns:xlink="http://www.w3.org/1999/xlink" x="0px" y="0px"
	 viewBox="0 0 1000 1000" style="enable-background:new 0 0 1000 1000;" xml:space="preserve">
<style type="text/css">
	.st0{fill:#FFFFFF;}
	.st1{fill:#FFFFFF;stroke:#010101;stroke-width:0.2826;stroke-miterlimit:10;}
	.st2{fill:#010101;}
	.st3{fill:#231F20;}
	.st4{fill:#010101;stroke:#010101;stroke-width:0.2826;stroke-miterlimit:10;}
</style>
<g>
	<g id="Layer_1_00000146485392670523386920000015085859834104224421_">
		<path class="st3" d="M503.38,217.97c55.74,0,58.83,65.2,58.88,78.27v1.68c-0.07,1.85,1.37,3.41,3.22,3.48c0.04,0,0.08,0,0.13,0
			l0,0c1.85,0,3.35-1.51,3.35-3.36c0-0.03,0-0.07,0-0.1v-1.08c0-0.07,0-0.15,0-0.22v-0.18c0-0.06,0-0.13,0-0.19
			c0.05-13.09,3.14-78.29,58.87-78.29c1.85,0,3.34-1.5,3.34-3.35c0-1.85-1.5-3.34-3.34-3.34c-55.73,0-58.82-65.2-58.87-78.27
			c0-0.07,0-0.14,0-0.22v-0.11v-0.27v-1.09c0-1.86-1.5-3.36-3.36-3.36s-3.36,1.5-3.36,3.36v1.69c-0.05,13.08-3.14,78.28-58.88,78.28
			c-1.85,0-3.35,1.5-3.35,3.34c0,1.85,1.5,3.35,3.34,3.35c0,0,0,0,0,0L503.38,217.97z M527.57,213.65
			c18.07-7.21,30.52-23.25,37-47.58l1.03-3.86l1.03,3.86c6.49,24.33,18.93,40.37,37,47.58l2.47,0.99l-2.47,0.99
			c-18.07,7.21-30.52,23.25-37,47.58l-1.03,3.86l-1.03-3.86c-6.49-24.33-18.93-40.37-37-47.58l-2.47-0.99L527.57,213.65z"/>
		<path class="st3" d="M363.32,314.54c-1.85-2.38-6.65-3.36-10.33-3.29c-3.29,0.07-5.77,0.97-6.85,2.46l-0.2,0.28
			c-0.92,1.29-2.32,3.23-1.64,4.92c0.45,1.12,1.68,1.86,3.77,2.26c3.09,0.59,6.19,1.51,9.19,2.39c1.44,0.43,2.88,0.86,4.33,1.25
			c0.53,0.15,1.07,0.23,1.61,0.24c0.66,0.02,1.32-0.17,1.87-0.53c1.03-0.68,1.64-1.94,1.93-4.07c-0.06-1.95-1.32-3.29-2.52-4.59
			C364.09,315.44,363.68,314.99,363.32,314.54z"/>
		<path class="st3" d="M733.4,335.62h-6.39l0,0l-160.86,110.5c-8.1-1.79-16.15-3.39-24.05-4.89c-37.74-7.15-66.58-28.02-88.19-63.81
			c-7.56-12.53-14.27-25.56-20.08-39c-6.69-15.46-13.04-27.97-22.35-38.77c-6.88-8.02-10.68-14.93-12.31-22.43
			c-0.55-2.53-1.48-4-2.84-4.5c-1.36-0.5-3.16,0.07-5.37,1.78c-1.14,0.91-2.19,1.92-3.14,3.02c-2.12,2.38-3.88,3.44-5.36,3.24
			c-1.48-0.2-3.01-1.76-4.52-4.76c-2.16-4.38-4.4-8.85-6.49-13.18c-2.49-5.05-5.05-10.31-7.66-15.43c-0.16-0.35-0.29-0.72-0.4-1.09
			c-0.42-1.31-1-3.11-3.47-3.16h-0.43l-0.09,0.42c-0.63,2.66-1.32,5.35-1.99,7.93c-1.66,6.01-2.99,12.11-3.99,18.27
			c-0.89,6.39-3.7,8.46-8.77,12.25c-1.05,0.77-2.16,1.61-3.4,2.57c-0.59,0.46-1.33,0.99-2.07,1.53c-0.91,0.65-1.84,1.33-2.47,1.86
			c-18.42,15.4-33.22,31.16-45.28,48.18c-3.5,4.93-3.69,9.33-0.59,13.06c1.12,1.44,2.09,3,2.88,4.64c2.26,4.33,4.59,8.77,12.05,8.77
			h0.56c19.2,0,33.62,2.43,46.66,7.86c2.82,1.17,4.7,2.23,5.38,3.93c0.53,1.3,0.32,3.01-0.64,5.25c-1.17,3.05-2.04,6.2-2.57,9.42
			c-0.29,1.44-0.58,2.95-0.94,4.38c-0.56,2.26-2.03,8.25,2.84,9.53c4.26,1.12,8.17-1.61,9.54-6.63c0.56-2.06,1.15-4.08,1.9-6.63
			c0.27-0.9,0.56-1.87,0.86-2.88c0.27,0.55,0.52,1.02,0.72,1.44c0.49,0.9,0.93,1.83,1.3,2.78c4.41,12.25,6.54,25.23,8.59,37.77
			c0.61,3.72,1.25,7.57,1.92,11.34c0.56,3.11,0.45,4.96-0.36,5.83c-0.81,0.87-2.74,0.97-5.83,0.64l-6.29-0.66
			c-11.66-1.23-23.72-2.5-35.61-2.98c-2.98-0.12-6.04-0.53-9-0.92c-8.55-1.15-17.4-2.33-25.95,3.07
			c-11.28,7.11-18.53,15.06-22.83,25.01c-2.39,5.54-4.72,11.21-6.98,16.69c-1.99,4.82-4.04,9.82-6.13,14.7
			c-4.12,9.65-8.39,19.62-16.4,26.94c-6.59,6.02-10.3,13.14-13.07,19.32c-1.71,3.81-2.43,5.77-1.7,7.21
			c0.73,1.44,3.01,2.07,6.65,2.88c0.41,0.08,0.82,0.13,1.23,0.16c0.83,0.07,1.76,0.16,2.07,0.56c0.05,0.06,0.19,0.25,0.11,0.72
			c-0.37,2.1-0.19,3.42,0.56,4.18c0.94,0.95,2.49,0.72,3.99,0.46c0.48-0.07,0.97-0.15,1.44-0.19l1.35-0.12
			c2.83-0.33,5.69-0.43,8.53-0.32c7.37,0.48,10.89-2.32,11.48-9.1s3.71-10.32,9.67-11.04c3.6-0.43,4.66-3.23,5.5-6.32
			c4.01-14.55,9.43-28.68,16.19-42.18c0.2-0.4,0.37-0.83,0.56-1.28c0.64-1.59,1.31-3.24,3.56-4.06c-4.65,11.09-6,22.53-7.3,33.6
			c-0.24,2.04-0.48,4.07-0.72,6.1c-2.39,18.7-7.16,33.53-15.01,46.67c-3.27,5.46-5.51,11.87-7.06,20.18
			c-0.53,2.88-0.31,4.59,0.72,5.59s2.78,1.13,5.38,0.5c4.78-1.17,9.71-2.1,14.47-2.99c3.01-0.57,6.11-1.15,9.16-1.79l0.45-0.09
			c1.82-0.36,4.33-0.86,4.44-3.31c0.27-4.99,2.7-8.8,5.28-12.83c1.21-1.81,2.31-3.69,3.31-5.63c2.82-5.77,3.71-12.25,4.56-18.57
			c0.13-0.99,0.27-1.98,0.41-2.96c0.37-2.64,0.72-5.32,1.02-7.93c1.09-8.92,2.21-18.14,5.54-26.76c1.74-4.51,3.93-7.21,9.37-6.76
			l11.2,0.91c24.51,1.99,49.85,4.05,74.82,5.16c6.36,0.29,10.37,2.62,14.78,6.31c1.86,1.56,3.74,3.07,5.64,4.53l-126.54,86.93l0,0
			l0,0v233.55l0,0l0,0l3.6,5.26l301.46-207.08c0.14,0.52,0.31,1.02,0.44,1.55c3.52,14.29,4.21,28.76,4.43,42.27
			c0.1,6.18-1.57,9.59-5.77,11.81c-9.16,4.83-12.02,13.7-14.77,22.31l-0.56,1.72c-0.58,1.78-0.83,3.6,1.24,4.97
			c2.07,1.36,7.57,1.92,13.7,1.92c8.11,0,17.18-1.07,20.1-2.99c1.44-0.97,1.56-2.41,1.49-3.55c-0.54-8.01,4.72-12.25,10.29-16.69
			l0.67-0.54c2.88-2.31,4.51-4.71,3.77-9.51c-1.49-9.62-1.93-17.24-1.38-24c0.26-3.19,0.63-6.49,1-9.6
			c1.61-13.91,3.27-28.29-4.28-43.06c3.19,2.34,3.36,2.71,4.52,5.25c8.35,18.27,9.7,38.2,11.01,57.56v0.53
			c0.48,5.8-1.11,11.59-4.48,16.33c-3.01,4.42-5.88,9.02-8.65,13.47c-1.32,2.1-2.63,4.21-3.97,6.3c-0.89,1.4-2.16,4.17-1.12,5.77
			c0.34,0.53,1.06,1.11,2.63,0.91c2.67-0.35,4.98,0.5,7.42,1.44c2.67,0.99,5.43,2.01,8.65,1.28c5.05-1.17,10.32-1.4,16.17-1.55
			c2.09-0.06,3.17-0.4,3.75-1.19c0.66-0.92,0.45-2.3-0.08-4.1c-1.14-3.87-1.09-6.99,0.16-9.27c1.07-1.95,3.06-3.36,5.93-4.18
			c3.6-1.04,3.45-3.26,2.88-6.05c-4.62-23.15-5.42-42.59-2.52-61.17c1.9-12.12-1.02-23.16-8.95-33.74c-1.28-1.73-2.57-3.46-3.85-5.2
			l49.82-34.33l-0.04-0.06h0.12L733.4,335.62z M727.02,569.17l-47.35,32.53c-4.73-6.49-9.42-12.98-14-19.33l-2.26-3.11l-0.5-0.68
			c-1.36-1.83-2.63-3.55-2.24-5.96c1.61-9.31,3.83-18.49,6.65-27.51c0.72-2.49,1.52-5.05,2.16-7.59L727,498.01L727.02,569.17z
			 M324.96,619.59l123.1-84.58v63.33l-123.1,84.58V619.59z M666.73,715.87c0,0.19-0.05,0.38-0.08,0.58
			c-0.43,3.25-0.72,5.66-5.05,5.86c0.35-0.63,0.65-1.25,0.94-1.87C663.52,718.46,664.35,716.71,666.73,715.87z M454.45,756.45
			v-71.16l124.94-85.84c1.31,1.31,2.72,2.51,4.21,3.6c3.68,2.69,7.26,5.53,10.73,8.43v48.89L454.45,756.45z M285.95,585.1
			c0.04,0.68-0.05,1.36-0.27,2c-0.17,0.65-0.29,1.3-0.37,1.97c-0.3,2.03-0.54,3.79-3.03,4.47c-0.25,0.12-0.55,0.04-0.72-0.18
			c-0.14-0.22-0.14-0.5,0-0.72c0.78-1.19,0.84-2.64,0.92-4.04c0.11-2.16,0.2-4.03,2.75-4.72c0.08-0.03,0.17-0.04,0.26-0.04
			c0.05,0,0.1,0.01,0.14,0.04C285.85,584,285.92,584.77,285.95,585.1z M672.6,722.64c0.3-1.62,0.59-3.15,1.69-3.88
			c0.81-0.54,2.05-0.62,3.78-0.25s2.56,0.82,2.98,1.5c0.36,0.74,0.4,1.6,0.13,2.37c-0.93,3.76-3.23,3.55-6.16,3.27
			c-0.72-0.07-1.44-0.14-2.16-0.14c-0.34,0-0.67,0.02-1.01,0.05C672.21,724.62,672.47,723.64,672.6,722.64z M651.76,619.38
			c-0.05-0.15,0-0.31,0.12-0.42c0.06-0.05,0.13-0.08,0.2-0.08l0,0c0.69,0.6,1.24,1.34,1.64,2.16c-0.12,0.14-0.3,0.32-0.42,0.44
			l-0.14,0.14c-0.99-0.35-1.15-1.08-1.34-1.98L651.76,619.38z M454.45,601.69l57.39-39.43c12.13,3.05,24.54,4.83,37.04,5.32
			l1.27,0.05c16.06,0.65,16.37,0.66,20.59,16.43c0.94,3.71,2.48,7.25,4.56,10.46l-120.85,83.03V601.69z M676.7,689.99
			c-0.64-25.32-4.12-44.23-11.29-61.27c-3.86-9.26-9.31-17.77-16.1-25.15c-6.43-6.98-7.14-13.97-2.31-22.66
			c0.49-0.87,0.97-1.75,1.44-2.63c1.38-2.51,2.79-5.08,4.33-7.63c-0.54,4.66,1.81,8.52,4.51,12.37c1.6,2.29,3.18,4.65,4.71,6.94
			c3.68,5.5,7.48,11.19,11.91,16.2c13.3,15.02,17.92,31.62,14.11,50.74c-2.88,14.35-0.47,28.32,2.46,42.57
			c0.72,3.6-0.06,6.86-2.16,9.01s-5.33,2.98-8.98,2.29c-1.94-0.37-3.87-0.72-6.08-1.2l-2.58-0.53
			C677.03,703.25,676.85,696.21,676.7,689.99z M652.47,662.28c-2.97,13.81-3.47,26.14-1.52,37.69c0.39,2.31-1.02,5.44-3.78,8.34
			c-3.19,3.37-7.21,5.41-10.03,5.1c-2.52-0.33-5.02-0.78-7.5-1.37c-0.97-0.21-1.93-0.42-2.88-0.61c0-0.16,0-0.31,0-0.45
			c0-0.14,0-0.32,0-0.44c8.71-4.63,9.1-12.48,8.71-20.81c-0.59-12.98-1.26-27.69-4.07-41.81c-1.82-9.17-6.44-17.39-14.55-25.9
			c-5.11-5.33-10.5-10.38-16.15-15.14v-0.24h-0.3c-4.57-3.87-9.62-7.89-15.35-12.21c-3.24-2.44-4.84-5.54-6.6-9.37
			c-7.11-15.38-4.75-30.84-1.15-45.25c0.18-0.78,0.31-1.57,0.4-2.36c0.09-0.85,0.24-1.68,0.45-2.51c0.4-1.02,0.33-2.17-0.18-3.14
			c-0.72-1.1-2.1-1.49-3.4-1.72c-0.84-0.24-1.75-0.11-2.49,0.36c-0.79,0.62-0.85,1.69-0.91,2.62c-0.01,0.35-0.05,0.7-0.11,1.04
			c-0.6,2.96-1.17,5.93-1.74,8.89c-0.81,4.17-1.65,8.48-2.54,12.7c-0.06,0.31-0.12,0.61-0.17,0.92c-0.43,2.31-0.77,4.13-4.17,4.05
			c-50.01-1.33-90.7-16.74-124.34-47.11l3.88-2.24c3.78-2.16,7.4-4.27,11-6.39c0.32-0.19,0.68-0.35,1.03-0.52
			c1.04-0.49,2.12-0.99,2.49-2.1c0.28-0.83,0.1-1.85-0.56-3.13c-0.72-1.41-1.5-2.16-2.39-2.41c-1.15-0.28-2.16,0.45-3.11,1.09
			c-0.41,0.31-0.85,0.58-1.32,0.8c-1.36,0.58-2.63,1.33-3.79,2.25c-10.32,8.44-22.53,11.45-39.59,9.75
			c-8.87-0.88-17.93-1.38-26.67-1.86c-13.62-0.72-27.71-1.52-41.42-3.76c-7.88-1.29-11.68,3.37-14.63,8.61
			c-5.64,10.01-6.91,21.25-8.14,32.13l-0.53,4.58c-0.77,5.61-1.22,11.26-1.36,16.93c-0.04,6-2.54,8.72-8.14,8.83
			c-3.83,0.06-7.68,0.05-11.76,0h-4.93c7.68-13.23,12.82-27.79,15.14-42.92c1.22-7.58,2.58-16.51,3.51-25.4
			c0.68-6.06,2.76-11.87,6.08-16.98c4.91-7.86,10.68-11.03,19.25-10.55c13.03,0.72,28.47,1.15,44.24-0.93
			c8.46-1.12,14.28-4,18.85-9.32c5.45-6.29,10.58-12.86,15.36-19.68c0.2-0.3,0.45-0.58,0.72-0.88c0.72-0.87,1.56-1.87,1.44-3.07
			c-0.11-0.88-0.72-1.72-1.84-2.57c-1.12-0.85-2.13-1.2-3.01-1.05c-1.18,0.22-1.84,1.27-2.48,2.29c-0.19,0.3-0.37,0.6-0.58,0.86
			c-2.45,3.34-4.9,6.78-7.5,10.42l-2.88,4.04c-4.53-16-8.18-32.34-11.8-52.81c-0.48-2.67-1.07-5.37-1.64-7.98
			c-0.34-1.51-0.67-3.02-0.98-4.53c-4.33-20.9-17.6-32.96-40.6-36.9c-9.6-1.64-21.06-3.24-33.58-2.85c1.02-1.08,2.3-1.88,3.71-2.34
			c0.9-0.33,1.75-0.76,2.55-1.29c0.4-0.25,0.82-0.44,1.27-0.58c0.93-0.35,1.99-0.76,2.38-1.74c0.25-0.89,0.12-1.84-0.37-2.62
			c-0.87-1.74-1.92-2.75-3.14-3.01c-1.21-0.18-2.44,0.16-3.37,0.94c-0.45-0.94,0-2.05,0.45-3.32c0.76-2.03,1.7-4.54-2.12-5.97
			c-0.87-0.44-1.89-0.48-2.8-0.13c-1.01,0.5-1.34,1.62-1.67,2.71c-0.14,0.64-0.41,1.24-0.78,1.77c-1.44,0.15-2.43,0.58-3,1.3
			c-0.84,1.07-0.61,2.48-0.39,3.85c0.09,0.49,0.15,0.99,0.18,1.49c-1.23-0.47-2-1.07-2.3-1.8c-0.52-1.3,0.46-3.03,1.33-4.55
			c0.18-0.31,0.35-0.61,0.5-0.9c3.24-6.06,7.99-11.24,12.59-16.24l0.42-0.46c7.84-8.53,15.98-16.65,23.85-24.51
			c12.62-12.59,27.8-12.29,44.9-10.45c-0.59,0.8-1.14,1.56-1.67,2.29c-1.48,2.05-2.77,3.81-4.14,5.5c-0.92,1.12-1.28,2-1.17,2.88
			c0.1,0.88,0.68,1.65,1.82,2.51c1.13,0.86,2.05,1.21,2.88,1.08c0.83-0.13,1.56-0.72,2.39-1.9c1.41-2.05,3.14-3.87,5.12-5.39
			c-0.09,3.85-1.56,7.21-3.11,10.77c-0.56,1.28-1.14,2.61-1.64,3.94c-0.18,0.38-0.41,0.74-0.67,1.07c-0.6,0.81-1.35,1.83-1.07,2.95
			c0.22,0.87,0.98,1.61,2.34,2.28c1.53,0.72,2.74,0.92,3.71,0.56c1.35-0.52,1.92-1.95,2.52-3.45l0.1-0.25
			c1.72-4.26,3.37-8.54,5.13-13.08l1.63-4.22c1.44,7.27-0.27,13.83-1.96,20.18c-0.32,1.2-0.64,2.41-0.94,3.6
			c-0.19,0.62-0.44,1.23-0.76,1.8c-0.65,1.31-1.32,2.67-0.72,3.92c0.43,0.93,1.51,1.59,3.27,2.03c1.59,0.4,2.76,0.3,3.6-0.27
			c1.11-0.79,1.25-2.31,1.38-3.65c0.03-0.67,0.14-1.34,0.35-1.98c1.71-4.21,2.31-8.57,2.94-13.18c0.35-2.58,0.72-5.24,1.29-7.88
			c4.5,3.52,7.21,8.11,9.79,12.56l0.53,0.91c6.49,11.07,11.71,23.03,16.75,34.6c1.57,3.6,3.14,7.21,4.75,10.81
			c22,49.23,55.32,78.48,101.88,89.51c4.46,1.06,8.93,2.1,13.41,3.13c21.41,4.96,43.54,10.09,64.58,17.77
			c14.91,5.45,32.07,12.7,46.35,25.16c0.22,0.19,0.45,0.41,0.67,0.63c1.06,1.04,2.36,2.34,4.12,1.54c2.74-1.16,5.56-2.14,8.43-2.94
			c6.08-1.85,12.36-3.76,17.05-9c2.88-3.23,5.77-6.37,8.87-9.7l3.45-3.73c1.07,15.56-9.37,31.67-23.33,35.59l-0.16,0.04
			c-15.91,4.47-16.21,4.87-15.86,21.08c0.13,5.32-1.31,10.56-4.15,15.07c-9.83,16.51-16.58,29.55-21.87,42.25
			c-3.42,8.22-3.19,14.81,0.72,21.37c1.78,3.13,3.37,6.37,4.75,9.7c1.1,2.49,2.23,5.05,3.52,7.52
			C653.59,635.98,655.39,648.68,652.47,662.28z M293.05,490.97c-6,12.34-10.82,25.23-14.37,38.49c-1.54,5.77-4.56,8.42-10.09,8.96
			c-0.8,0.08-1.6,0.17-2.39,0.26c-1.98,0.27-3.98,0.42-5.98,0.46h-1.07c-2.97,0-6.33,0.06-7.72-2.21c-1.02-1.66,0.05-2.75,1.87-4.38
			c0.81-0.65,1.52-1.41,2.11-2.26c6.55-10.68,11.53-22.29,16.34-33.52c1.69-3.94,3.42-8.01,5.21-11.97
			c5.85-12.98,12.61-22.64,21.31-30.33c5.23-4.63,10.81-5.83,16.58-5.83c3.15,0.06,6.29,0.29,9.41,0.68l2.45,0.26
			c5.39,0.54,10.86,1.14,16.16,1.72c11.87,1.3,24.13,2.65,36.24,3.39c6.18,0.37,6.93,3.81,7.81,7.79c0.15,0.72,0.32,1.44,0.5,2.16
			c0.37,1.38,0.33,2.43-0.13,3.2c-0.72,1.21-2.51,1.62-4.07,1.98c-0.59,0.12-1.17,0.28-1.74,0.46c-9.05,3.16-18.74,3.55-30.42,3.17
			c-11.73-0.93-24.37-1.44-37.29,1.3C304.15,476.78,297.37,482.08,293.05,490.97z M253.53,555.48c-1-0.09-1.95-0.17-2.25-0.63
			c-0.22-0.57-0.19-1.21,0.08-1.76c0.22-0.83,0.37-1.67,0.45-2.52c0.2-1.65,0.42-3.35,1.54-4.14c0.87-0.61,2.26-0.68,4.26-0.21
			c0.82,0.08,1.65,0.01,2.44-0.22c0.94-0.2,1.82-0.39,2.27,0s0.56,1.15,0.49,2.4c-0.13,2.78-0.9,4.77-2.3,5.95
			c-1.4,1.17-3.39,1.56-6.03,1.23l0,0L253.53,555.48z M294.5,584.37c0.91-0.65,2.02-0.97,3.14-0.91c0.76,0.01,1.51,0.09,2.25,0.23
			c0.51,0.07,1.03,0.08,1.54,0.04c0.76-0.04,1.56-0.07,1.92,0.29c0.26,0.35,0.36,0.79,0.29,1.22c-0.27,5.53-3.66,6.06-7.93,6.73
			c-1.17,0.16-2.34,0.38-3.49,0.66c0.16-3.5,0.42-6.77,2.27-8.23V584.37z M503.83,560l-49.38,33.92V536.1
			c15.13,10.47,31.79,18.54,49.38,23.92V560z M629.46,724.36c1.11-2.76,2-4.94,5.89-3.9c0.66,0.13,1.24,0.53,1.59,1.11
			c0.2,0.42,0.2,0.91,0,1.33c-1.33,3.31-3.95,3.3-6.98,3.27h-1.3c0.3-0.58,0.55-1.2,0.79-1.79V724.36z M368.63,279.58
			c-2.72,0-5.05,0-7.38,0c-0.59,0-1.18-0.05-1.93-0.11l-0.72-0.06l3.87-17.06c2.88,4.27,4.87,8.51,7.11,13.38
			c0.58,1.25,1.17,2.53,1.79,3.85L368.63,279.58z M324.96,690.66l123.1-84.58v75.85l-123.1,84.58V690.66z M623.44,719.01
			c-0.49,0.82-0.89,1.69-1.18,2.6c-0.72,2.05-1.4,3.83-4.04,4.19c-0.55,0.16-1.14,0.05-1.6-0.28c-0.22-0.42-0.25-0.92-0.06-1.36
			c0.14-0.56,0.27-1.14,0.39-1.72c0.5-2.44,0.99-4.74,3.34-5.77h0.11c0.85,0.02,1.66,0.31,2.34,0.83
			C623.17,717.88,623.43,718.43,623.44,719.01L623.44,719.01z M727.02,490.28l-56.23,38.62c0.07-1.5,0.04-3-0.11-4.49
			c-0.63-6.22,1.97-7.38,7.66-9.92c1.38-0.61,2.88-1.2,4.53-1.82c4.33-1.64,9.15-3.48,12.41-6.49
			c12.37-11.39,14.47-24.37,13.8-40.37c0-0.46,0-1,0-1.56c0.05-1.87,0.1-3.64-0.89-4.2c-0.76-0.43-1.63,0.14-1.92,0.32l-1.37,0.89
			c-0.52,0.29-1.01,0.65-1.44,1.06c-0.23,0.24-0.47,0.47-0.72,0.68c-2.66,2.39-5.17,4.95-7.6,7.43
			c-6.88,7.01-13.37,13.65-23.07,16.67c-3.34,1.05-5.9,1.59-8.65-0.98c-6.07-5.6-12.87-10.36-20.22-14.14l83.8-57.57L727.02,490.28z
			 M727.02,406.67l-90.35,62.09c-2.83-1.33-5.66-2.57-8.46-3.75c-9-3.77-18.19-7.08-27.52-9.92v-24.96l126.33-86.77V406.67z
			 M594.33,453.2c-6.56-1.89-13.14-3.6-19.7-5.14l19.7-13.54V453.2z M241.6,550.51c-0.46-2.8,0.9-4.9,2.62-7.55
			c0.32-0.49,0.64-0.99,0.97-1.52c1.12,4.17,0.05,6.77-1.92,9.3c-0.56,0.03-1.13-0.04-1.67-0.21V550.51z M324.96,774.26l123.1-84.58
			v71.16l-123.1,84.58V774.26z M600.69,616.98c3.42,3.04,6.73,6.11,9.93,9.1c4.68,4.37,8.36,9.7,10.81,15.61l-20.75,14.27V616.98z"
			/>
	</g>
	<g>
		<path class="st3" d="M500,942.59c-206.71,0-374.89-198.55-374.89-442.59S293.29,57.41,500,57.41
			c206.71,0,374.88,198.55,374.88,442.59S706.71,942.59,500,942.59z M500,63.87c-203.15,0-368.42,195.65-368.42,436.13
			S296.85,936.13,500,936.13c203.15,0,368.42-195.65,368.42-436.13S703.15,63.87,500,63.87z"/>
	</g>
</g>
</svg>
