<?xml version="1.0" encoding="utf-8"?>
<!-- Generator: Adobe Illustrator 27.0.0, SVG Export Plug-In . SVG Version: 6.00 Build 0)  -->
<svg version="1.1" id="Layer_1" xmlns="http://www.w3.org/2000/svg" xmlns:xlink="http://www.w3.org/1999/xlink" x="0px" y="0px"
	 viewBox="0 0 1000 1000" style="enable-background:new 0 0 1000 1000;" xml:space="preserve">
<style type="text/css">
	.st0{fill:#FFFFFF;}
	.st1{fill:#FFFFFF;stroke:#010101;stroke-width:0.2826;stroke-miterlimit:10;}
	.st2{fill:#010101;}
	.st3{fill:#231F20;}
	.st4{fill:#010101;stroke:#010101;stroke-width:0.2826;stroke-miterlimit:10;}
</style>
<g>
	<g>
		<path class="st0" d="M440.28,277.31h89.28c23.25,0,53.44,5.36,65.25,30.91c4.89,10.58,6.04,23.66,3.92,36.87
			c-11.12-8.46-24.26-14.87-39.81-18.49c-58.94-13.7-94.46,14.01-102.55,45.57c-7.79,30.44,9.36,68.26,57.23,81.64
			c29.62,8.27,59.85,2.28,84.68-16c11.15,39.59,11.15,87.47,11.15,112.2h50.15c0-37.16,0-105.3-24.11-157.21
			c16.99-33.92,19.45-74.04,4.86-105.61c-10.35-22.42-38.52-60.03-110.77-60.03H390.14v323.29h50.15V277.31z M527.1,405.53
			c-16.85-4.71-23.89-14.08-22.14-20.91c1.63-6.38,10.45-11.4,24.7-11.4c5.25,0,11.25,0.69,17.9,2.23
			c11.03,2.57,20.09,8.37,27.54,16.42C565.42,401.29,549.01,411.66,527.1,405.53z"/>
		<path class="st0" d="M302.64,673.02c17.32,14.18,38.68,26.76,59.96,26.76v-50.15c-5.19,0-19.02-6.64-35.65-21.87
			c16.4-33.65,28.78-67.58,31.01-96.26c4.44-57.31-27.9-92.29-62.14-97.23c-29.48-4.21-63.89,13.21-74.2,61.81
			c-12.45,58.67,25.68,115.75,44.6,139.64c-17.52,31.26-37.73,61.96-54.87,86.22L102.34,452.08H48.26l129.56,320.75h58.53
			C251.33,752.69,278.01,715.29,302.64,673.02z M270.67,506.5c2.97-14,9.43-22.68,16.67-22.68c0.44,0,0.88,0.03,1.32,0.09
			c9.32,1.35,21.47,15.8,19.3,43.72c-1.27,16.45-7.38,36.2-16.36,57.26C274.01,556.6,266.12,527.95,270.67,506.5z"/>
		<path class="st0" d="M779.01,683.6c38.19,36.7,78.74,69.03,105.38,89.23h67.35V451.91h-50.15v270.67
			c-19.34-15.13-43.66-34.94-67.96-56.82c-12.17-10.96-22.95-21.19-32.51-30.72c22.35-53.56,37.24-107.29,26.97-141.04
			c-10.36-34.1-43.7-64.32-87.44-56.06c-47.66,8.99-66.14,54.8-63.13,93.57c2.67,34.4,29.41,74.8,64.02,113.48
			c-20.77,44.41-46.51,90.94-69.48,127.85h58.62C744.13,750.04,762.02,718.28,779.01,683.6z M727.53,527.63
			c-2.04-26.3,10.24-38.12,22.43-40.42c1.44-0.27,2.97-0.42,4.53-0.42c9.58,0,20.7,5.55,25.65,21.8
			c5.06,16.65-2.44,48.06-16.65,85.23C733.81,557.28,728.22,536.62,727.53,527.63z"/>
	</g>
	<g>
		<path class="st0" d="M526.18,471.11h-2.65c-7.24,78.27-46.46,139.64-95.62,148.47v2.4c49.66,8.91,89.2,71.44,95.85,150.85h2.2
			c6.65-79.41,46.18-141.94,95.85-150.85v-2.4C572.64,610.75,533.42,549.38,526.18,471.11z"/>
	</g>
</g>
</svg>
