<?xml version="1.0" encoding="utf-8"?>
<!-- Generator: Adobe Illustrator 27.0.0, SVG Export Plug-In . SVG Version: 6.00 Build 0)  -->
<svg version="1.1" id="Layer_1" xmlns="http://www.w3.org/2000/svg" xmlns:xlink="http://www.w3.org/1999/xlink" x="0px" y="0px"
	 viewBox="0 0 4473.85 1000" style="enable-background:new 0 0 4473.85 1000;" xml:space="preserve">
<style type="text/css">
	.st0{fill:#FFFFFF;}
	.st1{fill:#FFFFFF;stroke:#010101;stroke-width:0.2826;stroke-miterlimit:10;}
	.st2{fill:#010101;}
	.st3{fill:#231F20;}
	.st4{fill:#010101;stroke:#010101;stroke-width:0.2826;stroke-miterlimit:10;}
</style>
<g>
	<g>
		<path class="st2" d="M2437.36,300.84c-19.36-41.94-72.05-112.29-207.2-112.29h-260.81v604.73h8.93v0.32h84.87V282.35h167.01
			c43.49,0,99.97,10.03,122.05,57.82c9.14,19.8,11.3,44.26,7.34,68.98c-20.79-15.83-45.39-27.81-74.47-34.58
			c-110.26-25.63-176.71,26.2-191.82,85.25c-14.58,56.95,17.51,127.69,107.05,152.71c55.4,15.47,111.95,4.27,158.41-29.94
			c20.85,74.05,20.85,163.61,20.85,209.88h93.8c0-69.52,0-196.96-45.1-294.07C2460.06,434.95,2464.65,359.9,2437.36,300.84z
			 M2225.56,522.19c-31.51-8.8-44.69-26.35-41.42-39.11c3.05-11.93,19.54-21.32,46.2-21.32c9.83,0,21.05,1.28,33.48,4.18
			c20.63,4.8,37.58,15.65,51.52,30.72C2297.23,514.25,2266.55,533.65,2225.56,522.19z"/>
		<path class="st2" d="M1475.29,282.35h167.01c43.49,0,99.97,10.03,122.05,57.82c9.14,19.8,11.3,44.26,7.34,68.98
			c-20.79-15.83-45.39-27.81-74.47-34.58c-110.25-25.63-176.7,26.2-191.83,85.25c-14.57,56.95,17.51,127.69,107.06,152.71
			c55.4,15.47,111.95,4.27,158.41-29.94c20.85,74.05,20.85,163.61,20.85,209.88h93.8c0-69.52,0-196.96-45.1-294.07
			c31.79-63.44,36.38-138.49,9.09-197.56c-19.36-41.94-72.05-112.29-207.2-112.29h-260.81v604.73h93.8V282.35z M1637.7,522.19
			c-31.52-8.8-44.69-26.35-41.42-39.11c3.05-11.93,19.54-21.32,46.2-21.32c9.83,0,21.05,1.28,33.48,4.18
			c20.63,4.8,37.58,15.65,51.52,30.72C1709.37,514.25,1678.68,533.65,1637.7,522.19z"/>
		<path class="st2" d="M991.14,606.57c32.39,26.53,72.35,50.06,112.16,50.06v-93.8c-9.71,0-35.57-12.41-66.68-40.91
			c30.68-62.95,53.83-126.41,58-180.05c8.31-107.19-52.19-172.63-116.23-181.88c-55.14-7.88-119.51,24.71-138.81,115.62
			c-23.29,109.75,48.04,216.51,83.43,261.21c-32.77,58.47-70.58,115.9-102.63,161.29L616.46,193.29H515.3l242.36,599.99h109.48
			C895.15,755.61,945.07,685.64,991.14,606.57z M931.33,295.08c5.56-26.19,17.63-42.43,31.19-42.43c0.82,0,1.64,0.05,2.47,0.17
			c17.43,2.52,40.16,29.55,36.1,81.78c-2.38,30.78-13.81,67.72-30.6,107.1C937.58,388.8,922.82,335.21,931.33,295.08z"/>
		<path class="st2" d="M3880.44,379.92c-32.39-26.53-72.35-50.06-112.16-50.06v93.8c9.71,0,35.57,12.41,66.68,40.91
			c-30.68,62.95-53.83,126.41-58,180.05c-8.31,107.19,52.19,172.63,116.23,181.88c55.15,7.88,119.51-24.71,138.81-115.62
			c23.29-109.75-48.04-216.51-83.43-261.21c32.77-58.47,70.58-115.9,102.63-161.29l203.91,504.81h101.16l-242.36-599.99h-109.48
			C3976.43,230.89,3926.51,300.85,3880.44,379.92z M3940.25,691.41c-5.56,26.19-17.63,42.43-31.19,42.43
			c-0.82,0-1.64-0.05-2.47-0.17c-17.43-2.52-40.16-29.55-36.1-81.78c2.38-30.78,13.81-67.72,30.6-107.1
			C3934,597.69,3948.76,651.28,3940.25,691.41z"/>
		<path class="st2" d="M3363.38,626.37c71.44,68.65,147.29,129.12,197.13,166.92h125.97V192.97h-93.8v506.31
			c-36.18-28.3-81.66-65.35-127.12-106.29c-22.76-20.51-42.93-39.64-60.81-57.46c41.81-100.19,69.66-200.7,50.45-263.83
			c-19.38-63.78-81.75-120.32-163.57-104.87c-89.16,16.81-123.72,102.51-118.09,175.03c4.99,64.34,55.01,139.91,119.76,212.27
			c-38.86,83.07-87,170.11-129.96,239.15H3273C3298.14,750.66,3331.6,691.25,3363.38,626.37z M3267.08,334.61
			c-3.82-49.19,19.16-71.3,41.95-75.6c2.7-0.51,5.55-0.79,8.47-0.79c17.93,0,38.73,10.39,47.97,40.77
			c9.47,31.15-4.57,89.91-31.15,159.43C3278.82,390.08,3268.38,351.44,3267.08,334.61z"/>
		<g>
			<rect x="1183.34" y="359.98" class="st2" width="93.8" height="433.31"/>
			<path class="st2" d="M1230.23,164.77c-39.33,0-71.22,31.89-71.22,71.22c0,39.33,31.89,71.22,71.22,71.22
				c39.34,0,71.22-31.89,71.22-71.22C1301.46,196.66,1269.57,164.77,1230.23,164.77z"/>
		</g>
		<g>
			<path class="st2" d="M3021.84,358.32c9.06,36.73,28.2,182.02,8.22,248.13c-27.81,92-112.09,132.4-181.7,139.54
				c-69.74,7.19-160.82-15.28-206.75-99.76c-14.75-27.13-15.44-53.29-10.08-75.86c63.27,38.73,143.06,48.05,198.05,18.46
				c47.28-25.45,67.69-74.59,54.6-131.46c-12.16-52.8-46.22-88.77-93.47-98.68c-52.52-11-115.9,11.62-167.28,56.85
				c-9.32-37.44-0.87-82.21,25.24-132.65h287.04v-93.8h-341.01l-13.67,22.72c-82.91,137.77-55.66,233.67-22.55,286.95
				c-32.09,63.44-32.27,131.62,0.71,192.28c51.44,94.6,150.07,150.12,262.82,150.11c11.83,0,23.81-0.6,35.9-1.85
				c127.14-13.04,227.51-91.85,261.93-205.69c31.45-104.02-5.35-268.87-6.93-275.28H3021.84z M2771.45,450.49
				c4.68,0.99,15.66,3.29,21.32,27.92c4.86,21.11-2.67,25.15-7.65,27.84c-20.66,11.12-65.84,8.34-104.63-15.64
				C2712.22,460.9,2749.8,446.01,2771.45,450.49z"/>
			<path class="st2" d="M3061.29,164.77c-39.33,0-71.22,31.89-71.22,71.22c0,39.33,31.89,71.22,71.22,71.22
				c39.34,0,71.22-31.89,71.22-71.22C3132.52,196.66,3100.63,164.77,3061.29,164.77z"/>
		</g>
	</g>
	<g>
		<path class="st2" d="M312.99,193.3h-5.28c-14.39,155.65-92.38,277.68-190.14,295.23v4.78c98.75,17.72,177.37,142.06,190.59,299.97
			h4.38c13.22-157.91,91.84-282.25,190.59-299.97v-4.78C405.38,470.97,327.39,348.95,312.99,193.3z"/>
	</g>
</g>
</svg>
